<svg id="line" enable-background="new 0 0 36 36" height="512" viewBox="0 0 36 36" width="512" xmlns="http://www.w3.org/2000/svg"><g><path d="m4.167 27.623c0-6.917-3.583-11.667-3.583-15s1.916-10.333 17.249-10.333 17.583 9.417 17.583 13.083c.001 17.167-31.249 24.5-31.249 12.25z" fill="#efefef"/></g><g><path d="m26.625 3.25h1v2h-1z" fill="#a4afc1"/></g><g><path d="m28.875 6.25h2v1h-2z" fill="#a4afc1"/></g><g><path d="m7 33.5c-.827 0-1.5-.673-1.5-1.5s.673-1.5 1.5-1.5 1.5.673 1.5 1.5-.673 1.5-1.5 1.5zm0-2c-.275 0-.5.225-.5.5s.225.5.5.5.5-.225.5-.5-.225-.5-.5-.5z" fill="#a4afc1"/></g><g><path d="m29.25 15.065c0-2.162-1.918-3.913-4.286-3.913l-.148-.042c.096-.298.148-.612.148-.936 0-1.888-1.682-3.424-3.75-3.424-1.371 0-2.561.675-3.214 1.673v19.154c.654.998 1.843 1.673 3.214 1.673 2.068 0 3.75-1.536 3.75-3.424 0-.245-.032-.489-.086-.714 1.918-.577 3.3-2.23 3.3-4.177 0-.959-.332-1.849-.911-2.573 1.19-.695 1.983-1.908 1.983-3.297z" fill="#f3f3f1"/></g><g><path d="m18 6.75c-.01 0-.03 0-.04 0-4.57 0-8.29 3.73-8.29 8.32h.01c0 .7-.2 1.38-.57 1.97l-2.28 3.96c-.05.07-.08.16-.08.26 0 .27.21.49.49.49h2.51v3.03c0 .81.65 1.47 1.46 1.47.15 0 .29-.02.43-.07l3.11-.84v3.91h3.25z" fill="#2fdf84"/></g><g><path d="m9 21.26c0-.1.03-.19.08-.26l2.28-3.96c.37-.59.57-1.27.57-1.97h-.01c0-3.82 2.581-7.037 6.08-8.011v-.309c-.01 0-.03 0-.04 0-4.57 0-8.29 3.73-8.29 8.32h.01c0 .7-.2 1.38-.57 1.97l-2.28 3.96c-.05.07-.08.16-.08.26 0 .27.21.49.49.49h2.25c-.28 0-.49-.22-.49-.49z" fill="#00b871"/></g><g><path d="m14.75 25.948v3.302h2.25v-3.91z" fill="#00b871"/></g><g><path d="m12 24.78v-3.03h-2.25v3.03c0 .81.65 1.47 1.46 1.47.15 0 .29-.02.43-.07l.921-.249c-.34-.269-.561-.683-.561-1.151z" fill="#00b871"/></g><g><path d="m20.25 27.577v-19.154c.463-.706 1.197-1.245 2.071-1.503-.352-.1-.719-.17-1.107-.17-1.371 0-2.561.675-3.214 1.673v19.154c.654.998 1.843 1.673 3.214 1.673.388 0 .755-.069 1.107-.17-.874-.258-1.608-.796-2.071-1.503z" fill="#d5dbe1"/></g><g><path d="m19.75 23.375c-1.379 0-2.5-1.121-2.5-2.5h1.5c0 .552.448 1 1 1s1-.448 1-1h1.5c0 1.379-1.121 2.5-2.5 2.5z"/></g><g><path d="m25.514 11.405-1.42-.486c.08-.231.12-.482.12-.745 0-1.475-1.346-2.674-3-2.674-1.057 0-2.048.511-2.586 1.334l-1.256-.822c.825-1.26 2.261-2.012 3.842-2.012 2.481 0 4.5 1.872 4.5 4.174 0 .429-.068.843-.2 1.231z"/></g><g><path d="m21.21 30c-1.585 0-3.02-.752-3.839-2.011l1.258-.818c.541.832 1.506 1.329 2.581 1.329 1.654 0 3-1.197 3-2.67 0-.182-.021-.365-.063-.561-.082-.382.142-.764.517-.877 1.288-.39 2.271-1.328 2.629-2.51l1.436.434c-.444 1.468-1.553 2.663-3.024 3.291.005.075.007.149.007.223-.002 2.299-2.021 4.17-4.502 4.17z"/></g><g><path d="m27.346 20.224c-.105-.503-.334-.985-.661-1.395-.137-.171-.192-.392-.152-.606s.172-.401.361-.511c1.006-.584 1.606-1.571 1.606-2.642 0-1.748-1.588-3.17-3.54-3.17-.753 0-1.39.554-1.39 1.21s.637 1.21 1.39 1.21v1.5c-1.594 0-2.89-1.216-2.89-2.71s1.296-2.71 2.89-2.71c2.779 0 5.04 2.095 5.04 4.67 0 1.355-.622 2.612-1.697 3.486.238.426.412.886.512 1.36z"/></g><g><path d="m18 30h-3.25c-.414 0-.75-.336-.75-.75v-2.931l-2.165.584c-.152.059-.377.097-.625.097-1.219 0-2.21-.996-2.21-2.22v-2.28h-1.76c-.683 0-1.24-.557-1.24-1.24 0-.252.075-.492.218-.693l2.242-3.9c.292-.467.449-.972.468-1.488-.005-.036-.008-.073-.008-.109 0-5.001 4.056-9.07 9.04-9.07.414 0 .79.336.79.75v22.5c0 .414-.336.75-.75.75zm-2.5-1.5h1.75v-20.967c-3.789.356-6.771 3.54-6.829 7.423.006.037.009.075.009.114 0 .836-.236 1.655-.684 2.368l-2.051 3.562h2.055c.414 0 .75.336.75.75v3.03c0 .396.318.72.71.72.093 0 .142-.014.174-.025l3.171-.858c.225-.062.465-.015.651.128s.294.362.294.596zm-8.019-7.128-.001.002v.001s0-.001.001-.003z"/></g><g><path d="m2 28.5h32v1.5h-32z"/></g></svg>