<svg id="line" enable-background="new 0 0 36 36" height="512" viewBox="0 0 36 36" width="512" xmlns="http://www.w3.org/2000/svg"><g><path d="m27.623 31.833c-6.917 0-11.667 3.583-15 3.583s-10.333-1.916-10.333-17.249 9.417-17.584 13.083-17.584c17.167 0 24.5 31.25 12.25 31.25z" fill="#efefef"/></g><g><path d="m7.375 30.75h1v2h-1z" fill="#a4afc1"/></g><g><path d="m4.125 28.75h2v1h-2z" fill="#a4afc1"/></g><g><path d="m29.25 15.065c0-2.162-1.918-3.913-4.286-3.913-.048 0-.102-.007-.155-.012.102-.307.155-.632.155-.967 0-1.888-1.682-3.424-3.75-3.424-1.371 0-2.561.675-3.214 1.673-.654-.998-1.843-1.673-3.214-1.673-2.068 0-3.75 1.536-3.75 3.424 0 .334.053.659.155.965-.053.005-.109.013-.155.013-2.368 0-4.286 1.751-4.286 3.913 0 1.389.793 2.602 1.982 3.297-.579.724-.911 1.614-.911 2.573 0 1.947 1.382 3.6 3.3 4.177-.054.225-.086.47-.086.714 0 1.888 1.682 3.424 3.75 3.424 1.371 0 2.561-.675 3.214-1.673.654.998 1.843 1.673 3.214 1.673 2.068 0 3.75-1.536 3.75-3.424 0-.245-.032-.489-.086-.714 1.918-.577 3.3-2.23 3.3-4.177 0-.959-.332-1.849-.911-2.573 1.191-.694 1.984-1.907 1.984-3.296z" fill="#2fdf84"/></g><g><path d="m20.25 8.423c.463-.706 1.197-1.245 2.071-1.503-.352-.1-.719-.17-1.107-.17-.778 0-1.493.223-2.089.593.455.282.842.648 1.125 1.08z" fill="#00b871"/></g><g><path d="m20.25 27.577c-.283.432-.67.797-1.125 1.08.596.37 1.311.593 2.089.593.388 0 .755-.069 1.107-.17-.874-.258-1.608-.796-2.071-1.503z" fill="#00b871"/></g><g><path d="m13.286 25.826c0-.245.032-.489.086-.714-1.918-.577-3.3-2.23-3.3-4.177 0-.959.332-1.849.911-2.573-1.19-.695-1.983-1.908-1.983-3.297 0-2.162 1.918-3.913 4.286-3.913.046 0 .102-.008.155-.013-.102-.307-.155-.631-.155-.965 0-1.534 1.118-2.82 2.643-3.254-.361-.106-.742-.17-1.143-.17-2.068 0-3.75 1.536-3.75 3.424 0 .334.053.659.155.965-.053.005-.109.013-.155.013-2.368 0-4.286 1.751-4.286 3.913 0 1.389.793 2.602 1.982 3.297-.579.724-.911 1.614-.911 2.573 0 1.947 1.382 3.6 3.3 4.177-.054.225-.086.47-.086.714 0 1.888 1.682 3.424 3.75 3.424.4 0 .782-.063 1.143-.17-1.525-.434-2.642-1.72-2.642-3.254z" fill="#00b871"/></g><g><path d="m25.514 11.405-1.42-.486c.08-.231.12-.482.12-.745 0-1.475-1.346-2.674-3-2.674-1.057 0-2.048.511-2.586 1.334-.277.422-.979.422-1.256 0-.538-.823-1.529-1.334-2.586-1.334-1.654 0-3 1.199-3 2.674 0 .263.04.514.12.745l-1.42.486c-.133-.389-.2-.803-.2-1.231 0-2.302 2.019-4.174 4.5-4.174 1.234 0 2.378.458 3.214 1.258.836-.8 1.98-1.258 3.214-1.258 2.481 0 4.5 1.872 4.5 4.174 0 .429-.068.843-.2 1.231z"/></g><g><path d="m27.411 20.674c-.039-.662-.29-1.3-.727-1.845-.137-.17-.192-.392-.152-.606s.172-.401.361-.511c1.006-.584 1.606-1.571 1.606-2.642 0-1.748-1.588-3.17-3.54-3.17-.753 0-1.39.554-1.39 1.21s.637 1.21 1.39 1.21v1.5c-1.594 0-2.89-1.216-2.89-2.71s1.296-2.71 2.89-2.71c2.779 0 5.04 2.095 5.04 4.67 0 1.354-.622 2.61-1.695 3.484.355.628.562 1.318.604 2.031z"/></g><g><path d="m21.21 30c-1.234 0-2.378-.456-3.21-1.253-.832.797-1.976 1.253-3.21 1.253-2.481 0-4.5-1.871-4.5-4.17 0-.073.002-.147.007-.222-1.954-.833-3.227-2.644-3.227-4.678 0-.839.215-1.646.626-2.374-1.074-.874-1.696-2.131-1.696-3.486 0-2.575 2.261-4.67 5.04-4.67 1.594 0 2.89 1.216 2.89 2.71h-1.5c0-.656-.637-1.21-1.39-1.21-1.952 0-3.54 1.422-3.54 3.17 0 1.07.601 2.058 1.606 2.642.188.109.32.295.361.509.04.215-.015.436-.15.606-.488.614-.747 1.342-.747 2.103 0 1.571 1.112 2.963 2.767 3.463.374.113.599.495.517.877-.043.195-.063.379-.063.561 0 1.473 1.346 2.67 3 2.67 1.075 0 2.04-.497 2.581-1.329.277-.426.98-.426 1.258 0 .541.832 1.506 1.329 2.581 1.329 1.654 0 3-1.197 3-2.67 0-.182-.021-.365-.063-.561-.082-.382.142-.763.515-.876 1.107-.339 2-1.086 2.449-2.05l1.359.633c-.542 1.165-1.531 2.099-2.767 2.63.005.075.007.149.007.224-.001 2.298-2.02 4.169-4.501 4.169z"/></g><g><path d="m12.158 25.971c-.604 0-1.078-.09-1.183-.11l.297-1.471c.406.081 1.692.205 2.261-.261.126-.104.293-.293.293-.748 0-.925-.282-1.207-1.207-1.207v-1.5c1.746 0 2.707.961 2.707 2.707 0 1.008-.459 1.595-.845 1.91-.669.547-1.59.68-2.323.68z"/></g><g><path d="m17.604 22.944-1.209-.889 2.248-3.055-2.897-.001c-.287 0-.549-.164-.675-.422-.125-.258-.093-.564.084-.79l3.326-4.249 1.182.924-2.379 3.038 2.841.001c.283 0 .542.159.669.411.128.253.103.556-.064.783z"/></g></svg>