<svg id="line" enable-background="new 0 0 36 36" height="512" viewBox="0 0 36 36" width="512" xmlns="http://www.w3.org/2000/svg"><g><path d="m27.623 4.167c-6.917 0-11.667-3.583-15-3.583s-10.333 1.916-10.333 17.249 9.417 17.583 13.083 17.583c17.167.001 24.5-31.249 12.25-31.249z" fill="#efefef"/></g><g><path d="m1.25 15.375h2v1h-2z" fill="#a4afc1"/></g><g><path d="m4.25 17.875h1v2h-1z" fill="#a4afc1"/></g><g><path d="m4.25 12.125h1v2h-1z" fill="#a4afc1"/></g><g><circle cx="8.5" cy="8.5" fill="#f3f3f1" r="1.75"/></g><g><circle cx="8.5" cy="27.5" fill="#f3f3f1" r="1.75"/></g><g><circle cx="27.5" cy="8.5" fill="#f3f3f1" r="1.75"/></g><g><circle cx="27.5" cy="27.5" fill="#f3f3f1" r="1.75"/></g><g><circle cx="18" cy="18" fill="#2fdf84" r="8.25"/></g><g><path d="m12 18c0-4.174 3.102-7.614 7.125-8.164-.369-.051-.742-.086-1.125-.086-4.556 0-8.25 3.694-8.25 8.25s3.694 8.25 8.25 8.25c.383 0 .756-.035 1.125-.086-4.023-.55-7.125-3.99-7.125-8.164z" fill="#00b871"/></g><g><path d="m9 8.5c0-.536.246-1.009.625-1.33-.305-.258-.694-.42-1.125-.42-.966 0-1.75.784-1.75 1.75s.784 1.75 1.75 1.75c.431 0 .82-.162 1.125-.42-.379-.321-.625-.794-.625-1.33z" fill="#d5dbe1"/></g><g><path d="m9 27.5c0-.536.246-1.009.625-1.33-.305-.258-.694-.42-1.125-.42-.966 0-1.75.784-1.75 1.75s.784 1.75 1.75 1.75c.431 0 .82-.162 1.125-.42-.379-.321-.625-.794-.625-1.33z" fill="#d5dbe1"/></g><g><path d="m28 8.5c0-.536.246-1.009.625-1.33-.305-.258-.694-.42-1.125-.42-.966 0-1.75.784-1.75 1.75s.784 1.75 1.75 1.75c.431 0 .82-.162 1.125-.42-.379-.321-.625-.794-.625-1.33z" fill="#d5dbe1"/></g><g><path d="m28 27.5c0-.536.246-1.009.625-1.33-.305-.258-.694-.42-1.125-.42-.966 0-1.75.784-1.75 1.75s.784 1.75 1.75 1.75c.431 0 .82-.162 1.125-.42-.379-.321-.625-.794-.625-1.33z" fill="#d5dbe1"/></g><g><path d="m8.5 11c-1.379 0-2.5-1.121-2.5-2.5s1.121-2.5 2.5-2.5 2.5 1.121 2.5 2.5-1.121 2.5-2.5 2.5zm0-3.5c-.552 0-1 .448-1 1s.448 1 1 1 1-.448 1-1-.448-1-1-1z"/></g><g><path d="m8.5 30c-1.379 0-2.5-1.121-2.5-2.5s1.121-2.5 2.5-2.5 2.5 1.121 2.5 2.5-1.121 2.5-2.5 2.5zm0-3.5c-.552 0-1 .448-1 1s.448 1 1 1 1-.448 1-1-.448-1-1-1z"/></g><g><path d="m27.5 11c-1.379 0-2.5-1.121-2.5-2.5s1.121-2.5 2.5-2.5 2.5 1.121 2.5 2.5-1.121 2.5-2.5 2.5zm0-3.5c-.552 0-1 .448-1 1s.448 1 1 1 1-.448 1-1-.448-1-1-1z"/></g><g><path d="m27.5 30c-1.379 0-2.5-1.121-2.5-2.5s1.121-2.5 2.5-2.5 2.5 1.121 2.5 2.5-1.121 2.5-2.5 2.5zm0-3.5c-.552 0-1 .448-1 1s.448 1 1 1 1-.448 1-1-.448-1-1-1z"/></g><g><path d="m18 27c-4.963 0-9-4.037-9-9s4.037-9 9-9 9 4.037 9 9c0 1.836-.551 3.608-1.592 5.125l-1.236-.85c.869-1.265 1.328-2.744 1.328-4.275 0-4.136-3.364-7.5-7.5-7.5s-7.5 3.364-7.5 7.5 3.364 7.5 7.5 7.5c1.823 0 3.587-.665 4.966-1.874l.988 1.129c-1.652 1.447-3.766 2.245-5.954 2.245z"/></g><g><path d="m17.456 26.767c-4.586-4.834-4.586-12.699 0-17.533l1.088 1.033c-4.046 4.264-4.046 11.203 0 15.467z"/></g><g><path d="m18.544 26.767-1.088-1.033c4.046-4.264 4.046-11.203 0-15.467l1.088-1.033c4.586 4.833 4.586 12.699 0 17.533z"/></g><g><path d="m10.06 15h15.881v1.5h-15.881z"/></g><g><path d="m10.06 19.5h15.881v1.5h-15.881z"/></g></svg>