<svg id="line" enable-background="new 0 0 36 36" height="512" viewBox="0 0 36 36" width="512" xmlns="http://www.w3.org/2000/svg"><g><path d="m27.623 31.833c-6.917 0-11.667 3.583-15 3.583s-10.333-1.916-10.333-17.249 9.417-17.584 13.083-17.584c17.167 0 24.5 31.25 12.25 31.25z" fill="#efefef"/></g><g><path d="m24 33.5c-.827 0-1.5-.673-1.5-1.5s.673-1.5 1.5-1.5 1.5.673 1.5 1.5-.673 1.5-1.5 1.5zm0-2c-.276 0-.5.225-.5.5s.224.5.5.5.5-.225.5-.5-.224-.5-.5-.5z" fill="#a4afc1"/></g><g><circle cx="11" cy="19" fill="#f3f3f1" r="1.25"/></g><g><circle cx="16" cy="15" fill="#f3f3f1" r="1.25"/></g><g><circle cx="22" cy="19" fill="#f3f3f1" r="1.25"/></g><g><circle cx="25" cy="12" fill="#f3f3f1" r="1.25"/></g><g><path d="m14.84 15.93-2.68 2.14z" fill="#f3f3f1"/></g><g><path d="m24.41 13.38-1.82 4.25z" fill="#f3f3f1"/></g><g><path d="m20.75 18.17-3.5-2.34z" fill="#f3f3f1"/></g><g><path d="m27.25 6.75h-18.5c-1.1 0-2 .9-2 2v13.5c0 1.1.9 2 2 2h2v5l5-5h11.5c1.1 0 2-.9 2-2v-13.5c0-1.1-.9-2-2-2zm-16.25 13.5c-.69 0-1.25-.56-1.25-1.25s.56-1.25 1.25-1.25 1.25.56 1.25 1.25-.56 1.25-1.25 1.25zm5-4c-.69 0-1.25-.56-1.25-1.25s.56-1.25 1.25-1.25 1.25.56 1.25 1.25-.56 1.25-1.25 1.25zm6 4c-.69 0-1.25-.56-1.25-1.25s.56-1.25 1.25-1.25 1.25.56 1.25 1.25-.56 1.25-1.25 1.25zm3-7c-.69 0-1.25-.56-1.25-1.25s.56-1.25 1.25-1.25 1.25.56 1.25 1.25-.56 1.25-1.25 1.25z" fill="#2fdf84"/></g><g><path d="m13 27v-2.75h-2c-1.1 0-2-.9-2-2v-13.5c0-1.1.9-2 2-2h-2.25c-1.1 0-2 .9-2 2v13.5c0 1.1.9 2 2 2h2v5z" fill="#00b871"/></g><g><path d="m12 19c0-.19.049-.365.125-.526-.2-.425-.625-.724-1.125-.724-.69 0-1.25.56-1.25 1.25s.56 1.25 1.25 1.25c.5 0 .925-.299 1.125-.724-.076-.161-.125-.336-.125-.526z" fill="#d5dbe1"/></g><g><path d="m17 15c0-.19.049-.365.125-.526-.2-.425-.625-.724-1.125-.724-.69 0-1.25.56-1.25 1.25s.56 1.25 1.25 1.25c.5 0 .925-.299 1.125-.724-.076-.161-.125-.336-.125-.526z" fill="#d5dbe1"/></g><g><path d="m23 19c0-.19.049-.365.125-.526-.2-.425-.625-.724-1.125-.724-.69 0-1.25.56-1.25 1.25s.56 1.25 1.25 1.25c.5 0 .925-.299 1.125-.724-.076-.161-.125-.336-.125-.526z" fill="#d5dbe1"/></g><g><path d="m26 12c0-.19.049-.365.125-.526-.2-.425-.625-.724-1.125-.724-.69 0-1.25.56-1.25 1.25s.56 1.25 1.25 1.25c.5 0 .925-.299 1.125-.724-.076-.161-.125-.336-.125-.526z" fill="#d5dbe1"/></g><g><path d="m11 21c-1.103 0-2-.897-2-2s.897-2 2-2 2 .897 2 2-.897 2-2 2zm0-2.5c-.276 0-.5.225-.5.5s.224.5.5.5.5-.225.5-.5-.224-.5-.5-.5z"/></g><g><path d="m16 17c-1.103 0-2-.897-2-2s.897-2 2-2 2 .897 2 2-.897 2-2 2zm0-2.5c-.276 0-.5.225-.5.5s.224.5.5.5.5-.225.5-.5-.224-.5-.5-.5z"/></g><g><path d="m22 21c-1.103 0-2-.897-2-2s.897-2 2-2 2 .897 2 2-.897 2-2 2zm0-2.5c-.276 0-.5.225-.5.5s.224.5.5.5.5-.225.5-.5-.224-.5-.5-.5z"/></g><g><path d="m25 14c-1.103 0-2-.897-2-2s.897-2 2-2 2 .897 2 2-.897 2-2 2zm0-2.5c-.276 0-.5.225-.5.5s.224.5.5.5.5-.225.5-.5-.224-.5-.5-.5z"/></g><g><path d="m11.785 16.25h3.43v1.5h-3.43z" transform="matrix(.781 -.624 .624 .781 -7.659 12.148)"/></g><g><path d="m21.188 14.755h4.623v1.5h-4.623z" transform="matrix(.393 -.919 .919 .393 .002 31.013)"/></g><g><path d="m18.25 14.895h1.499v4.21h-1.499z" transform="matrix(.556 -.831 .831 .556 -5.692 23.347)"/></g><g><path d="m10.75 30c-.097 0-.194-.019-.287-.057-.28-.116-.463-.389-.463-.693v-4.25h-1.25c-1.517 0-2.75-1.233-2.75-2.75v-13.5c0-1.517 1.233-2.75 2.75-2.75h6.25v1.5h-6.25c-.689 0-1.25.561-1.25 1.25v13.5c0 .689.561 1.25 1.25 1.25h2c.414 0 .75.336.75.75v3.189l3.72-3.72c.141-.141.332-.22.53-.22h11.5c.689 0 1.25-.561 1.25-1.25v-13.499c0-.689-.561-1.25-1.25-1.25h-10.25v-1.5h10.25c1.517 0 2.75 1.233 2.75 2.75v13.5c0 1.517-1.233 2.75-2.75 2.75h-11.189l-4.78 4.78c-.144.144-.336.22-.531.22z"/></g><g><path d="m2 28.5h32v1.5h-32z"/></g></svg>