<svg id="line" enable-background="new 0 0 36 36" height="512" viewBox="0 0 36 36" width="512" xmlns="http://www.w3.org/2000/svg"><g><path d="m4.167 8.377c0 6.917-3.583 11.667-3.583 15s1.916 10.333 17.249 10.333 17.583-9.417 17.583-13.083c.001-17.167-31.249-24.5-31.249-12.25z" fill="#efefef"/></g><g><path d="m9.625 3.25h1v2h-1z" fill="#a4afc1"/></g><g><path d="m6.125 6.25h2v1h-2z" fill="#a4afc1"/></g><g><path d="m11.875 6.25h2v1h-2z" fill="#a4afc1"/></g><g><circle cx="18" cy="15" fill="#f3f3f1" r="4.25"/></g><g><path d="m28.25 10.75h-10.25c2.347 0 4.25 1.903 4.25 4.25s-1.903 4.25-4.25 4.25-4.25-1.903-4.25-4.25 1.903-4.25 4.25-4.25h-10.125c-.552 0-1 .448-1 1v12.5c0 .552.448 1 1 1h20.375c.552 0 1-.448 1-1v-12.5c0-.552-.448-1-1-1z" fill="#2fdf84"/></g><g><path d="m23.75 11.75h-2.5v-2.5l2.5-2.5v2.5h2.5z" fill="#f3f3f1"/></g><g><path d="m9.125 24.25v-12.5c0-.552.448-1 1-1h-2.25c-.552 0-1 .448-1 1v12.5c0 .552.448 1 1 1h2.25c-.552 0-1-.448-1-1z" fill="#00b871"/></g><g><path d="m15.875 15c0-1.978 1.358-3.626 3.187-4.1-.341-.088-.693-.15-1.062-.15-2.347 0-4.25 1.903-4.25 4.25s1.903 4.25 4.25 4.25c.369 0 .721-.062 1.062-.15-1.829-.474-3.187-2.122-3.187-4.1z" fill="#d5dbe1"/></g><g><path d="m23.75 8.875v-2.125l-2.5 2.5v2.5h2.125v-2.5z" fill="#d5dbe1"/></g><g><path d="m18 20c-2.757 0-5-2.243-5-5s2.243-5 5-5v1.5c-1.93 0-3.5 1.57-3.5 3.5s1.57 3.5 3.5 3.5 3.5-1.57 3.5-3.5h1.5c0 2.757-2.243 5-5 5z"/></g><g><path d="m17.379 12.75h4.243v1.5h-4.243z" transform="matrix(.707 -.707 .707 .707 -3.835 17.743)"/></g><g><path d="m23.75 12.5h-2.5c-.414 0-.75-.336-.75-.75v-2.5c0-.199.079-.39.22-.53l2.5-2.5c.215-.214.538-.279.817-.163.28.116.463.39.463.693v1.75h1.75c.303 0 .577.183.693.463s.052.603-.163.817l-2.5 2.5c-.14.141-.331.22-.53.22zm-1.75-1.5h1.439l1-1h-.689c-.414 0-.75-.336-.75-.75v-.689l-1 1z"/></g><g><path d="m28.25 26h-20.5c-.965 0-1.75-.785-1.75-1.75v-12.5c0-.965.785-1.75 1.75-1.75h4.25v1.5h-4.25c-.138 0-.25.112-.25.25v12.5c0 .138.112.25.25.25h20.5c.138 0 .25-.112.25-.25v-12.5c0-.138-.112-.25-.25-.25h-.75v-1.5h.75c.965 0 1.75.785 1.75 1.75v12.5c0 .965-.785 1.75-1.75 1.75z"/></g><g><path d="m13 28.5h10v1.5h-10z"/></g><g><path d="m17.25 25.25h1.5v4h-1.5z"/></g><g><path d="m2 28.5h32v1.5h-32z"/></g></svg>