<svg id="line" enable-background="new 0 0 36 36" height="512" viewBox="0 0 36 36" width="512" xmlns="http://www.w3.org/2000/svg"><g><path d="m8.377 4.167c6.917 0 11.667-3.583 15-3.583s10.333 1.916 10.333 17.249-9.417 17.583-13.083 17.583c-17.167.001-24.5-31.249-12.25-31.249z" fill="#efefef"/></g><g><path d="m9.625 3.25h1v2h-1z" fill="#a4afc1"/></g><g><path d="m6.125 6.25h2v1h-2z" fill="#a4afc1"/></g><g><path d="m11.875 6.25h2v1h-2z" fill="#a4afc1"/></g><g><path d="m15.141 19.115c-.544.544-3.354 1.385-3.354 1.385s.842-2.811 1.385-3.354c.544-.544 1.425-.544 1.969 0 .543.544.543 1.425 0 1.969z" fill="#f3f3f1"/></g><g><path d="m28.25 10.75h-.5-3.531c-.619 1.242-2.176 3.054-2.176 3.054-.032 1.797-.133 4.066-1.411 5.698l-8.132-8.132c.324-.254.678-.45 1.044-.62h-3.294-2.5c-.552 0-1 .448-1 1v12.5c0 .552.448 1 1 1h20.5c.552 0 1-.448 1-1v-12.5c0-.552-.448-1-1-1zm-13.109 8.365c-.544.544-3.354 1.385-3.354 1.385s.842-2.81 1.385-3.354c.544-.544 1.425-.544 1.969 0 .543.544.543 1.425 0 1.969z" fill="#2fdf84"/></g><g><path d="m26.037 6.764c.004-.204-.076-.4-.22-.544-.145-.144-.357-.224-.545-.22-2.499.047-5.264 1.284-7.316 3.215-1.995.044-4.222.235-5.919 1.565-.169.132-.273.332-.286.546-.013.215.067.424.219.576l8.129 8.129c.141.142.333.221.532.221.015 0 .03 0 .044-.001.214-.013.414-.117.546-.286 1.315-1.678 1.515-3.873 1.563-5.85 1.955-2.062 3.205-4.84 3.253-7.351z" fill="#f3f3f1"/></g><g><path d="m9 24.25v-12.5c0-.552.448-1 1-1h-2.25c-.552 0-1 .448-1 1v12.5c0 .552.448 1 1 1h2.25c-.552 0-1-.448-1-1z" fill="#00b871"/></g><g><path d="m15.21 17.251c-.027-.033-.039-.074-.07-.105-.544-.544-1.425-.544-1.969 0s-1.385 3.354-1.385 3.354 1.384-.415 2.397-.85c.27-.804.69-1.948 1.027-2.399z" fill="#d5dbe1"/></g><g><path d="m16.471 11.902c-.152-.152-.232-.361-.219-.576.013-.214.117-.414.286-.546 1.697-1.33 3.924-1.52 5.919-1.565 1.048-.986 2.282-1.788 3.572-2.346.001-.035.007-.07.008-.105.004-.204-.076-.4-.22-.544-.145-.144-.357-.224-.545-.22-2.499.047-5.264 1.284-7.316 3.215-1.995.044-4.222.235-5.919 1.565-.169.132-.273.332-.286.546-.013.215.067.424.219.576l8.129 8.129c.141.142.333.221.532.221.015 0 .03 0 .044-.001.214-.013.414-.117.546-.286.525-.67.867-1.425 1.098-2.213z" fill="#d5dbe1"/></g><g><path d="m28.25 26h-20.5c-.965 0-1.75-.785-1.75-1.75v-12.5c0-.965.785-1.75 1.75-1.75h2.5v1.5h-2.5c-.138 0-.25.112-.25.25v12.5c0 .138.112.25.25.25h20.5c.138 0 .25-.112.25-.25v-12.5c0-.138-.112-.25-.25-.25h-.5v-1.5h.5c.965 0 1.75.785 1.75 1.75v12.5c0 .965-.785 1.75-1.75 1.75z"/></g><g><path d="m13 28.5h10v1.5h-10z"/></g><g><path d="m17.25 25.25h1.5v4h-1.5z"/></g><g><path d="m18.319 17.928c-.192 0-.384-.074-.53-.22l-3.461-3.461c-.282-.282-.294-.736-.027-1.032l2.835-3.147c2.089-2.413 5.286-4.014 8.136-4.068.16-.001.399.075.544.22.145.144.224.34.22.544-.053 2.85-1.654 6.047-4.079 8.146l-3.136 2.825c-.142.129-.322.193-.502.193zm-2.426-4.238 2.454 2.454 2.617-2.358c1.859-1.609 3.195-4.016 3.505-6.219-2.202.31-4.608 1.645-6.208 3.494z"/></g><g><path d="m20.632 20.252c-.199 0-.391-.079-.531-.221l-2.313-2.324 1.063-1.058 1.654 1.662c.67-1.31.761-2.94.788-4.521l1.5.026c-.036 2.049-.189 4.384-1.57 6.147-.133.169-.332.273-.546.286-.016.002-.031.003-.045.003z"/></g><g><path d="m14.295 14.215-2.324-2.313c-.152-.152-.232-.361-.22-.576s.117-.414.286-.546c1.763-1.38 4.098-1.535 6.147-1.571l.027 1.5c-1.581.028-3.212.119-4.521.789l1.662 1.654z"/></g><g><path d="m11.786 21.25c-.196 0-.388-.077-.53-.22-.195-.195-.268-.481-.188-.746.27-.899.963-3.057 1.574-3.669.809-.808 2.219-.81 3.029 0 .405.405.628.943.628 1.515s-.223 1.11-.628 1.515c-.612.611-2.771 1.304-3.67 1.573-.07.022-.143.032-.215.032zm2.37-3.762c-.172 0-.333.067-.454.188-.16.172-.45.852-.736 1.645.792-.286 1.472-.576 1.646-.737.121-.121.188-.282.188-.453s-.067-.333-.188-.454c-.123-.122-.285-.189-.456-.189z"/></g><g><path d="m2 28.5h32v1.5h-32z"/></g></svg>