<svg id="line" enable-background="new 0 0 36 36" height="512" viewBox="0 0 36 36" width="512" xmlns="http://www.w3.org/2000/svg"><g><path d="m27.623 4.167c-6.917 0-11.667-3.583-15-3.583s-10.333 1.916-10.333 17.249 9.417 17.583 13.083 17.583c17.167.001 24.5-31.249 12.25-31.249z" fill="#efefef"/></g><g><path d="m9.625 3.25h1v2h-1z" fill="#a4afc1"/></g><g><path d="m6.125 6.25h2v1h-2z" fill="#a4afc1"/></g><g><path d="m11.875 6.25h2v1h-2z" fill="#a4afc1"/></g><g><circle cx="18" cy="15" fill="#f3f3f1" r="4.25"/></g><g><path d="m23.75 11.75h-2.5v-2.5l2.5-2.5v2.5h2.5z" fill="#f3f3f1"/></g><g><path d="m28.25 11h-3.75l-.75.75h-2.5v-.75h-1.866c1.664.576 2.866 2.14 2.866 4 0 2.347-1.903 4.25-4.25 4.25s-4.25-1.903-4.25-4.25c0-1.86 1.202-3.424 2.866-4h-8.866c-.552 0-1 .448-1 1v10.75h22.5v-10.75c0-.552-.448-1-1-1z" fill="#2fdf84"/></g><g><path d="m19.75 26.25s.245 1.765 1.48 3h.02-6.5c1.25-1.25 1.48-3 1.48-3z" fill="#2fdf84"/></g><g><path d="m28.25 26.25h-20.5c-.552 0-1-.448-1-1v-2.5h22.5v2.5c0 .552-.448 1-1 1z" fill="#f3f3f1"/></g><g><path d="m10 11h-2.25c-.552 0-1 .448-1 1v10.75h2.25v-10.75c0-.552.448-1 1-1z" fill="#00b871"/></g><g><path d="m16.23 26.25s-.23 1.75-1.48 3h2.25c1.25-1.25 1.48-3 1.48-3z" fill="#00b871"/></g><g><path d="m15.875 15c0-1.978 1.358-3.626 3.188-4.1-.341-.088-.693-.15-1.063-.15-2.347 0-4.25 1.903-4.25 4.25s1.903 4.25 4.25 4.25c.369 0 .721-.062 1.063-.15-1.83-.474-3.188-2.122-3.188-4.1z" fill="#d5dbe1"/></g><g><path d="m23.75 8.875v-2.125l-2.5 2.5v2.5h2.125v-2.5z" fill="#d5dbe1"/></g><g><path d="m8.875 25.25v-2.5h-2.125v2.5c0 .552.448 1 1 1h2.125c-.552 0-1-.448-1-1z" fill="#d5dbe1"/></g><g><path d="m18 20c-2.757 0-5-2.243-5-5s2.243-5 5-5v1.5c-1.93 0-3.5 1.57-3.5 3.5s1.57 3.5 3.5 3.5 3.5-1.57 3.5-3.5h1.5c0 2.757-2.243 5-5 5z"/></g><g><path d="m17.379 12.75h4.243v1.5h-4.243z" transform="matrix(.707 -.707 .707 .707 -3.835 17.743)"/></g><g><path d="m23.75 12.5h-2.5c-.414 0-.75-.336-.75-.75v-2.5c0-.199.079-.39.22-.53l2.5-2.5c.214-.214.538-.279.817-.163.28.116.463.39.463.693v1.75h1.75c.303 0 .577.183.693.463s.052.603-.163.817l-2.5 2.5c-.14.141-.331.22-.53.22zm-1.75-1.5h1.439l1-1h-.689c-.414 0-.75-.336-.75-.75v-.689l-1 1z"/></g><g><path d="m28.25 27h-20.5c-.965 0-1.75-.785-1.75-1.75v-13.5c0-.965.785-1.75 1.75-1.75h4.25v1.5h-4.25c-.138 0-.25.112-.25.25v13.5c0 .138.112.25.25.25h20.5c.138 0 .25-.112.25-.25v-13.5c0-.138-.112-.25-.25-.25h-.75v-1.5h.75c.965 0 1.75.785 1.75 1.75v13.5c0 .965-.785 1.75-1.75 1.75z"/></g><g><path d="m6.75 22h22.5v1.5h-22.5z"/></g><g><path d="m21.25 30h-6.5c-.303 0-.577-.183-.693-.463s-.052-.603.163-.817c1.041-1.041 1.265-2.552 1.267-2.567l1.487.195c-.008.059-.147 1.066-.744 2.152h3.523c-.591-1.081-.738-2.088-.746-2.147l1.485-.208c.002.015.221 1.458 1.184 2.489.196.135.324.36.324.616 0 .414-.336.75-.75.75z"/></g><g><path d="m2 28.5h32v1.5h-32z"/></g></svg>