<svg id="line" enable-background="new 0 0 36 36" height="512" viewBox="0 0 36 36" width="512" xmlns="http://www.w3.org/2000/svg"><g><path d="m31.833 8.377c0 6.917 3.583 11.667 3.583 15s-1.916 10.333-17.249 10.333-17.584-9.417-17.584-13.083c0-17.167 31.25-24.5 31.25-12.25z" fill="#efefef"/></g><g><path d="m9.625 3.25h1v2h-1z" fill="#a4afc1"/></g><g><path d="m6.125 6.25h2v1h-2z" fill="#a4afc1"/></g><g><path d="m11.875 6.25h2v1h-2z" fill="#a4afc1"/></g><g><path d="m6.75 22.75h22.5v2.5c0 .552-.448 1-1 1h-20.5c-.552 0-1-.448-1-1z" fill="#f3f3f1"/></g><g><path d="m22.25 18.25v-.922c0-.53-.211-1.039-.586-1.414l-1.414-1.414v-2.938c0-1.017-.31-2.01-.889-2.846l-1.361-1.966-1.361 1.966c-.579.836-.889 1.829-.889 2.846v2.938l-1.414 1.414c-.375.375-.586.884-.586 1.414v.922z" fill="#f3f3f1"/></g><g><path d="m28.25 10.75h-8.07c.044.267.07.538.07.812v2.938l1.414 1.414c.375.375.586.884.586 1.414v.922h-8.5v-.922c0-.53.211-1.039.586-1.414l1.414-1.414v-2.938c0-.273.026-.544.07-.812h-8.07c-.552 0-1 .448-1 1v11h22.5v-11c0-.552-.448-1-1-1z" fill="#2fdf84"/></g><g><path d="m19.75 26.25s.245 1.765 1.48 3h.02-6.5c1.25-1.25 1.48-3 1.48-3z" fill="#2fdf84"/></g><g><path d="m10 10.75h-2.25c-.552 0-1 .448-1 1v11h2.25v-11c0-.552.448-1 1-1z" fill="#00b871"/></g><g><path d="m16.23 26.25s-.23 1.75-1.48 3h2.25c1.25-1.25 1.48-3 1.48-3z" fill="#00b871"/></g><g><path d="m8.875 25.25v-2.5h-2.125v2.5c0 .552.448 1 1 1h2.125c-.552 0-1-.448-1-1z" fill="#d5dbe1"/></g><g><path d="m16.461 15.914 1.414-1.414v-2.938c0-1.017.31-2.01.889-2.846l.298-.431-1.062-1.535-1.361 1.966c-.579.836-.889 1.829-.889 2.846v2.938l-1.414 1.414c-.375.375-.586.884-.586 1.414v.922h2.125v-.922c0-.53.211-1.039.586-1.414z" fill="#d5dbe1"/></g><g><path d="m22.25 19h-8.5c-.414 0-.75-.336-.75-.75v-.921c0-.735.286-1.425.806-1.945l1.194-1.195v-2.627c0-1.174.354-2.306 1.021-3.273l1.362-1.966c.279-.405.953-.405 1.232 0l1.361 1.966c.67.967 1.024 2.099 1.024 3.273v2.627l1.194 1.194c.52.52.806 1.21.806 1.945v.921c0 .415-.336.751-.75.751zm-7.75-1.5h7v-.171c0-.334-.13-.648-.366-.884l-1.414-1.415c-.141-.141-.22-.332-.22-.53v-2.938c0-.868-.262-1.705-.756-2.419l-.744-1.076-.745 1.075c-.493.714-.755 1.551-.755 2.419v2.939c0 .199-.079.39-.22.53l-1.414 1.414c-.236.236-.366.55-.366.884z"/></g><g><path d="m19.5 18.25h1.5v2h-1.5z"/></g><g><path d="m15 18.25h1.5v2h-1.5z"/></g><g><path d="m28.25 27h-20.5c-.965 0-1.75-.785-1.75-1.75v-13.5c0-.965.785-1.75 1.75-1.75h4.5v1.5h-4.5c-.138 0-.25.112-.25.25v13.5c0 .138.112.25.25.25h20.5c.138 0 .25-.112.25-.25v-13.5c0-.138-.112-.25-.25-.25h-4.5v-1.5h4.5c.965 0 1.75.785 1.75 1.75v13.5c0 .965-.785 1.75-1.75 1.75z"/></g><g><path d="m6.75 22h22.5v1.5h-22.5z"/></g><g><path d="m21.25 30h-6.5c-.304 0-.577-.183-.693-.463-.115-.28-.052-.603.163-.817 1.046-1.045 1.266-2.555 1.268-2.57l1.486.199c-.007.058-.147 1.065-.743 2.152h3.522c-.591-1.08-.737-2.088-.746-2.147l1.485-.208c.003.015.223 1.459 1.186 2.49.195.134.322.359.322.614 0 .414-.336.75-.75.75z"/></g><g><path d="m2 28.5h32v1.5h-32z"/></g></svg>