<svg id="line" enable-background="new 0 0 36 36" height="512" viewBox="0 0 36 36" width="512" xmlns="http://www.w3.org/2000/svg"><g><path d="m27.623 4.167c-6.917 0-11.667-3.583-15-3.583s-10.333 1.916-10.333 17.249 9.417 17.583 13.083 17.583c17.167.001 24.5-31.249 12.25-31.249z" fill="#efefef"/></g><g><path d="m9.625 3.25h1v2h-1z" fill="#a4afc1"/></g><g><path d="m6.125 6.25h2v1h-2z" fill="#a4afc1"/></g><g><path d="m11.875 6.25h2v1h-2z" fill="#a4afc1"/></g><g><path d="m19.75 26.25s.245 1.765 1.48 3h.02-6.5c1.25-1.25 1.48-3 1.48-3z" fill="#2fdf84"/></g><g><path d="m15.141 19.115c-.544.544-3.354 1.385-3.354 1.385s.842-2.811 1.385-3.354c.544-.544 1.425-.544 1.969 0 .543.544.543 1.425 0 1.969z" fill="#f3f3f1"/></g><g><path d="m28.25 10.75h-.5-3.531c-.619 1.242-2.176 3.054-2.176 3.054-.032 1.797-.133 4.066-1.411 5.698l-8.132-8.132c.324-.254.678-.45 1.044-.62h-3.294-2.5c-.552 0-1 .448-1 1v11h22.5v-11c0-.552-.448-1-1-1zm-13.109 8.365c-.544.544-3.354 1.385-3.354 1.385s.842-2.81 1.385-3.354c.544-.544 1.425-.544 1.969 0 .543.544.543 1.425 0 1.969z" fill="#2fdf84"/></g><g><path d="m28.25 26.375h-20.5c-.552 0-1-.448-1-1v-2.5h22.5v2.5c0 .552-.448 1-1 1z" fill="#f3f3f1"/></g><g><path d="m26.037 6.764c.004-.204-.076-.4-.22-.544-.145-.144-.357-.224-.545-.22-2.499.047-5.264 1.284-7.316 3.215-1.995.044-4.222.235-5.919 1.565-.169.132-.273.332-.286.546-.013.215.067.424.219.576l8.129 8.129c.141.142.333.221.532.221.015 0 .03 0 .044-.001.214-.013.414-.117.546-.286 1.315-1.678 1.515-3.873 1.563-5.85 1.955-2.062 3.205-4.84 3.253-7.351z" fill="#f3f3f1"/></g><g><path d="m16.23 26.25s-.23 1.75-1.48 3h2.25c1.25-1.25 1.48-3 1.48-3z" fill="#00b871"/></g><g><path d="m10 10.75h-2.25c-.552 0-1 .448-1 1v11h2.25v-11c0-.552.448-1 1-1z" fill="#00b871"/></g><g><path d="m15.21 17.251c-.027-.033-.039-.074-.07-.105-.544-.544-1.425-.544-1.969 0s-1.385 3.354-1.385 3.354 1.384-.415 2.397-.85c.27-.804.69-1.948 1.027-2.399z" fill="#d5dbe1"/></g><g><path d="m8.875 25.375v-2.5h-2.125v2.5c0 .552.448 1 1 1h2.125c-.552 0-1-.448-1-1z" fill="#d5dbe1"/></g><g><path d="m16.471 11.902c-.152-.152-.232-.361-.219-.576.013-.214.117-.414.286-.546 1.697-1.33 3.924-1.52 5.919-1.565 1.048-.986 2.282-1.788 3.572-2.346.001-.035.007-.07.008-.105.004-.204-.076-.4-.22-.544-.145-.144-.357-.224-.545-.22-2.499.047-5.264 1.284-7.316 3.215-1.995.044-4.222.235-5.919 1.565-.169.132-.273.332-.286.546-.013.215.067.424.219.576l8.129 8.129c.141.142.333.221.532.221.015 0 .03 0 .044-.001.214-.013.414-.117.546-.286.525-.67.867-1.425 1.098-2.213z" fill="#d5dbe1"/></g><g><path d="m28.25 27h-20.5c-.965 0-1.75-.785-1.75-1.75v-13.5c0-.965.785-1.75 1.75-1.75h2.5v1.5h-2.5c-.138 0-.25.112-.25.25v13.5c0 .138.112.25.25.25h20.5c.138 0 .25-.112.25-.25v-13.5c0-.138-.112-.25-.25-.25h-.5v-1.5h.5c.965 0 1.75.785 1.75 1.75v13.5c0 .965-.785 1.75-1.75 1.75z"/></g><g><path d="m6.75 22h22.5v1.5h-22.5z"/></g><g><path d="m21.25 30h-6.5c-.303 0-.577-.183-.693-.463s-.052-.603.163-.817c1.041-1.041 1.265-2.552 1.267-2.567l1.487.195c-.008.059-.147 1.066-.744 2.152h3.523c-.591-1.081-.738-2.088-.746-2.147l1.485-.208c.002.015.221 1.458 1.184 2.489.196.135.324.36.324.616 0 .414-.336.75-.75.75z"/></g><g><path d="m18.319 17.928c-.192 0-.384-.074-.53-.22l-3.461-3.461c-.282-.282-.294-.736-.027-1.032l2.835-3.147c2.089-2.413 5.286-4.014 8.136-4.068.19-.004.4.076.544.22s.224.341.22.544c-.054 2.85-1.655 6.048-4.08 8.146l-3.135 2.825c-.143.129-.322.193-.502.193zm-2.427-4.238 2.454 2.454 2.618-2.358c1.859-1.609 3.195-4.016 3.505-6.219-2.203.31-4.608 1.645-6.209 3.494z"/></g><g><path d="m20.632 20.252c-.199 0-.391-.079-.532-.221l-2.313-2.324 1.063-1.058 1.653 1.662c.669-1.309.761-2.94.789-4.521l1.5.026c-.036 2.051-.19 4.386-1.571 6.147-.132.169-.332.273-.546.286-.013.002-.029.003-.043.003z"/></g><g><path d="m14.294 14.215-2.324-2.313c-.152-.152-.232-.361-.219-.576.013-.214.117-.414.286-.546 1.762-1.38 4.097-1.535 6.147-1.571l.026 1.5c-1.581.028-3.212.119-4.521.789l1.662 1.654z"/></g><g><path d="m11.786 21.25c-.196 0-.388-.077-.53-.22-.195-.195-.267-.481-.188-.746.269-.899.962-3.057 1.573-3.669.835-.834 2.194-.835 3.03 0 .835.836.835 2.195 0 3.03-.612.612-2.77 1.304-3.67 1.573-.071.022-.143.032-.215.032zm2.37-3.761c-.165 0-.33.063-.455.188-.161.172-.451.852-.737 1.645.793-.286 1.472-.576 1.646-.738.249-.25.249-.657-.001-.907-.124-.126-.288-.188-.453-.188z"/></g><g><path d="m2 28.5h32v1.5h-32z"/></g></svg>