<svg id="line" enable-background="new 0 0 36 36" height="512" viewBox="0 0 36 36" width="512" xmlns="http://www.w3.org/2000/svg"><g><path d="m27.623 31.833c-6.917 0-11.667 3.583-15 3.583s-10.333-1.916-10.333-17.249 9.417-17.584 13.083-17.584c17.167 0 24.5 31.25 12.25 31.25z" fill="#efefef"/></g><g><path d="m26.467 4.967h1v2h-1z" fill="#a4afc1" transform="matrix(.707 -.707 .707 .707 3.682 20.82)"/></g><g><path d="m30.533 9.033h1v2h-1z" fill="#a4afc1" transform="matrix(.707 -.707 .707 .707 1.997 24.887)"/></g><g><path d="m29.856 5.467h2v1h-2z" fill="#a4afc1" transform="matrix(.707 -.707 .707 .707 4.818 23.566)"/></g><g><path d="m7 28.5c-.827 0-1.5-.673-1.5-1.5s.673-1.5 1.5-1.5 1.5.673 1.5 1.5-.673 1.5-1.5 1.5zm0-2c-.276 0-.5.225-.5.5s.224.5.5.5.5-.225.5-.5-.224-.5-.5-.5z" fill="#a4afc1"/></g><g><path d="m29.25 29.25-7.636-7.636z" fill="#f3f3f1"/></g><g><path d="m15.5 6.75c-4.833 0-8.75 3.917-8.75 8.75 0 4.832 3.917 8.75 8.75 8.75s8.75-3.918 8.75-8.75c0-4.833-3.917-8.75-8.75-8.75zm0 13c-2.781 0-5.271-1.693-6.25-4.25.979-2.557 3.469-4.25 6.25-4.25s5.271 1.693 6.25 4.25c-.979 2.557-3.469 4.25-6.25 4.25z" fill="#2fdf84"/></g><g><circle cx="15.5" cy="15.5" fill="#2fdf84" r="1.75"/></g><g><path d="m15.5 11.25c-2.781 0-5.271 1.693-6.25 4.25.979 2.557 3.469 4.25 6.25 4.25s5.271-1.693 6.25-4.25c-.979-2.557-3.469-4.25-6.25-4.25zm0 6c-.966 0-1.75-.784-1.75-1.75s.784-1.75 1.75-1.75 1.75.784 1.75 1.75-.784 1.75-1.75 1.75z" fill="#f3f3f1"/></g><g><path d="m9 15.5c0-4.45 3.325-8.116 7.625-8.67-.369-.047-.743-.08-1.125-.08-4.833 0-8.75 3.917-8.75 8.75 0 4.832 3.917 8.75 8.75 8.75.382 0 .756-.033 1.125-.08-4.3-.554-7.625-4.22-7.625-8.67z" fill="#00b871"/></g><g><path d="m16 15.5c0-.536.246-1.009.625-1.33-.305-.258-.694-.42-1.125-.42-.966 0-1.75.784-1.75 1.75s.784 1.75 1.75 1.75c.431 0 .82-.162 1.125-.42-.379-.321-.625-.794-.625-1.33z" fill="#00b871"/></g><g><path d="m11.5 15.5c.844-2.205 2.815-3.762 5.125-4.15-.368-.062-.743-.1-1.125-.1-2.781 0-5.271 1.693-6.25 4.25.979 2.557 3.469 4.25 6.25 4.25.382 0 .757-.039 1.125-.1-2.31-.388-4.281-1.945-5.125-4.15z" fill="#d5dbe1"/></g><g><path d="m15.5 25c-5.238 0-9.5-4.262-9.5-9.5s4.262-9.5 9.5-9.5c1.686 0 3.335.447 4.771 1.294l-.762 1.293c-1.205-.711-2.592-1.087-4.009-1.087-4.411 0-8 3.589-8 8s3.589 8 8 8 8-3.589 8-8c0-2.227-.89-4.296-2.506-5.825l1.031-1.09c1.919 1.816 2.975 4.272 2.975 6.915 0 5.238-4.262 9.5-9.5 9.5z"/></g><g><path d="m24.682 20.033h1.5v10.799h-1.5z" transform="matrix(.707 -.707 .707 .707 -10.534 25.433)"/></g><g><path d="m15.5 20.5c-3.073 0-5.867-1.901-6.95-4.731-.066-.173-.066-.364 0-.537 1.083-2.83 3.877-4.731 6.95-4.731s5.867 1.901 6.95 4.731c.066.173.066.364 0 .537-1.083 2.83-3.877 4.731-6.95 4.731zm-5.439-5c.932 2.104 3.082 3.5 5.439 3.5s4.507-1.396 5.439-3.5c-.932-2.104-3.082-3.5-5.439-3.5s-4.507 1.396-5.439 3.5z"/></g><g><path d="m15.5 18c-1.378 0-2.5-1.121-2.5-2.5s1.122-2.5 2.5-2.5 2.5 1.121 2.5 2.5-1.122 2.5-2.5 2.5zm0-3.5c-.551 0-1 .448-1 1s.449 1 1 1 1-.448 1-1-.449-1-1-1z"/></g></svg>