<svg id="line" enable-background="new 0 0 36 36" height="512" viewBox="0 0 36 36" width="512" xmlns="http://www.w3.org/2000/svg"><g><path d="m27.623 4.167c-6.917 0-11.667-3.583-15-3.583s-10.333 1.916-10.333 17.249 9.417 17.583 13.083 17.583c17.167.001 24.5-31.249 12.25-31.249z" fill="#efefef"/></g><g><path d="m7 6.5c-.827 0-1.5-.673-1.5-1.5s.673-1.5 1.5-1.5 1.5.673 1.5 1.5-.673 1.5-1.5 1.5zm0-2c-.276 0-.5.225-.5.5s.224.5.5.5.5-.225.5-.5-.224-.5-.5-.5z" fill="#a4afc1"/></g><g><path d="m26.697 19.418c.068-.46.108-.939.108-1.418s-.039-.959-.108-1.419l1.692-1.555c.333-.313.411-.812.186-1.213l-1.663-2.876c-.225-.401-.704-.577-1.145-.44l-2.201.695c-.724-.597-1.546-1.086-2.446-1.419l-.509-2.26c-.098-.44-.489-.763-.949-.763h-3.326c-.46 0-.851.323-.949.763l-.509 2.26c-.9.333-1.722.822-2.446 1.419l-2.201-.695c-.44-.137-.92.039-1.145.44l-1.663 2.876c-.225.401-.147.9.186 1.213l1.692 1.555c-.066.46-.105.94-.105 1.419s.039.959.108 1.418l-1.692 1.555c-.333.313-.411.812-.186 1.213l1.663 2.876c.225.401.704.577 1.145.44l2.201-.695c.724.597 1.546 1.086 2.446 1.418l.509 2.26c.098.44.489.763.949.763h3.326c.46 0 .851-.323.949-.763l.509-2.26c.9-.333 1.722-.822 2.446-1.418l2.201.695c.44.137.92-.039 1.145-.44l1.663-2.876c.225-.401.147-.9-.186-1.213zm-8.697 2.832c-2.781 0-5.271-1.693-6.25-4.25.979-2.557 3.469-4.25 6.25-4.25s5.271 1.693 6.25 4.25c-.979 2.557-3.469 4.25-6.25 4.25z" fill="#2fdf84"/></g><g><circle cx="18" cy="18" fill="#2fdf84" r="1.75"/></g><g><path d="m18 13.75c-2.781 0-5.271 1.693-6.25 4.25.979 2.557 3.469 4.25 6.25 4.25s5.271-1.693 6.25-4.25c-.979-2.557-3.469-4.25-6.25-4.25zm0 6c-.966 0-1.75-.784-1.75-1.75s.784-1.75 1.75-1.75 1.75.784 1.75 1.75-.784 1.75-1.75 1.75z" fill="#f3f3f1"/></g><g><path d="m14.684 11.191c.724-.597 1.546-1.086 2.446-1.419l.509-2.26c.098-.44.489-.763.949-.763h-2.25c-.46 0-.851.323-.949.763l-.509 2.26c-.633.234-1.225.549-1.773.921z" fill="#00b871"/></g><g><path d="m25.816 11.191 1.036-.327c-.241-.343-.676-.495-1.085-.368l-.623.197c.232.157.458.321.672.498z" fill="#00b871"/></g><g><path d="m11.338 25.063-1.663-2.876c-.225-.401-.147-.9.186-1.213l1.692-1.555c-.068-.46-.108-.939-.108-1.418s.039-.959.108-1.419l-1.692-1.555c-.333-.313-.411-.812-.186-1.213l1.663-2.876c.016-.028.041-.047.06-.073l-1.165-.368c-.44-.137-.92.039-1.145.44l-1.663 2.876c-.225.401-.147.9.186 1.213l1.692 1.555c-.068.46-.107.94-.107 1.419s.039.959.108 1.418l-1.692 1.555c-.333.313-.411.812-.186 1.213l1.663 2.876c.225.401.704.577 1.145.44l1.165-.368c-.019-.024-.045-.043-.061-.071z" fill="#00b871"/></g><g><path d="m25.816 24.809c-.215.177-.441.341-.672.498l.623.197c.409.127.844-.025 1.085-.368z" fill="#00b871"/></g><g><path d="m17.638 28.487-.509-2.26c-.9-.333-1.722-.822-2.446-1.418l-1.578.498c.549.372 1.14.687 1.773.921l.509 2.26c.098.44.489.763.949.763h2.25c-.459-.001-.85-.324-.948-.764z" fill="#00b871"/></g><g><path d="m18.5 18c0-.536.246-1.009.625-1.33-.305-.258-.694-.42-1.125-.42-.966 0-1.75.784-1.75 1.75s.784 1.75 1.75 1.75c.431 0 .82-.162 1.125-.42-.379-.321-.625-.794-.625-1.33z" fill="#00b871"/></g><g><path d="m14 18c.844-2.205 2.815-3.762 5.125-4.15-.368-.062-.743-.1-1.125-.1-2.781 0-5.271 1.693-6.25 4.25.979 2.557 3.469 4.25 6.25 4.25.382 0 .757-.039 1.125-.1-2.31-.388-4.281-1.945-5.125-4.15z" fill="#d5dbe1"/></g><g><path d="m18 23c-3.073 0-5.867-1.901-6.95-4.731-.066-.173-.066-.364 0-.537 1.083-2.831 3.877-4.732 6.95-4.732s5.867 1.901 6.95 4.731c.066.173.066.364 0 .537-1.083 2.831-3.877 4.732-6.95 4.732zm-5.439-5c.932 2.104 3.082 3.5 5.439 3.5s4.507-1.396 5.439-3.5c-.932-2.104-3.082-3.5-5.439-3.5s-4.507 1.396-5.439 3.5z"/></g><g><path d="m18 20.5c-1.378 0-2.5-1.121-2.5-2.5s1.122-2.5 2.5-2.5 2.5 1.121 2.5 2.5-1.122 2.5-2.5 2.5zm0-3.5c-.551 0-1 .448-1 1s.449 1 1 1 1-.448 1-1-.449-1-1-1z"/></g><g><path d="m19.66 30h-3.32c-.81 0-1.501-.553-1.681-1.343l-.424-1.879c-.695-.298-1.351-.679-1.958-1.135l-1.823.572c-.781.246-1.632-.086-2.022-.795l-1.652-2.854c-.399-.695-.272-1.572.307-2.135l1.419-1.302c-.037-.358-.056-.735-.056-1.129s.019-.771.057-1.13l-1.404-1.287c-.595-.577-.721-1.454-.323-2.147l1.661-2.871c.382-.693 1.232-1.03 2.017-.779l1.82.571c.606-.457 1.262-.837 1.957-1.135l.424-1.877c.18-.792.871-1.345 1.681-1.345h3.32c.81 0 1.501.553 1.681 1.343l.424 1.879c.695.298 1.351.679 1.958 1.135l1.823-.572c.781-.248 1.632.086 2.022.795l.212.365-1.299.752-.22-.38c-.054-.098-.162-.133-.264-.102l-2.203.691c-.243.074-.505.025-.701-.137-.674-.554-1.427-.991-2.239-1.299-.235-.089-.411-.29-.466-.536l-.51-2.26c-.023-.102-.113-.174-.218-.174h-3.32c-.105 0-.195.072-.218.177l-.51 2.258c-.055.246-.23.447-.466.536-.812.308-1.565.745-2.239 1.299-.195.162-.459.211-.701.137l-2.2-.69c-.106-.037-.214.002-.259.085l-1.667 2.884c-.056.097-.035.221.053.307l1.674 1.535c.184.169.272.418.235.665-.061.398-.092.838-.092 1.307s.031.909.091 1.308c.037.247-.051.496-.235.665l-1.69 1.55c-.072.071-.093.195-.036.294l1.659 2.867c.053.098.163.134.264.102l2.203-.691c.242-.074.506-.025.701.137.674.554 1.427.991 2.239 1.299.235.089.411.29.466.536l.51 2.26c.023.103.113.175.218.175h3.32c.105 0 .195-.072.218-.177l.51-2.258c.055-.246.23-.447.466-.536.812-.308 1.565-.745 2.239-1.299.196-.162.458-.211.701-.137l2.2.69c.104.035.213-.003.258-.086l1.667-2.884c.056-.097.035-.221-.053-.307l-1.674-1.535c-.184-.169-.272-.418-.235-.665.061-.398.091-.839.091-1.308s-.031-.909-.091-1.308c-.037-.247.051-.496.235-.665l1.69-1.55c.072-.071.093-.195.036-.294l-.438-.758 1.298-.752.44.76c.399.695.273 1.572-.306 2.135l-1.419 1.302c.038.358.057.736.057 1.13s-.019.771-.057 1.13l1.404 1.287c.595.577.721 1.454.323 2.147l-1.661 2.871c-.382.693-1.232 1.029-2.017.779l-1.82-.571c-.606.456-1.262.837-1.958 1.135l-.424 1.877c-.179.792-.87 1.345-1.68 1.345z"/></g><g><path d="m2 28.5h32v1.5h-32z"/></g></svg>