<svg id="line" enable-background="new 0 0 36 36" height="512" viewBox="0 0 36 36" width="512" xmlns="http://www.w3.org/2000/svg"><g><path d="m8.377 4.167c6.917 0 11.667-3.583 15-3.583s10.333 1.916 10.333 17.249-9.417 17.583-13.083 17.583c-17.167.001-24.5-31.249-12.25-31.249z" fill="#efefef"/></g><g><path d="m27.467 2.967h1v2h-1z" fill="#a4afc1" transform="matrix(.707 -.707 .707 .707 5.386 20.937)"/></g><g><path d="m31.533 7.033h1v2h-1z" fill="#a4afc1" transform="matrix(.707 -.707 .707 .707 3.702 25.004)"/></g><g><path d="m30.857 3.467h2v1h-2z" fill="#a4afc1" transform="matrix(.707 -.707 .707 .707 6.526 23.688)"/></g><g><path d="m16.75 16.25v-4.5h1.25c.69 0 1.25.56 1.25 1.25 0 .69-.56 1.25-1.25 1.25h-1.25z" fill="#f3f3f1"/></g><g><path d="m23 16.25c-.69 0-1.25-.56-1.25-1.25v-2c0-.69.56-1.25 1.25-1.25.69 0 1.25.56 1.25 1.25v2c0 .69-.56 1.25-1.25 1.25z" fill="#f3f3f1"/></g><g><path d="m18.499 7.768c-4.123-2.29-10.749 0-10.749 0v12.482s5.863-2.714 10.749 0c4.501 2.5 9.751 1 9.751 1v-12.482s-5.25 1.5-9.751-1zm-.499 6.482h-1.25v-2.5h1.25c.69 0 1.25.56 1.25 1.25s-.56 1.25-1.25 1.25zm6.25.75c0 .69-.56 1.25-1.25 1.25s-1.25-.56-1.25-1.25v-2c0-.69.56-1.25 1.25-1.25s1.25.56 1.25 1.25z" fill="#2fdf84"/></g><g><path d="m28.25 9.144v-.376s-1.028.292-2.562.403c.951.07 1.823.041 2.562-.027z" fill="#00b871"/></g><g><path d="m20.749 20.25c-2.026-1.125-4.215-1.312-6.089-1.151 1.267.119 2.585.455 3.839 1.151 2.511 1.395 5.253 1.544 7.189 1.403-1.552-.113-3.294-.49-4.939-1.403z" fill="#00b871"/></g><g><path d="m10 7.768s2.274-.78 4.984-.971c-3.573-.292-7.234.971-7.234.971v12.482s.887-.407 2.25-.748z" fill="#00b871"/></g><g><path d="m19 12.288c-.227-.318-.58-.538-1-.538h-1.25v2.5h1.25c.42 0 .773-.221 1-.538z" fill="#d5dbe1"/></g><g><path d="m24 15v-2c0-.19.049-.365.125-.526-.2-.425-.625-.724-1.125-.724-.69 0-1.25.56-1.25 1.25v2c0 .69.56 1.25 1.25 1.25.5 0 .925-.299 1.125-.724-.076-.161-.125-.336-.125-.526z" fill="#d5dbe1"/></g><g><path d="m17.5 17h-1.5v-5.25c0-.414.336-.75.75-.75h1.25c1.103 0 2 .897 2 2s-.897 2-2 2h-.5zm0-3.5h.5c.275 0 .5-.225.5-.5s-.225-.5-.5-.5h-.5z"/></g><g><path d="m13 11h1.5v6h-1.5z"/></g><g><path d="m23 17c-1.103 0-2-.897-2-2v-2c0-1.103.897-2 2-2s2 .897 2 2v2c0 1.103-.897 2-2 2zm0-4.5c-.275 0-.5.225-.5.5v2c0 .275.225.5.5.5s.5-.225.5-.5v-2c0-.275-.225-.5-.5-.5z"/></g><g><path d="m24.538 22.451c-1.891 0-4.218-.331-6.403-1.546-4.485-2.488-10.015 0-10.07.025-.232.106-.502.091-.719-.05-.215-.137-.346-.374-.346-.63v-12.482c0-.319.203-.604.505-.709.283-.099 6.99-2.374 11.358.054 4.182 2.321 9.131.947 9.181.935.225-.063.47-.02.657.122.189.141.299.362.299.598v3.232h-1.5v-2.298c-1.79.329-5.769.72-9.365-1.279-3.157-1.752-8.059-.559-9.635-.103v10.835c1.994-.681 6.426-1.748 10.363.439 3.366 1.869 7.232 1.344 8.637 1.06v-6.654h1.5v7.25c0 .335-.222.629-.544.721-.122.035-1.727.48-3.918.48z"/></g><g><path d="m7 6h1.5v24h-1.5z"/></g><g><path d="m2 28.5h32v1.5h-32z"/></g></svg>