<svg id="line" enable-background="new 0 0 36 36" height="512" viewBox="0 0 36 36" width="512" xmlns="http://www.w3.org/2000/svg"><g><path d="m31.833 8.377c0 6.917 3.583 11.667 3.583 15s-1.916 10.333-17.249 10.333-17.584-9.417-17.584-13.083c0-17.167 31.25-24.5 31.25-12.25z" fill="#efefef"/></g><g><path d="m25.555 1.967h1v2h-1z" fill="#a4afc1" transform="matrix(.707 -.707 .707 .707 5.533 19.293)"/></g><g><path d="m29.621 6.033h1v2h-1z" fill="#a4afc1" transform="matrix(.707 -.707 .707 .707 3.849 23.359)"/></g><g><path d="m24.878 6.533h2v1h-2z" fill="#a4afc1" transform="matrix(.707 -.707 .707 .707 2.607 20.359)"/></g><g><path d="m28.944 2.467h2v1h-2z" fill="#a4afc1" transform="matrix(.707 -.707 .707 .707 6.673 22.043)"/></g><g><path d="m20.25 6.75c-2.728.051-5.732 1.669-7.593 3.821l-2.835 3.147 3.461 3.461 3.147-2.835c2.151-1.862 3.769-4.866 3.82-7.594z" fill="#2fdf84"/></g><g><path d="m13.283 17.178 2.313 2.324c1.279-1.632 1.379-3.901 1.411-5.698z" fill="#f3f3f1"/></g><g><path d="m9.788 13.683-2.324-2.313c1.632-1.279 3.901-1.379 5.698-1.411z" fill="#f3f3f1"/></g><g><path d="m10.104 19.115c-.543.544-3.354 1.385-3.354 1.385s.842-2.811 1.385-3.354c.544-.544 1.425-.544 1.969 0s.544 1.425 0 1.969z" fill="#2fdf84"/></g><g><path d="m12.072 13.717 2.835-3.147c1.349-1.559 3.3-2.829 5.309-3.434.009-.129.031-.259.034-.386-2.728.051-5.732 1.669-7.593 3.82l-2.835 3.147 3.461 3.461 1.184-1.066z" fill="#00b871"/></g><g><path d="m10.235 17.343c-.046-.065-.073-.139-.131-.197-.544-.544-1.425-.544-1.969 0-.543.544-1.385 3.354-1.385 3.354s1.523-.457 2.544-.914c.253-.749.625-1.757.941-2.243z" fill="#00b871"/></g><g><path d="m15.533 17.178 1.352-1.225c.089-.744.11-1.479.122-2.149l-3.724 3.374 2.313 2.324c.349-.445.604-.94.8-1.457z" fill="#d5dbe1"/></g><g><path d="m9.714 11.37c.957-.75 2.133-1.089 3.304-1.252l.144-.159c-1.797.032-4.066.132-5.698 1.411l2.324 2.313 1.067-1.177z" fill="#d5dbe1"/></g><g><path d="m6.856 26.081c-.076 0-.119-.001-.127-.001l.042-1.5c.665.016 16.475.274 20.224-14.011l1.451.381c-3.872 14.749-19.989 15.131-21.59 15.131z"/></g><g><path d="m28.976 14.373-1.5-2.598-2.598 1.5-.75-1.299 3.248-1.875c.358-.208.818-.085 1.024.274l1.875 3.248z"/></g><g><path d="m27 16.75h1.5v12.5h-1.5z"/></g><g><path d="m21 23.25h1.5v6h-1.5z"/></g><g><path d="m15 26.25h1.5v3h-1.5z"/></g><g><path d="m9 27.25h1.5v2h-1.5z"/></g><g><path d="m13.28 17.93c-.192 0-.384-.074-.53-.22l-3.46-3.46c-.282-.282-.294-.736-.027-1.033l2.84-3.15c2.088-2.414 5.285-4.015 8.133-4.067.217.008.401.077.546.222.144.145.223.342.218.547-.032 1.263-.356 2.609-.937 3.891l-1.366-.619c.371-.817.619-1.659.733-2.473-2.2.31-4.604 1.644-6.203 3.493l-2.374 2.633 2.453 2.453 2.621-2.364c.674-.581 1.31-1.305 1.852-2.104l1.241.842c-.624.919-1.33 1.722-2.101 2.387l-3.138 2.83c-.142.128-.322.192-.501.192z"/></g><g><path d="m15.596 20.252c-.199 0-.391-.079-.532-.221l-2.313-2.324 1.063-1.059 1.654 1.662c.669-1.309.761-2.94.789-4.521l1.5.026c-.036 2.05-.19 4.385-1.571 6.148-.132.169-.331.273-.546.286-.015.003-.03.003-.044.003z"/></g><g><path d="m9.258 14.215-2.324-2.313c-.152-.152-.232-.361-.219-.576.013-.214.117-.414.286-.546 1.762-1.38 4.097-1.535 6.147-1.571l.026 1.5c-1.581.028-3.212.119-4.521.789l1.662 1.654z"/></g><g><path d="m6.75 21.25c-.196 0-.388-.077-.53-.22-.195-.195-.267-.481-.188-.745.269-.899.961-3.058 1.573-3.669.835-.834 2.194-.835 3.029 0s.835 2.194 0 3.03c-.612.612-2.77 1.304-3.669 1.573-.071.02-.143.031-.215.031zm2.37-3.761c-.165 0-.329.063-.454.188-.161.172-.451.852-.737 1.645.792-.286 1.472-.576 1.646-.737.25-.25.249-.657-.001-.908-.125-.126-.29-.188-.454-.188z"/></g><g><path d="m2 28h32v1.5h-32z"/></g></svg>