<svg id="line" enable-background="new 0 0 36 36" height="512" viewBox="0 0 36 36" width="512" xmlns="http://www.w3.org/2000/svg"><g><path d="m27.623 31.833c-6.917 0-11.667 3.583-15 3.583s-10.333-1.916-10.333-17.249 9.417-17.584 13.083-17.584c17.167 0 24.5 31.25 12.25 31.25z" fill="#efefef"/></g><g><path d="m25.555 1.967h1v2h-1z" fill="#a4afc1" transform="matrix(.707 -.707 .707 .707 5.533 19.293)"/></g><g><path d="m29.621 6.033h1v2h-1z" fill="#a4afc1" transform="matrix(.707 -.707 .707 .707 3.849 23.359)"/></g><g><path d="m24.878 6.533h2v1h-2z" fill="#a4afc1" transform="matrix(.707 -.707 .707 .707 2.607 20.359)"/></g><g><path d="m28.944 2.467h2v1h-2z" fill="#a4afc1" transform="matrix(.707 -.707 .707 .707 6.673 22.043)"/></g><g><path d="m15.25 18.25v-.922c0-.53-.211-1.039-.586-1.414l-1.414-1.414v-2.938c0-1.017-.31-2.01-.889-2.846l-1.361-1.966-1.361 1.966c-.579.836-.889 1.829-.889 2.846v2.938l-1.414 1.414c-.375.375-.586.884-.586 1.414v.922z" fill="#2fdf84"/></g><g><path d="m9.586 15.914 1.414-1.414v-2.938c0-1.017.31-2.01.889-2.846l.236-.341-1.125-1.625-1.361 1.966c-.579.836-.889 1.829-.889 2.846v2.938l-1.414 1.414c-.375.375-.586.884-.586 1.414v.922h2.25v-.922c0-.53.211-1.039.586-1.414z" fill="#00b871"/></g><g><path d="m15.25 19h-8.5c-.414 0-.75-.336-.75-.75v-.921c0-.735.286-1.425.806-1.945l1.194-1.195v-2.627c0-1.176.354-2.308 1.022-3.273l1.361-1.965c.28-.405.953-.405 1.233 0l1.361 1.966c.65.937 1.023 2.153 1.023 3.335h-1.5c0-.884-.275-1.789-.756-2.482l-.744-1.075-.744 1.075c-.495.713-.756 1.55-.756 2.419v2.938c0 .199-.079.39-.22.53l-1.414 1.414c-.236.237-.366.551-.366.885v.171h7v-.171c0-.334-.13-.648-.366-.884l-1.414-1.415c-.141-.141-.22-.332-.22-.53v-1h1.5v.689l1.194 1.194c.52.52.806 1.21.806 1.945v.921c0 .415-.336.751-.75.751z"/></g><g><path d="m12.5 18.25h1.5v2h-1.5z"/></g><g><path d="m8 18.25h1.5v2h-1.5z"/></g><g><path d="m6.856 26.081c-.076 0-.119-.001-.127-.001l.042-1.5c.669.016 16.475.274 20.224-14.011l1.451.381c-3.872 14.749-19.989 15.131-21.59 15.131z"/></g><g><path d="m28.976 14.373-1.5-2.598-2.598 1.5-.75-1.299 3.248-1.875c.358-.208.818-.085 1.024.274l1.875 3.248z"/></g><g><path d="m27 16.75h1.5v12.5h-1.5z"/></g><g><path d="m21 23.25h1.5v6h-1.5z"/></g><g><path d="m15 26.25h1.5v3h-1.5z"/></g><g><path d="m9 27.25h1.5v2h-1.5z"/></g><g><path d="m2 28h32v1.5h-32z"/></g></svg>