<svg id="line" enable-background="new 0 0 36 36" height="512" viewBox="0 0 36 36" width="512" xmlns="http://www.w3.org/2000/svg"><g><path d="m27.623 4.167c-6.917 0-11.667-3.583-15-3.583s-10.333 1.916-10.333 17.249 9.417 17.583 13.083 17.583c17.167.001 24.5-31.249 12.25-31.249z" fill="#efefef"/></g><g><path d="m27.467 2.967h1v2h-1z" fill="#a4afc1" transform="matrix(.707 -.707 .707 .707 5.383 20.934)"/></g><g><path d="m31.533 7.033h1v2h-1z" fill="#a4afc1" transform="matrix(.707 -.707 .707 .707 3.699 24.999)"/></g><g><path d="m30.856 3.467h2v1h-2z" fill="#a4afc1" transform="matrix(.707 -.707 .707 .707 6.525 23.688)"/></g><g><path d="m22.25 13.75c0-.552-.448-1-1-1h-.5c-.552 0-1 .448-1 1v2.5c0 .552.448 1 1 1h.5c.552 0 1-.448 1-1z" fill="#f3f3f1"/></g><g><path d="m7.749 8.75v12.5h20.5v-12.5zm14.501 7.5c0 .552-.448 1-1 1h-.5c-.552 0-1-.448-1-1v-2.5c0-.552.448-1 1-1h.5c.552 0 1 .448 1 1z" fill="#2fdf84"/></g><g><path d="m7.749 8.75h2.125v12.5h-2.125z" fill="#00b871"/></g><g><path d="m28.249 22h-15.249v-1.5h14.499v-11h-19v11h2.501v1.5h-3.251c-.414 0-.75-.336-.75-.75v-12.5c0-.414.336-.75.75-.75h20.5c.414 0 .75.336.75.75v12.5c0 .414-.336.75-.75.75z"/></g><g><path d="m7 6.75h1.5v22.5h-1.5z"/></g><g><path d="m27.5 6.75h1.5v22.5h-1.5z"/></g><g><path d="m21.25 18h-.5c-.965 0-1.75-.785-1.75-1.75v-2.5c0-.965.785-1.75 1.75-1.75h.5c.965 0 1.75.785 1.75 1.75v2.5c0 .965-.785 1.75-1.75 1.75zm-.5-4.5c-.138 0-.25.112-.25.25v2.5c0 .138.112.25.25.25h.5c.138 0 .25-.112.25-.25v-2.5c0-.138-.112-.25-.25-.25z"/></g><g><path d="m16.25 18h-1.5c-.965 0-1.75-.785-1.75-1.75v-2.5c0-.965.785-1.75 1.75-1.75h2.25v1.5h-2.25c-.138 0-.25.112-.25.25v2.5c0 .138.112.25.25.25h.75v-.5h-.75v-1.5h1.5c.414 0 .75.336.75.75v2c0 .414-.336.75-.75.75z"/></g><g><path d="m2 27.75h32v1.5h-32z"/></g></svg>