<svg id="line" enable-background="new 0 0 36 36" height="512" viewBox="0 0 36 36" width="512" xmlns="http://www.w3.org/2000/svg"><g><path d="m31.833 27.623c0-6.917 3.583-11.667 3.583-15s-1.916-10.333-17.249-10.333-17.584 9.417-17.584 13.083c0 17.167 31.25 24.5 31.25 12.25z" fill="#efefef"/></g><g><path d="m27.467 2.967h1v2h-1z" fill="#a4afc1" transform="matrix(.707 -.707 .707 .707 5.383 20.934)"/></g><g><path d="m31.533 7.033h1v2h-1z" fill="#a4afc1" transform="matrix(.707 -.707 .707 .707 3.699 24.999)"/></g><g><path d="m30.856 3.467h2v1h-2z" fill="#a4afc1" transform="matrix(.707 -.707 .707 .707 6.525 23.688)"/></g><g><path d="m20.25 11.75c0-.552-.448-1-1-1h-.5c-.552 0-1 .448-1 1v2.5c0 .552.448 1 1 1h.5c.552 0 1-.448 1-1z" fill="#f3f3f1"/></g><g><path d="m23.75 13 4.411-5.435c.265-.327.033-.815-.388-.815h-20.023v12.5h20.022c.421 0 .653-.488.388-.815zm-3.5 1.25c0 .552-.448 1-1 1h-.5c-.552 0-1-.448-1-1v-2.5c0-.552.448-1 1-1h.5c.552 0 1 .448 1 1z" fill="#2fdf84"/></g><g><path d="m7.75 6.75h2.125v12.5h-2.125z" fill="#00b871"/></g><g><path d="m7 6.75h1.5v22.5h-1.5z"/></g><g><path d="m27.772 20h-14.772v-1.5h14.247l-4.079-5.027c-.224-.275-.224-.67 0-.945l4.079-5.028h-18.747v11h2.5v1.5h-3.25c-.414 0-.75-.336-.75-.75v-12.5c0-.414.336-.75.75-.75h20.022c.487 0 .919.273 1.129.713.209.439.147.947-.159 1.325l-4.026 4.962 4.026 4.962c.307.377.368.885.159 1.325-.21.44-.641.713-1.129.713z"/></g><g><path d="m19.25 16h-.5c-.965 0-1.75-.785-1.75-1.75v-2.5c0-.965.785-1.75 1.75-1.75h.5c.965 0 1.75.785 1.75 1.75v2.5c0 .965-.785 1.75-1.75 1.75zm-.5-4.5c-.138 0-.25.112-.25.25v2.5c0 .138.112.25.25.25h.5c.138 0 .25-.112.25-.25v-2.5c0-.138-.112-.25-.25-.25z"/></g><g><path d="m14.25 16h-1.5c-.965 0-1.75-.785-1.75-1.75v-2.5c0-.965.785-1.75 1.75-1.75h2.25v1.5h-2.25c-.138 0-.25.112-.25.25v2.5c0 .138.112.25.25.25h.75v-.5h-.75v-1.5h1.5c.414 0 .75.336.75.75v2c0 .414-.336.75-.75.75z"/></g><g><path d="m2 27.75h32v1.5h-32z"/></g></svg>