<svg id="line" enable-background="new 0 0 36 36" height="512" viewBox="0 0 36 36" width="512" xmlns="http://www.w3.org/2000/svg"><g><path d="m4.167 27.623c0-6.917-3.583-11.667-3.583-15s1.916-10.333 17.249-10.333 17.583 9.417 17.583 13.083c.001 17.167-31.249 24.5-31.249 12.25z" fill="#efefef"/></g><g><path d="m9.773 5.467h2v1h-2z" fill="#a4afc1" transform="matrix(.707 -.707 .707 .707 -1.064 9.365)"/></g><g><path d="m5.707 9.533h2v1h-2z" fill="#a4afc1" transform="matrix(.707 -.707 .707 .707 -5.13 7.681)"/></g><g><path d="m6.384 4.967h1v2h-1z" fill="#a4afc1" transform="matrix(.707 -.707 .707 .707 -2.203 6.615)"/></g><g><path d="m22.588 10.25h-1.838v-.838c0-1.47 1.192-2.662 2.662-2.662h1.838v.838c0 1.47-1.192 2.662-2.662 2.662z" fill="#f3f3f1"/></g><g><path d="m17.117 9.75h-1.867v.867c0 2.007 1.627 3.633 3.633 3.633h1.867v-.867c0-2.006-1.627-3.633-3.633-3.633z" fill="#f3f3f1"/></g><g><path d="m6.75 18.75v8.5h2.75l2-7.386s-1.458-1.114-4.75-1.114z" fill="#2fdf84"/></g><g><path d="m26.75 24c-1.298 0-2.805.628-4.25 1.071v-.431c0-.95-.67-1.77-1.6-1.96l-9.63-1.97-1.49 5.42c1.91.9 6.83 3.12 9.22 3.12 3 0 10.25-4 10.25-4s-.5-1.25-2.5-1.25z" fill="#2fdf84"/></g><g><path d="m6.75 18.75v8.5h2.25v-8.3c-.626-.117-1.367-.2-2.25-.2z" fill="#00b871"/></g><g><path d="m24.75 24.64v.431c1.018-.312 2.065-.712 3.049-.923-.295-.086-.633-.148-1.049-.148-.635 0-1.321.151-2.025.357.014.093.025.187.025.283z" fill="#00b871"/></g><g><path d="m12.03 26.13 1.37-4.984-2.13-.436-1.49 5.42c1.91.9 6.83 3.12 9.22 3.12.314 0 .683-.052 1.077-.131-2.571-.483-6.411-2.218-8.047-2.989z" fill="#00b871"/></g><g><path d="m23 9.412c0-1.329.977-2.421 2.25-2.621v-.041h-1.838c-1.47 0-2.662 1.192-2.662 2.662v.838h1.838c.141 0 .277-.02.412-.042z" fill="#d5dbe1"/></g><g><path d="m17.5 10.617v-.828c-.128-.014-.252-.039-.383-.039h-1.867v.867c0 2.007 1.627 3.633 3.633 3.633h1.867v-.039c-1.824-.194-3.25-1.719-3.25-3.594z" fill="#d5dbe1"/></g><g><path d="m20 9.75h1.5v8.5h-1.5z"/></g><g><path d="m22.588 11h-1.838c-.414 0-.75-.336-.75-.75v-.838c0-1.882 1.531-3.412 3.412-3.412h1.838c.414 0 .75.336.75.75v.838c0 1.882-1.531 3.412-3.412 3.412zm-1.088-1.5h1.088c1.054 0 1.912-.857 1.912-1.912v-.088h-1.088c-1.054 0-1.912.857-1.912 1.912z"/></g><g><path d="m20.75 15h-1.867c-2.417 0-4.383-1.966-4.383-4.383v-.867c0-.414.336-.75.75-.75h1.867c2.417 0 4.383 1.966 4.383 4.383v.867c0 .414-.336.75-.75.75zm-4.75-4.5v.117c0 1.59 1.293 2.883 2.883 2.883h1.117v-.117c0-1.59-1.293-2.883-2.883-2.883z"/></g><g><path d="m9.5 28h-2.75c-.414 0-.75-.336-.75-.75v-8.5c0-.414.336-.75.75-.75 3.505 0 5.138 1.217 5.205 1.269.242.185.349.498.269.792l-2 7.386c-.089.326-.385.553-.724.553zm-2-1.5h1.426l1.698-6.271c-.523-.247-1.546-.615-3.125-.707v6.978z"/></g><g><path d="m19 30c-2.409 0-7.011-2-9.54-3.191l.64-1.357c4.11 1.938 7.354 3.049 8.9 3.049 2.028 0 6.632-2.19 9.044-3.454-.278-.159-.692-.296-1.294-.296-.878 0-1.963.361-3.013.712-1.163.388-2.366.788-3.487.788-2.108 0-4.889-1.003-5.006-1.045l.512-1.41c.026.01 2.652.955 4.494.955.878 0 1.963-.361 3.013-.712 1.163-.388 2.366-.788 3.487-.788 2.479 0 3.168 1.651 3.196 1.722.141.352-.002.752-.334.935-.302.166-7.455 4.092-10.612 4.092z"/></g><g><path d="m23.25 25.09h-1.5v-.45c0-.591-.421-1.106-1-1.226l-2.721-.56.303-1.469 2.72.56c1.273.261 2.199 1.394 2.199 2.694v.451z"/></g><g><path d="m13 18.684h1.501v5.062h-1.501z" transform="matrix(.2 -.98 .98 .2 -9.781 30.456)"/></g></svg>