<svg id="line" enable-background="new 0 0 36 36" height="512" viewBox="0 0 36 36" width="512" xmlns="http://www.w3.org/2000/svg"><g><path d="m31.833 27.623c0-6.917 3.583-11.667 3.583-15s-1.916-10.333-17.249-10.333-17.584 9.417-17.584 13.083c0 17.167 31.25 24.5 31.25 12.25z" fill="#efefef"/></g><g><path d="m30 18.5c-.827 0-1.5-.673-1.5-1.5s.673-1.5 1.5-1.5 1.5.673 1.5 1.5-.673 1.5-1.5 1.5zm0-2c-.276 0-.5.225-.5.5s.224.5.5.5.5-.225.5-.5-.224-.5-.5-.5z" fill="#a4afc1"/></g><g><path d="m17.031 8.439c1.232 1.184 1.436 3.505.138 4.802-1.253 1.253-3.356 1.054-4.588-.13-1.54-1.481-.54-4.021-2.799-6.192 2.292-.229 5.093-.553 7.249 1.52z" fill="#f3f3f1"/></g><g><path d="m22.619 7.904c-.98.882-1.235 2.534-.223 3.692.826.945 2.564.892 3.544.01 1.224-1.102.514-3.081 2.31-4.697-1.763-.232-3.917-.548-5.631.995z" fill="#f3f3f1"/></g><g><path d="m6.75 18.75v8.5h2.75l2-7.386s-1.458-1.114-4.75-1.114z" fill="#2fdf84"/></g><g><path d="m26.75 24c-1.298 0-2.805.628-4.25 1.071v-.431c0-.95-.67-1.77-1.6-1.96l-9.63-1.97-1.49 5.42c1.91.9 6.83 3.12 9.22 3.12 3 0 10.25-4 10.25-4s-.5-1.25-2.5-1.25z" fill="#2fdf84"/></g><g><path d="m6.75 18.75v8.5h2.25v-8.3c-.626-.117-1.367-.2-2.25-.2z" fill="#00b871"/></g><g><path d="m24.75 24.64v.431c1.018-.312 2.065-.712 3.049-.923-.295-.086-.633-.148-1.049-.148-.635 0-1.321.151-2.025.357.014.093.025.187.025.283z" fill="#00b871"/></g><g><path d="m12.03 26.13 1.37-4.984-2.13-.436-1.49 5.42c1.91.9 6.83 3.12 9.22 3.12.314 0 .683-.052 1.077-.131-2.571-.483-6.411-2.218-8.047-2.989z" fill="#00b871"/></g><g><path d="m14.831 13.111c-1.54-1.481-.54-4.021-2.799-6.192.409-.041.837-.08 1.272-.113-1.206-.122-2.422.003-3.522.113 2.259 2.171 1.259 4.712 2.799 6.192.938.902 2.38 1.227 3.568.78-.486-.165-.944-.421-1.318-.78z" fill="#d5dbe1"/></g><g><path d="m24.646 11.595c-1.012-1.158-.757-2.81.223-3.692.752-.677 1.589-.984 2.439-1.109-1.551-.168-3.27-.168-4.689 1.109-.98.882-1.235 2.534-.223 3.692.656.75 1.882.862 2.851.439-.226-.11-.435-.249-.601-.439z" fill="#d5dbe1"/></g><g><path d="m15.019 14.835c-1.057 0-2.138-.396-2.957-1.184-.866-.833-1.078-1.895-1.283-2.921-.23-1.154-.448-2.245-1.516-3.271-.212-.202-.285-.509-.19-.785.096-.276.343-.472.634-.501l.124-.013c2.385-.24 5.353-.538 7.72 1.738.772.742 1.241 1.876 1.252 3.032.011 1.109-.381 2.118-1.104 2.841-.71.711-1.684 1.064-2.68 1.064zm-3.773-7.296c.626 1.009.83 2.029 1.003 2.897.182.909.325 1.627.852 2.133.905.871 2.542 1.136 3.539.142.435-.436.671-1.063.664-1.765-.009-.762-.304-1.497-.792-1.966-1.515-1.456-3.432-1.565-5.266-1.441z"/></g><g><path d="m24.085 13.036c-.07 0-.141-.002-.212-.007-.831-.05-1.556-.384-2.042-.94-1.209-1.385-1.081-3.512.286-4.743 1.94-1.745 4.365-1.427 6.136-1.193.29.038.579.248.666.527s.05.59-.167.786c-.808.728-.997 1.535-1.196 2.392-.189.811-.384 1.649-1.114 2.306-.616.553-1.484.872-2.357.872zm-.964-4.575c-.665.598-.914 1.777-.16 2.642.22.251.576.404 1.002.43.54.028 1.107-.152 1.475-.484.379-.341.501-.866.657-1.531.142-.609.306-1.314.714-2.018-1.317-.104-2.625.005-3.688.961z"/></g><g><path d="m19.143 17.446c-.644-3.476-3.705-6.087-3.735-6.113l.966-1.146c.143.12 3.504 2.989 4.244 6.986z"/></g><g><path d="m20.63 17.314-1.5-.008c0-.178.064-4.389 4.733-7.199l.773 1.285c-3.916 2.359-4.004 5.778-4.006 5.922z"/></g><g><path d="m9.5 28h-2.75c-.414 0-.75-.336-.75-.75v-8.5c0-.414.336-.75.75-.75 3.505 0 5.138 1.217 5.205 1.269.242.185.349.498.269.792l-2 7.386c-.089.326-.385.553-.724.553zm-2-1.5h1.426l1.698-6.271c-.523-.247-1.546-.615-3.125-.707v6.978z"/></g><g><path d="m19 30c-2.409 0-7.011-2-9.54-3.191l.64-1.357c4.11 1.938 7.354 3.049 8.9 3.049 2.028 0 6.632-2.19 9.044-3.454-.278-.159-.692-.296-1.294-.296-.878 0-1.963.361-3.013.712-1.163.388-2.366.788-3.487.788-2.108 0-4.889-1.003-5.006-1.045l.512-1.41c.026.01 2.652.955 4.494.955.878 0 1.963-.361 3.013-.712 1.163-.388 2.366-.788 3.487-.788 2.479 0 3.168 1.651 3.196 1.722.141.352-.002.752-.334.935-.302.166-7.455 4.092-10.612 4.092z"/></g><g><path d="m23.25 25.09h-1.5v-.45c0-.591-.421-1.106-1-1.226l-2.721-.56.303-1.469 2.72.56c1.273.261 2.199 1.394 2.199 2.694v.451z"/></g><g><path d="m13 18.684h1.501v5.062h-1.501z" transform="matrix(.2 -.98 .98 .2 -9.781 30.456)"/></g></svg>