<svg id="line" enable-background="new 0 0 36 36" height="512" viewBox="0 0 36 36" width="512" xmlns="http://www.w3.org/2000/svg"><g><path d="m8.377 31.833c6.917 0 11.667 3.583 15 3.583s10.333-1.916 10.333-17.249-9.417-17.584-13.083-17.584c-17.167 0-24.5 31.25-12.25 31.25z" fill="#efefef"/></g><g><path d="m26.625 3.25h1v2h-1z" fill="#a4afc1"/></g><g><path d="m28.875 6.25h2v1h-2z" fill="#a4afc1"/></g><g><path d="m7 34.5c-.827 0-1.5-.673-1.5-1.5s.673-1.5 1.5-1.5 1.5.673 1.5 1.5-.673 1.5-1.5 1.5zm0-2c-.276 0-.5.225-.5.5s.224.5.5.5.5-.225.5-.5-.224-.5-.5-.5z" fill="#a4afc1"/></g><g><path d="m18 6.75c-.01 0-.03 0-.04 0-4.57 0-8.29 3.73-8.29 8.32h.01c0 .7-.2 1.38-.57 1.97l-2.28 3.96c-.05.07-.08.16-.08.26 0 .27.21.49.49.49h2.51v3.03c0 .81.65 1.47 1.46 1.47.15 0 .29-.02.43-.07l3.11-.84v3.91h3.25z" fill="#2fdf84"/></g><g><path d="m26.7 19.42c.07-.46.1-.94.1-1.42s-.03-.96-.1-1.42l1.69-1.55c.33-.32.41-.82.18-1.22l-1.66-2.87c-.22-.4-.7-.58-1.14-.44l-2.2.69c-.73-.6-1.55-1.08-2.45-1.42l-.51-2.26c-.1-.44-.49-.76-.95-.76h-1.66v6.5c2.623 0 4.75 2.127 4.75 4.75s-2.127 4.75-4.75 4.75v6.5h1.66c.46 0 .85-.32.95-.76l.51-2.26c.9-.34 1.72-.82 2.45-1.42l2.2.69c.44.14.92-.04 1.14-.44l1.66-2.87c.23-.4.15-.9-.18-1.22z" fill="#f3f3f1"/></g><g><path d="m9 21.26c0-.1.03-.19.08-.26l2.28-3.96c.37-.59.57-1.27.57-1.97h-.01c0-3.82 2.581-7.037 6.08-8.011v-.309c-.01 0-.03 0-.04 0-4.57 0-8.29 3.73-8.29 8.32h.01c0 .7-.2 1.38-.57 1.97l-2.28 3.96c-.05.07-.08.16-.08.26 0 .27.21.49.49.49h2.25c-.28 0-.49-.22-.49-.49z" fill="#00b871"/></g><g><path d="m14.75 25.948v3.302h2.25v-3.91z" fill="#00b871"/></g><g><path d="m12 24.78v-3.03h-2.25v3.03c0 .81.65 1.47 1.46 1.47.15 0 .29-.02.43-.07l.921-.249c-.34-.269-.561-.683-.561-1.151z" fill="#00b871"/></g><g><path d="m25.82 11.19 1.031-.323c-.237-.342-.672-.497-1.081-.367l-.649.204c.236.158.479.305.699.486z" fill="#d5dbe1"/></g><g><path d="m20.25 22.75c2.623 0 4.75-2.127 4.75-4.75s-2.127-4.75-4.75-4.75v-6.296c-.165-.126-.368-.204-.59-.204h-1.66v6.5c2.623 0 4.75 2.127 4.75 4.75s-2.127 4.75-4.75 4.75v6.5h1.66c.222 0 .425-.077.59-.204z" fill="#d5dbe1"/></g><g><path d="m25.82 24.81c-.22.181-.464.328-.699.486l.649.204c.409.13.843-.025 1.081-.367z" fill="#d5dbe1"/></g><g><path d="m18 30h-3.25c-.414 0-.75-.336-.75-.75v-2.931l-2.165.584c-.153.059-.377.097-.625.097-1.219 0-2.21-.996-2.21-2.22v-2.28h-1.76c-.684 0-1.24-.557-1.24-1.24 0-.254.076-.495.22-.696l2.24-3.897c.292-.467.449-.971.468-1.486-.005-.036-.008-.074-.008-.111 0-2.043.671-3.98 1.939-5.603l1.182.924c-1.036 1.325-1.595 2.9-1.62 4.562.006.038.009.077.009.117 0 .835-.237 1.654-.685 2.368l-2.05 3.562h2.055c.414 0 .75.336.75.75v3.03c0 .396.318.72.71.72.072 0 .126-.008.175-.025l3.17-.858c.225-.062.465-.015.651.128.185.143.294.362.294.596v3.16h1.75v-20.966c-1.444.137-2.782.672-3.929 1.566l-.923-1.184c1.61-1.254 3.533-1.917 5.562-1.917.414 0 .79.336.79.75v22.5c0 .414-.336.75-.75.75zm-10.519-8.628-.001.002v.001s0-.001.001-.003z"/></g><g><path d="m19.66 30h-1.66v-1.5h1.66c.105 0 .195-.072.218-.177l.51-2.258c.055-.246.23-.447.466-.536.812-.308 1.565-.745 2.239-1.299.196-.162.459-.211.701-.137l2.2.69c.104.035.212-.003.258-.086l1.667-2.884c.056-.097.036-.221-.053-.307l-1.674-1.535c-.184-.169-.272-.418-.235-.665.061-.398.091-.839.091-1.308s-.031-.909-.091-1.308c-.037-.247.051-.496.235-.665l1.69-1.55c.073-.071.093-.195.036-.294l-1.659-2.867c-.053-.098-.161-.133-.264-.102l-2.203.691c-.242.074-.505.025-.701-.137-.674-.554-1.427-.991-2.239-1.299-.235-.089-.411-.29-.466-.536l-.51-2.26c-.021-.099-.111-.171-.216-.171h-1.66v-1.5h1.66c.81 0 1.501.553 1.681 1.343l.424 1.879c.695.298 1.351.679 1.958 1.135l1.823-.572c.781-.248 1.632.086 2.022.795l1.652 2.854c.399.695.272 1.572-.307 2.135l-1.419 1.302c.038.358.057.736.057 1.13s-.019.771-.057 1.13l1.404 1.287c.595.577.721 1.454.323 2.147l-1.661 2.871c-.382.693-1.232 1.029-2.017.779l-1.82-.571c-.606.456-1.262.837-1.958 1.135l-.424 1.877c-.18.791-.871 1.344-1.681 1.344z"/></g><g><path d="m18 23.5v-1.5c2.206 0 4-1.794 4-4s-1.794-4-4-4v-1.5c3.033 0 5.5 2.468 5.5 5.5s-2.467 5.5-5.5 5.5z"/></g><g><path d="m2 28.5h32v1.5h-32z"/></g></svg>