<svg id="line" enable-background="new 0 0 36 36" height="512" viewBox="0 0 36 36" width="512" xmlns="http://www.w3.org/2000/svg"><g><path d="m27.623 4.167c-6.917 0-11.667-3.583-15-3.583s-10.333 1.916-10.333 17.249 9.417 17.583 13.083 17.583c17.167.001 24.5-31.249 12.25-31.249z" fill="#efefef"/></g><g><path d="m7.033 4.467h2v1h-2z" fill="#a4afc1" transform="matrix(.707 -.707 .707 .707 -1.159 7.135)"/></g><g><path d="m2.967 8.533h2v1h-2z" fill="#a4afc1" transform="matrix(.707 -.707 .707 .707 -5.225 5.451)"/></g><g><path d="m3.644 3.967h1v2h-1z" fill="#a4afc1" transform="matrix(.707 -.707 .707 .707 -2.299 4.384)"/></g><g><path d="m21.75 19.5c0-2.362-2.184-4.214-4.643-3.647-1.386.32-2.495 1.47-2.778 2.864-.329 1.621.391 3.094 1.599 3.893.532.352.821.975.821 1.613v1.285c0 .488.258.741.577.741h1.346c.319 0 .577-.258.577-.577v-1.425c0-.644.281-1.281.818-1.636 1.013-.667 1.683-1.807 1.683-3.111z" fill="#f3f3f1"/></g><g><path d="m20 11.25h-.13l3.4-2.72c.74-.59.32-1.78-.62-1.78h-9.3c-.94 0-1.36 1.19-.62 1.78l3.4 2.72h-.13c-3.46 2.03-6.25 7.81-6.25 12 0 3 1.5 6 5 6h6.75c3.5 0 4.75-3 4.75-6 0-4.19-2.79-9.97-6.25-12zm.068 11.362c-.537.355-.818.992-.818 1.636v1.425c0 .319-.258.577-.577.577h-1.346c-.319 0-.577-.253-.577-.741v-1.285c0-.638-.289-1.261-.821-1.613-1.208-.8-1.928-2.272-1.599-3.893.283-1.394 1.392-2.544 2.778-2.864 2.459-.567 4.643 1.285 4.643 3.647-.001 1.303-.671 2.443-1.683 3.111z" fill="#2fdf84"/></g><g><path d="m12 23.25c0-4.19 2.79-9.97 6.25-12h.13l-3.4-2.72c-.74-.59-.32-1.78.62-1.78h-2.25c-.94 0-1.36 1.19-.62 1.78l3.4 2.72h-.13c-3.46 2.03-6.25 7.81-6.25 12 0 3 1.5 6 5 6h2.25c-3.5 0-5-3-5-6z" fill="#00b871"/></g><g><path d="m19 25.509v-1.285c0-.638-.289-1.261-.821-1.613-1.208-.8-1.928-2.272-1.599-3.893.265-1.305 1.257-2.387 2.519-2.783-.614-.189-1.287-.243-1.991-.081-1.386.32-2.495 1.47-2.778 2.864-.329 1.621.391 3.094 1.599 3.893.532.352.821.975.821 1.613v1.285c0 .488.258.741.577.741h1.346c.195 0 .358-.103.463-.25-.081-.122-.136-.28-.136-.491z" fill="#d5dbe1"/></g><g><path d="m20.339 11.835-.938-1.171 3.399-2.72c.115-.092.107-.202.081-.278s-.087-.166-.231-.166h-9.3c-.144 0-.205.09-.231.167s-.034.186.08.277l3.4 2.721-.938 1.171-3.399-2.72c-.588-.469-.809-1.232-.56-1.944s.896-1.172 1.648-1.172h9.301c.752 0 1.398.46 1.647 1.171s.028 1.475-.561 1.945z"/></g><g><path d="m12 10.5h12v1.5h-12z"/></g><g><path d="m25.49 23.101c-.06-4.102-2.856-9.442-5.869-11.203l.758-1.295c3.821 2.235 6.552 8.369 6.611 12.477z"/></g><g><path d="m21.5 30h-6.75c-3.972 0-5.75-3.391-5.75-6.75 0-4.668 3.094-10.578 6.62-12.647l.76 1.294c-3.077 1.805-5.88 7.216-5.88 11.353 0 2.422 1.113 5.25 4.25 5.25h6.75c2.601 0 3.521-1.927 3.834-3.543l1.473.285c-.587 3.024-2.521 4.758-5.307 4.758z"/></g><g><path d="m18.673 27h-1.346c-.659 0-1.327-.513-1.327-1.491v-1.285c0-.411-.186-.79-.485-.988-1.535-1.017-2.289-2.849-1.92-4.668.34-1.677 1.684-3.062 3.344-3.445 1.371-.316 2.781-.005 3.861.855 1.081.86 1.7 2.144 1.7 3.523 0 1.506-.755 2.903-2.019 3.738-.296.196-.481.582-.481 1.009v1.425c0 .731-.596 1.327-1.327 1.327zm-1.173-1.5h1v-1.252c0-.938.432-1.784 1.155-2.262.842-.555 1.345-1.485 1.345-2.486 0-.919-.413-1.776-1.134-2.349-.722-.573-1.668-.781-2.59-.567-1.098.253-1.986 1.17-2.211 2.282-.251 1.236.238 2.431 1.277 3.12.725.479 1.157 1.316 1.157 2.238v1.276z"/></g><g><path d="m2 28.5h32v1.5h-32z"/></g></svg>