<svg id="line" enable-background="new 0 0 36 36" height="512" viewBox="0 0 36 36" width="512" xmlns="http://www.w3.org/2000/svg"><g><path d="m4.167 8.377c0 6.917-3.583 11.667-3.583 15s1.916 10.333 17.249 10.333 17.583-9.417 17.583-13.083c.001-17.167-31.249-24.5-31.249-12.25z" fill="#efefef"/></g><g><path d="m26.625 3.25h1v2h-1z" fill="#a4afc1"/></g><g><path d="m28.875 6.25h2v1h-2z" fill="#a4afc1"/></g><g><path d="m21.75 22.5c0-2.362-2.184-4.214-4.643-3.647-1.386.32-2.495 1.47-2.778 2.864-.329 1.621.391 3.094 1.599 3.893.532.352.821.975.821 1.613v1.285c0 .488.258.741.577.741h1.346c.319 0 .577-.258.577-.577v-1.425c0-.644.281-1.281.818-1.636 1.013-.667 1.683-1.807 1.683-3.111z" fill="#f3f3f1"/></g><g><path d="m27.25 9.75h-18.5c-1.105 0-2 .895-2 2v10.5c0 1.105.895 2 2 2h5.948c-.393-.732-.557-1.606-.369-2.533.283-1.394 1.392-2.544 2.778-2.864 2.459-.567 4.643 1.285 4.643 3.647 0 .635-.161 1.229-.44 1.75h5.94c1.105 0 2-.895 2-2v-10.5c0-1.105-.895-2-2-2z" fill="#2fdf84"/></g><g><path d="m9 22.25v-10.5c0-1.105.895-2 2-2h-2.25c-1.105 0-2 .895-2 2v10.5c0 1.105.895 2 2 2h2.25c-1.105 0-2-.895-2-2z" fill="#00b871"/></g><g><path d="m19 28.509v-1.285c0-.638-.289-1.261-.821-1.613-1.208-.8-1.928-2.272-1.599-3.893.265-1.305 1.257-2.387 2.519-2.783-.614-.189-1.287-.243-1.991-.081-1.386.32-2.495 1.47-2.778 2.864-.329 1.621.391 3.094 1.599 3.893.532.352.821.975.821 1.613v1.285c0 .488.258.741.577.741h1.346c.195 0 .358-.103.463-.25-.081-.122-.136-.28-.136-.491z" fill="#d5dbe1"/></g><g><path d="m27.25 25h-3.25v-1.5h3.25c.689 0 1.25-.561 1.25-1.25v-10.5c0-.689-.561-1.25-1.25-1.25h-18.5c-.689 0-1.25.561-1.25 1.25v10.5c0 .689.561 1.25 1.25 1.25h3.25v1.5h-3.25c-1.517 0-2.75-1.233-2.75-2.75v-10.5c0-1.517 1.233-2.75 2.75-2.75h18.5c1.517 0 2.75 1.233 2.75 2.75v10.5c0 1.517-1.233 2.75-2.75 2.75z"/></g><g><path d="m22 9.75h-1.5v-2c0-.138-.112-.25-.25-.25h-4.5c-.138 0-.25.112-.25.25v2h-1.5v-2c0-.965.785-1.75 1.75-1.75h4.5c.965 0 1.75.785 1.75 1.75z"/></g><g><path d="m18.673 30h-1.346c-.659 0-1.327-.513-1.327-1.491v-1.285c0-.411-.186-.79-.485-.988-1.535-1.017-2.289-2.849-1.92-4.668.34-1.678 1.684-3.063 3.345-3.444 1.372-.32 2.78-.006 3.86.854 1.081.86 1.7 2.144 1.7 3.523 0 1.506-.755 2.903-2.019 3.738-.296.196-.481.582-.481 1.009v1.425c0 .731-.596 1.327-1.327 1.327zm-1.173-1.5h1v-1.252c0-.938.432-1.784 1.155-2.262.842-.555 1.345-1.485 1.345-2.486 0-.92-.413-1.776-1.134-2.35s-1.671-.777-2.59-.566c-1.098.253-1.986 1.17-2.211 2.281-.251 1.236.238 2.432 1.277 3.12.725.479 1.157 1.316 1.157 2.238v1.277z"/></g><g><path d="m2 28.5h32v1.5h-32z"/></g></svg>