<svg id="line" enable-background="new 0 0 36 36" height="512" viewBox="0 0 36 36" width="512" xmlns="http://www.w3.org/2000/svg"><g><path d="m4.167 27.623c0-6.917-3.583-11.667-3.583-15s1.916-10.333 17.249-10.333 17.583 9.417 17.583 13.083c.001 17.167-31.249 24.5-31.249 12.25z" fill="#efefef"/></g><g><path d="m26.625 3.25h1v2h-1z" fill="#a4afc1"/></g><g><path d="m28.875 6.25h2v1h-2z" fill="#a4afc1"/></g><g><path d="m28.25 21.75h-3.5c-.552 0-1 .448-1 1v3.75c0 1.519 1.231 2.75 2.75 2.75 1.519 0 2.75-1.231 2.75-2.75v-3.75c0-.552-.448-1-1-1z" fill="#2fdf84"/></g><g><path d="m14.25 10.5c0-2.362-2.184-4.214-4.643-3.647-1.386.32-2.495 1.47-2.778 2.864-.329 1.621.391 3.094 1.599 3.893.532.352.821.975.821 1.613v1.285c0 .488.258.741.577.741h1.346c.319 0 .577-.258.577-.577v-1.425c0-.644.281-1.281.818-1.636 1.013-.667 1.683-1.807 1.683-3.111z" fill="#2fdf84"/></g><g><path d="m26 26.5v-3.75c0-.552.448-1 1-1h-2.25c-.552 0-1 .448-1 1v3.75c0 1.519 1.231 2.75 2.75 2.75.402 0 .781-.091 1.125-.246-.956-.43-1.625-1.387-1.625-2.504z" fill="#00b871"/></g><g><path d="m11.5 16.509v-1.285c0-.638-.289-1.261-.821-1.613-1.208-.8-1.928-2.272-1.599-3.893.265-1.305 1.257-2.387 2.519-2.783-.614-.189-1.287-.243-1.991-.081-1.386.32-2.495 1.47-2.778 2.864-.329 1.62.39 3.092 1.599 3.892.532.352.821.975.821 1.613v1.285c0 .488.258.741.577.741h1.346c.195 0 .358-.103.463-.25-.081-.121-.136-.279-.136-.49z" fill="#00b871"/></g><g><path d="m14.875 30h-.5c-2.55 0-4.625-2.075-4.625-4.625v-7.875h1.5v7.875c0 1.723 1.402 3.125 3.125 3.125h.5c1.723 0 3.125-1.402 3.125-3.125v-12.75c0-2.55 2.075-4.625 4.625-4.625s4.625 2.075 4.625 4.625v8.875h-1.5v-8.875c0-1.723-1.402-3.125-3.125-3.125s-3.125 1.402-3.125 3.125v12.75c0 2.55-2.075 4.625-4.625 4.625z"/></g><g><path d="m26.5 30c-1.93 0-3.5-1.57-3.5-3.5v-3.75c0-.965.785-1.75 1.75-1.75h3.5c.965 0 1.75.785 1.75 1.75v1.25h-1.5v-1.25c0-.138-.112-.25-.25-.25h-3.5c-.138 0-.25.112-.25.25v3.75c0 1.103.897 2 2 2s2-.897 2-2v-.5h1.5v.5c0 1.93-1.57 3.5-3.5 3.5z"/></g><g><path d="m11.173 18h-1.346c-.659 0-1.327-.513-1.327-1.491v-1.285c0-.411-.186-.79-.485-.988-1.535-1.017-2.289-2.849-1.92-4.668.34-1.677 1.684-3.062 3.344-3.445 1.375-.316 2.781-.005 3.862.855 1.08.859 1.699 2.143 1.699 3.522 0 1.506-.755 2.903-2.019 3.738-.297.196-.481.583-.481 1.01v1.425c0 .731-.596 1.327-1.327 1.327zm-1.173-1.5h1v-1.252c0-.938.432-1.784 1.155-2.262.842-.556 1.345-1.485 1.345-2.486 0-.92-.413-1.775-1.134-2.35-.721-.572-1.661-.78-2.591-.567-1.096.254-1.985 1.171-2.21 2.282-.251 1.236.238 2.432 1.277 3.12.725.48 1.158 1.317 1.158 2.239z"/></g></svg>