<svg id="line" enable-background="new 0 0 36 36" height="512" viewBox="0 0 36 36" width="512" xmlns="http://www.w3.org/2000/svg"><g><path d="m27.623 4.167c-6.917 0-11.667-3.583-15-3.583s-10.333 1.916-10.333 17.249 9.417 17.583 13.083 17.583c17.167.001 24.5-31.249 12.25-31.249z" fill="#efefef"/></g><g><path d="m6 31.5c-.827 0-1.5-.673-1.5-1.5s.673-1.5 1.5-1.5 1.5.673 1.5 1.5-.673 1.5-1.5 1.5zm0-2c-.276 0-.5.225-.5.5s.224.5.5.5.5-.225.5-.5-.224-.5-.5-.5z" fill="#a4afc1"/></g><g><path d="m21.75 16.5c0-2.362-2.184-4.214-4.643-3.647-1.386.32-2.495 1.47-2.778 2.864-.329 1.621.391 3.094 1.599 3.893.532.352.821.975.821 1.613v1.285c0 .488.258.741.577.741h1.346c.319 0 .577-.258.577-.577v-1.425c0-.644.281-1.281.818-1.636 1.013-.667 1.683-1.807 1.683-3.111z" fill="#f3f3f1"/></g><g><path d="m28.161 18.897c-.259-.57-.259-1.223 0-1.793l.895-1.969c.519-1.142-.037-2.485-1.212-2.926l-2.025-.76c-.586-.22-1.048-.682-1.268-1.268l-.76-2.025c-.441-1.175-1.784-1.731-2.926-1.212l-1.969.895c-.57.259-1.224.259-1.793 0l-1.969-.895c-1.142-.519-2.485.037-2.926 1.212l-.76 2.025c-.22.586-.682 1.048-1.268 1.268l-2.025.76c-1.175.441-1.731 1.784-1.212 2.926l.895 1.969c.259.57.259 1.223 0 1.793l-.895 1.969c-.519 1.142.037 2.485 1.212 2.926l2.025.76c.586.22 1.048.682 1.268 1.268l.76 2.025c.441 1.175 1.784 1.731 2.926 1.212l1.969-.894c.57-.259 1.224-.259 1.793 0l1.969.894c1.142.519 2.485-.037 2.926-1.212l.76-2.025c.22-.586.682-1.048 1.268-1.268l2.025-.76c1.175-.441 1.731-1.784 1.212-2.926zm-8.093.715c-.537.355-.818.992-.818 1.636v1.425c0 .319-.258.577-.577.577h-1.346c-.319 0-.577-.253-.577-.741v-1.285c0-.638-.289-1.261-.821-1.613-1.208-.8-1.928-2.272-1.599-3.893.283-1.394 1.392-2.544 2.778-2.864 2.459-.567 4.643 1.285 4.643 3.647-.001 1.303-.671 2.443-1.683 3.111z" fill="#2fdf84"/></g><g><path d="m19.353 7.839c.57.259 1.224.259 1.793 0l1.714-.779c-.586-.346-1.324-.421-1.996-.115l-1.74.791z" fill="#00b871"/></g><g><path d="m21.147 28.161c-.57-.259-1.224-.259-1.793 0l-.228.104 1.74.791c.672.305 1.409.231 1.996-.115z" fill="#00b871"/></g><g><path d="m14.459 27.843-.76-2.025c-.22-.586-.682-1.048-1.268-1.268l-2.025-.76c-1.175-.441-1.731-1.784-1.212-2.926l.895-1.969c.259-.57.259-1.223 0-1.793l-.895-1.969c-.519-1.142.037-2.485 1.212-2.926l2.025-.76c.586-.22 1.048-.682 1.268-1.268l.76-2.025c.181-.484.52-.854.93-1.096l-.254-.115c-1.142-.519-2.485.037-2.926 1.212l-.76 2.025c-.22.586-.682 1.048-1.268 1.268l-2.025.76c-1.175.441-1.731 1.784-1.212 2.926l.895 1.969c.259.57.259 1.223 0 1.793l-.895 1.969c-.519 1.142.037 2.485 1.212 2.926l2.025.76c.586.22 1.048.682 1.268 1.268l.76 2.025c.441 1.175 1.784 1.731 2.926 1.212l.254-.115c-.41-.243-.749-.614-.93-1.098z" fill="#00b871"/></g><g><path d="m19 22.509v-1.285c0-.638-.289-1.261-.821-1.613-1.208-.8-1.928-2.272-1.599-3.893.265-1.305 1.257-2.387 2.519-2.783-.614-.189-1.287-.243-1.991-.081-1.386.32-2.495 1.47-2.778 2.864-.329 1.621.391 3.094 1.599 3.893.532.352.821.975.821 1.613v1.285c0 .488.258.741.577.741h1.346c.195 0 .358-.103.463-.25-.081-.122-.136-.28-.136-.491z" fill="#d5dbe1"/></g><g><path d="m21.758 30.001c-.406 0-.811-.086-1.194-.257l-1.976-.901c-.374-.172-.803-.172-1.177 0l-1.97.899c-.739.331-1.585.343-2.328.031-.751-.314-1.321-.908-1.606-1.672l-.759-2.018c-.144-.386-.446-.688-.83-.831l-2.022-.761c-.762-.284-1.355-.854-1.669-1.604-.311-.742-.3-1.589.029-2.324l.902-1.975c.17-.374.17-.804 0-1.178l-.9-1.97c-.331-.74-.342-1.587-.031-2.329.314-.75.908-1.32 1.671-1.605l2.018-.759c.386-.144.688-.446.832-.831l.76-2.021c.284-.762.854-1.355 1.605-1.67.741-.312 1.588-.3 2.323.029l1.975.901c.374.172.803.172 1.177 0l1.97-.899c.74-.33 1.586-.342 2.328-.031.751.314 1.321.908 1.606 1.672l.759 2.018c.144.386.446.688.83.831l2.022.761c.762.284 1.355.854 1.669 1.604.311.742.3 1.589-.029 2.324l-.902 1.975c-.17.374-.17.804 0 1.178l.9 1.97c.331.74.342 1.587.031 2.329-.314.75-.908 1.32-1.671 1.605l-2.018.759c-.386.144-.688.446-.832.831l-.077.213-1.41-.512.08-.22c.298-.799.922-1.423 1.713-1.718l2.018-.759c.373-.139.662-.416.814-.78.153-.366.148-.768-.014-1.131l-.897-1.965c-.352-.771-.352-1.653 0-2.424l.9-1.97c.16-.358.165-.76.012-1.126-.152-.364-.441-.642-.812-.779l-2.022-.761c-.789-.294-1.413-.918-1.708-1.71l-.759-2.019c-.139-.373-.416-.661-.78-.813-.365-.152-.768-.148-1.131.015l-1.965.897c-.771.35-1.653.35-2.422 0l-1.971-.899c-.359-.161-.76-.165-1.126-.013-.364.152-.641.44-.78.812l-.76 2.021c-.295.791-.919 1.415-1.71 1.71l-2.018.759c-.373.139-.662.416-.814.78-.153.366-.148.768.014 1.131l.897 1.965c.352.771.352 1.653 0 2.424l-.9 1.97c-.16.358-.165.76-.012 1.126.152.364.441.642.812.779l2.022.761c.789.294 1.413.918 1.708 1.71l.759 2.019c.139.373.416.661.78.813.365.152.768.148 1.131-.015l1.965-.897c.771-.35 1.653-.35 2.422 0l1.971.899c.349.157.741.165 1.099.022s.638-.418.787-.777l1.385.576c-.306.735-.88 1.302-1.617 1.596-.349.14-.713.209-1.077.209z"/></g><g><path d="m18.673 24h-1.346c-.66 0-1.327-.513-1.327-1.491v-1.285c0-.411-.186-.79-.485-.988-1.535-1.016-2.289-2.848-1.92-4.668.34-1.678 1.684-3.063 3.344-3.444 1.374-.318 2.781-.005 3.861.854 1.081.86 1.7 2.145 1.7 3.523 0 1.507-.755 2.904-2.019 3.738-.297.195-.481.582-.481 1.009v1.425c0 .731-.595 1.327-1.327 1.327zm-1.173-1.5h1v-1.252c0-.939.432-1.784 1.155-2.262.842-.555 1.345-1.485 1.345-2.486 0-.92-.413-1.775-1.134-2.349s-1.664-.779-2.59-.567c-1.097.253-1.986 1.17-2.211 2.282-.25 1.236.239 2.431 1.278 3.119.725.479 1.157 1.316 1.157 2.238z"/></g></svg>