<svg id="line" enable-background="new 0 0 36 36" height="512" viewBox="0 0 36 36" width="512" xmlns="http://www.w3.org/2000/svg"><g><path d="m8.377 31.833c6.917 0 11.667 3.583 15 3.583s10.333-1.916 10.333-17.249-9.417-17.584-13.083-17.584c-17.167 0-24.5 31.25-12.25 31.25z" fill="#efefef"/></g><g><path d="m26.467 3.967h1v2h-1z" fill="#a4afc1" transform="matrix(.707 -.707 .707 .707 4.384 20.519)"/></g><g><path d="m30.533 8.033h1v2h-1z" fill="#a4afc1" transform="matrix(.707 -.707 .707 .707 2.7 24.585)"/></g><g><path d="m29.856 4.467h2v1h-2z" fill="#a4afc1" transform="matrix(.707 -.707 .707 .707 5.525 23.274)"/></g><g><path d="m23.25 14.5c0-2.362-2.184-4.214-4.643-3.647-1.386.32-2.495 1.47-2.778 2.864-.329 1.621.391 3.094 1.599 3.893.532.352.821.975.821 1.613v1.285c0 .488.258.741.577.741h1.346c.319 0 .577-.258.577-.577v-1.425c0-.644.281-1.281.818-1.636 1.013-.667 1.683-1.807 1.683-3.111z" fill="#f3f3f1"/></g><g><path d="m18.963 6.75c-4.573 0-8.288 3.727-8.288 8.315v.003c0 .699-.198 1.385-.57 1.976l-2.277 3.953c-.049.078-.078.166-.078.264 0 .274.214.489.487.489h2.513v3.033c0 .812.653 1.467 1.463 1.467.146 0 .292-.02.429-.068l3.109-.845v3.913h8.5v-5.236c0-1.512.554-2.944 1.435-4.174.969-1.353 1.565-3.002 1.565-4.776-.001-4.587-3.716-8.314-8.288-8.314zm2.605 10.862c-.537.355-.818.992-.818 1.636v1.425c0 .319-.258.577-.577.577h-1.346c-.319 0-.577-.253-.577-.741v-1.285c0-.638-.289-1.261-.821-1.613-1.208-.8-1.928-2.272-1.599-3.893.283-1.394 1.392-2.544 2.778-2.864 2.459-.567 4.643 1.285 4.643 3.647-.001 1.303-.671 2.443-1.683 3.111z" fill="#2fdf84"/></g><g><path d="m10 21.261c0-.098.029-.186.078-.264l2.277-3.953c.371-.591.57-1.277.57-1.976 0-.001 0-.002 0-.003 0-4.204 3.122-7.676 7.163-8.229-.369-.05-.742-.086-1.125-.086-4.573 0-8.288 3.727-8.288 8.315v.003c0 .699-.198 1.385-.57 1.976l-2.277 3.953c-.049.078-.078.166-.078.264 0 .274.214.489.487.489h2.25c-.273 0-.487-.215-.487-.489z" fill="#00b871"/></g><g><path d="m13 24.783v-3.033h-2.25v3.033c0 .812.653 1.467 1.463 1.467.146 0 .292-.02.429-.068l.92-.25c-.34-.269-.562-.681-.562-1.149z" fill="#00b871"/></g><g><path d="m15.75 25.948v3.302h2.25v-3.913z" fill="#00b871"/></g><g><path d="m17.429 17.61c.532.352.821.975.821 1.613v1.285c0 .488.258.741.577.741h1.346c.195 0 .358-.103.463-.25-.081-.122-.136-.28-.136-.491v-1.285c0-.638-.289-1.261-.821-1.613-1.208-.8-1.928-2.272-1.599-3.893.265-1.305 1.257-2.387 2.519-2.783-.614-.189-1.287-.243-1.991-.081-1.386.32-2.495 1.47-2.778 2.864-.329 1.621.39 3.094 1.599 3.893z" fill="#d5dbe1"/></g><g><path d="m24.25 30h-8.5c-.414 0-.75-.336-.75-.75v-2.932l-2.162.587c-.152.057-.381.095-.625.095-1.22 0-2.213-.995-2.213-2.218v-2.282h-1.763c-.682 0-1.237-.556-1.237-1.239 0-.231.066-.46.192-.661l2.264-3.93c.312-.498.469-1.043.469-1.601 0-5.002 4.054-9.069 9.038-9.069s9.037 4.067 9.037 9.065c0 1.853-.59 3.655-1.706 5.212-.847 1.184-1.294 2.476-1.294 3.738v.985h-1.5v-.985c0-1.576.545-3.171 1.574-4.61.933-1.301 1.426-2.801 1.426-4.339 0-4.171-3.381-7.565-7.537-7.565s-7.538 3.394-7.538 7.565c0 .843-.236 1.664-.684 2.377l-2.049 3.557h2.058c.414 0 .75.336.75.75v3.032c0 .396.319.718.713.718.07 0 .131-.009.177-.024l3.164-.862c.226-.061.467-.015.651.128.187.142.295.362.295.596v3.162h7v-1.5h1.5v2.25c0 .414-.336.75-.75.75zm-15.771-8.632-.002.003c.002-.001.002-.002.002-.003z"/></g><g><path d="m20.173 22h-1.346c-.659 0-1.327-.513-1.327-1.491v-1.285c0-.411-.186-.79-.485-.988-1.535-1.017-2.289-2.849-1.92-4.668.34-1.677 1.684-3.062 3.344-3.445 1.372-.314 2.781-.005 3.861.855 1.081.86 1.7 2.144 1.7 3.523 0 1.506-.755 2.904-2.019 3.738-.297.196-.481.583-.481 1.01v1.425c0 .73-.596 1.326-1.327 1.326zm-1.173-1.5h1v-1.252c0-.938.432-1.784 1.155-2.261.842-.556 1.345-1.486 1.345-2.487 0-.919-.413-1.776-1.134-2.349-.722-.574-1.668-.78-2.59-.567-1.098.253-1.986 1.17-2.211 2.282-.251 1.236.238 2.431 1.277 3.119.725.479 1.158 1.316 1.158 2.239z"/></g><g><path d="m2 28.5h32v1.5h-32z"/></g></svg>