<svg id="line" enable-background="new 0 0 36 36" height="512" viewBox="0 0 36 36" width="512" xmlns="http://www.w3.org/2000/svg"><g><path d="m31.833 27.623c0-6.917 3.583-11.667 3.583-15s-1.916-10.333-17.249-10.333-17.584 9.417-17.584 13.083c0 17.167 31.25 24.5 31.25 12.25z" fill="#efefef"/></g><g><path d="m26.467 4.967h1v2h-1z" fill="#a4afc1" transform="matrix(.707 -.707 .707 .707 3.682 20.82)"/></g><g><path d="m30.533 9.033h1v2h-1z" fill="#a4afc1" transform="matrix(.707 -.707 .707 .707 1.997 24.887)"/></g><g><path d="m29.856 5.467h2v1h-2z" fill="#a4afc1" transform="matrix(.707 -.707 .707 .707 4.818 23.566)"/></g><g><path d="m7 27.5c-.827 0-1.5-.673-1.5-1.5s.673-1.5 1.5-1.5 1.5.673 1.5 1.5-.673 1.5-1.5 1.5zm0-2c-.276 0-.5.225-.5.5s.224.5.5.5.5-.225.5-.5-.224-.5-.5-.5z" fill="#a4afc1"/></g><g><path d="m21.75 14.5c0-2.362-2.184-4.214-4.643-3.647-1.386.32-2.495 1.47-2.778 2.864-.329 1.621.391 3.094 1.599 3.893.532.352.821.975.821 1.613v1.285c0 .488.258.741.577.741h1.346c.319 0 .577-.258.577-.577v-1.425c0-.644.281-1.281.818-1.636 1.013-.667 1.683-1.807 1.683-3.111z" fill="#f3f3f1"/></g><g><path d="m18 6.75c-4.556 0-8.25 3.644-8.25 8.138 0 6.702 8.25 14.362 8.25 14.362s8.25-7.66 8.25-14.362c0-4.494-3.694-8.138-8.25-8.138zm2.068 10.862c-.537.355-.818.992-.818 1.636v1.425c0 .319-.258.577-.577.577h-1.346c-.319 0-.577-.253-.577-.741v-1.285c0-.638-.289-1.261-.821-1.613-1.208-.8-1.928-2.272-1.599-3.893.283-1.394 1.392-2.544 2.778-2.864 2.459-.567 4.643 1.285 4.643 3.647-.001 1.303-.671 2.443-1.683 3.111z" fill="#2fdf84"/></g><g><path d="m12 14.888c0-4.117 3.102-7.511 7.125-8.054-.369-.049-.742-.084-1.125-.084-4.556 0-8.25 3.644-8.25 8.138 0 6.702 8.25 14.362 8.25 14.362s.45-.422 1.125-1.13c-2.252-2.366-7.125-8.075-7.125-13.232z" fill="#00b871"/></g><g><path d="m19 20.509v-1.285c0-.638-.289-1.261-.821-1.613-1.208-.8-1.928-2.272-1.599-3.893.265-1.305 1.257-2.387 2.519-2.783-.614-.189-1.287-.243-1.991-.081-1.386.32-2.495 1.47-2.778 2.864-.329 1.621.391 3.094 1.599 3.893.532.352.821.975.821 1.613v1.285c0 .488.258.741.577.741h1.346c.195 0 .358-.103.463-.25-.081-.122-.136-.28-.136-.491z" fill="#d5dbe1"/></g><g><path d="m18 30c-.183 0-.366-.066-.51-.2-.347-.322-8.49-7.963-8.49-14.91 0-4.902 4.038-8.89 9-8.89s9 3.988 9 8.89c0 1.8-.548 3.798-1.63 5.938l-1.339-.676c.975-1.93 1.469-3.7 1.469-5.263 0-4.074-3.364-7.39-7.5-7.39s-7.5 3.315-7.5 7.39c0 5.352 5.736 11.536 7.5 13.312 1.004-1.008 3.292-3.439 5.07-6.334l1.278.785c-2.446 3.982-5.702 7.021-5.839 7.147-.143.135-.326.201-.509.201z"/></g><g><path d="m18.673 22h-1.346c-.66 0-1.327-.513-1.327-1.491v-1.285c0-.411-.186-.79-.485-.988-1.535-1.016-2.289-2.848-1.92-4.668.34-1.678 1.684-3.063 3.344-3.444 1.374-.318 2.78-.005 3.861.854 1.081.86 1.7 2.145 1.7 3.523 0 1.507-.755 2.904-2.019 3.738-.297.195-.481.582-.481 1.009v1.425c0 .731-.595 1.327-1.327 1.327zm-1.173-1.5h1v-1.252c0-.939.432-1.784 1.155-2.262.842-.555 1.345-1.485 1.345-2.486 0-.92-.413-1.775-1.134-2.349s-1.665-.778-2.59-.567c-1.097.253-1.986 1.17-2.211 2.282-.25 1.236.239 2.431 1.278 3.119.725.479 1.157 1.316 1.157 2.238z"/></g><g><path d="m2 28.5h32v1.5h-32z"/></g></svg>