<svg id="line" enable-background="new 0 0 36 36" height="512" viewBox="0 0 36 36" width="512" xmlns="http://www.w3.org/2000/svg"><g><path d="m31.833 27.623c0-6.917 3.583-11.667 3.583-15s-1.916-10.333-17.249-10.333-17.584 9.417-17.584 13.083c0 17.167 31.25 24.5 31.25 12.25z" fill="#efefef"/></g><g><path d="m26.467 2.967h1v2h-1z" fill="#a4afc1" transform="matrix(.707 -.707 .707 .707 5.096 20.234)"/></g><g><path d="m30.533 7.033h1v2h-1z" fill="#a4afc1" transform="matrix(.707 -.707 .707 .707 3.412 24.301)"/></g><g><path d="m29.856 3.467h2v1h-2z" fill="#a4afc1" transform="matrix(.707 -.707 .707 .707 6.233 22.981)"/></g><g><path d="m21.75 12.5c0-2.362-2.184-4.214-4.643-3.647-1.386.32-2.495 1.47-2.778 2.864-.329 1.621.391 3.094 1.599 3.893.532.352.821.975.821 1.613v1.285c0 .488.258.741.577.741h1.346c.319 0 .577-.258.577-.577v-1.425c0-.644.281-1.281.818-1.636 1.013-.667 1.683-1.807 1.683-3.111z" fill="#f3f3f1"/></g><g><path d="m24.25 6.75h-12.5c-1.1 0-2 .9-2 2v9.5l8.25 3.75 8.25-3.75v-9.5c0-1.1-.9-2-2-2zm-4.182 8.862c-.537.355-.818.992-.818 1.636v1.425c0 .319-.258.577-.577.577h-1.346c-.319 0-.577-.253-.577-.741v-1.285c0-.638-.289-1.261-.821-1.613-1.208-.8-1.928-2.272-1.599-3.893.283-1.394 1.392-2.544 2.778-2.864 2.459-.567 4.643 1.285 4.643 3.647-.001 1.303-.671 2.443-1.683 3.111z" fill="#f3f3f1"/></g><g><path d="m28.46 13.33-2.21-1.18v6.1l-8.25 3.75-8.25-3.75v-6.1l-2.21 1.18c-.48.26-.79.77-.79 1.32v13.1c0 .83.67 1.5 1.5 1.5h19.5c.83 0 1.5-.67 1.5-1.5v-13.1c0-.55-.31-1.06-.79-1.32z" fill="#2fdf84"/></g><g><path d="m20.25 22 8.25-3.75v-4.891c-.014-.008-.025-.021-.04-.029l-2.21-1.18v6.1l-7.125 3.239z" fill="#00b871"/></g><g><path d="m9 27.75v-13.1c0-.533.295-1.024.75-1.291v-1.209l-2.21 1.18c-.48.26-.79.77-.79 1.32v13.1c0 .83.67 1.5 1.5 1.5h2.25c-.83 0-1.5-.67-1.5-1.5z" fill="#00b871"/></g><g><path d="m19 18.509v-1.285c0-.638-.289-1.261-.821-1.613-1.208-.8-1.928-2.272-1.599-3.893.265-1.305 1.257-2.387 2.519-2.783-.614-.189-1.287-.243-1.991-.081-1.386.32-2.495 1.47-2.778 2.864-.329 1.621.391 3.094 1.599 3.893.532.352.821.975.821 1.613v1.285c0 .488.258.741.577.741h1.346c.195 0 .358-.103.463-.25-.081-.122-.136-.28-.136-.491z" fill="#d5dbe1"/></g><g><path d="m12 18.25v-9.5c0-1.1.9-2 2-2h-2.25c-1.1 0-2 .9-2 2v9.5l8.25 3.75 1.125-.511z" fill="#d5dbe1"/></g><g><path d="m27.75 30h-19.5c-1.241 0-2.25-1.01-2.25-2.25v-13.1c0-.826.453-1.585 1.183-1.979l2.214-1.183.706 1.324-2.21 1.18c-.237.128-.393.388-.393.658v13.1c0 .413.336.75.75.75h19.5c.414 0 .75-.337.75-.75v-3.75h1.5v3.75c0 1.24-1.009 2.25-2.25 2.25z"/></g><g><path d="m30 22h-1.5v-7.35c0-.271-.156-.53-.397-.661l-2.206-1.177.706-1.324 2.21 1.18c.734.397 1.187 1.156 1.187 1.982z"/></g><g><path d="m18 22.996c-.438 0-.876-.104-1.275-.311l-10.322-5.39.694-1.33 10.32 5.39c.364.189.801.19 1.168-.001l10.318-5.389.694 1.33-10.32 5.39c-.4.207-.839.311-1.277.311z"/></g><g><path d="m27 18.2h-1.5v-9.45c0-.689-.561-1.25-1.25-1.25h-12.5c-.689 0-1.25.561-1.25 1.25v9.45h-1.5v-9.45c0-1.517 1.233-2.75 2.75-2.75h12.5c1.517 0 2.75 1.233 2.75 2.75z"/></g><g><path d="m18.673 20h-1.346c-.66 0-1.327-.513-1.327-1.491v-1.285c0-.411-.186-.79-.485-.988-1.535-1.016-2.289-2.848-1.92-4.668.34-1.678 1.684-3.063 3.344-3.444 1.374-.319 2.78-.006 3.861.854s1.7 2.145 1.7 3.523c0 1.507-.755 2.904-2.019 3.738-.297.195-.481.582-.481 1.009v1.425c0 .731-.595 1.327-1.327 1.327zm-1.173-1.5h1v-1.252c0-.939.432-1.784 1.155-2.262.842-.555 1.345-1.485 1.345-2.486 0-.92-.413-1.775-1.134-2.349s-1.665-.78-2.59-.567c-1.097.253-1.986 1.17-2.211 2.282-.25 1.236.239 2.431 1.278 3.119.725.479 1.157 1.316 1.157 2.238z"/></g><g><path d="m2 28.5h32v1.5h-32z"/></g></svg>