<svg id="line" enable-background="new 0 0 36 36" height="512" viewBox="0 0 36 36" width="512" xmlns="http://www.w3.org/2000/svg"><g><path d="m31.833 27.623c0-6.917 3.583-11.667 3.583-15s-1.916-10.333-17.249-10.333-17.584 9.417-17.584 13.083c0 17.167 31.25 24.5 31.25 12.25z" fill="#efefef"/></g><g><path d="m26.467 3.967h1v2h-1z" fill="#a4afc1" transform="matrix(.707 -.707 .707 .707 4.384 20.519)"/></g><g><path d="m30.533 8.033h1v2h-1z" fill="#a4afc1" transform="matrix(.707 -.707 .707 .707 2.7 24.585)"/></g><g><path d="m29.856 4.467h2v1h-2z" fill="#a4afc1" transform="matrix(.707 -.707 .707 .707 5.525 23.274)"/></g><g><path d="m13.75 25.75v-.5c0-1.739-.642-3.454-1.812-4.741-1.793-1.973-2.697-4.786-1.878-7.767.818-2.973 3.341-5.261 6.374-5.819 5.245-.964 9.816 3.037 9.816 8.106 0 2.1-.846 4.012-2.173 5.469-1.177 1.291-1.827 2.975-1.827 4.722v.529h-8.5z" fill="#2fdf84"/></g><g><path d="m20.25 29.25h-4.5c-1.105 0-2-.895-2-2v-1.5h8.5v1.5c0 1.105-.895 2-2 2z" fill="#f3f3f1"/></g><g><path d="m14.188 20.509c-1.793-1.973-2.697-4.786-1.878-7.767.818-2.973 3.341-5.261 6.374-5.819.155-.029.308-.039.461-.058-.869-.121-1.778-.113-2.711.058-3.033.558-5.556 2.845-6.374 5.819-.82 2.981.084 5.794 1.878 7.767 1.17 1.287 1.812 3.002 1.812 4.741v.5h2.25v-.5c0-1.739-.642-3.454-1.812-4.741z" fill="#00b871"/></g><g><path d="m16 27.25v-1.5h-2.25v1.5c0 1.105.895 2 2 2h2.25c-1.105 0-2-.895-2-2z" fill="#d5dbe1"/></g><g><path d="m23 25.75h-1.5v-.53c0-1.94.72-3.797 2.026-5.226.768-.843 1.341-1.839 1.656-2.881l1.436.435c-.38 1.255-1.065 2.451-1.983 3.458-1.055 1.152-1.635 2.648-1.635 4.214z"/></g><g><path d="m14.5 25.75h-1.5v-.5c0-1.561-.589-3.104-1.615-4.236-2.138-2.339-2.886-5.428-2.049-8.472.897-3.248 3.628-5.744 6.957-6.359 2.685-.49 5.405.213 7.467 1.931 2.059 1.716 3.24 4.237 3.24 6.916 0 .148-.005.296-.033.444l-1.473-.287c.011-.052.006-.104.006-.157 0-2.232-.984-4.333-2.701-5.765s-3.988-2.016-6.234-1.607c-2.767.512-5.037 2.585-5.782 5.282-.697 2.536-.073 5.111 1.712 7.064 1.294 1.427 2.006 3.289 2.006 5.246v.5z"/></g><g><path d="m20.25 30h-4.5c-1.517 0-2.75-1.233-2.75-2.75v-1.5c0-.414.336-.75.75-.75h8.5c.414 0 .75.336.75.75v1.5c0 1.517-1.233 2.75-2.75 2.75zm-5.75-3.5v.75c0 .689.561 1.25 1.25 1.25h4.5c.689 0 1.25-.561 1.25-1.25v-.75z"/></g><g><path d="m18.375 19h-2.625v-1.5h2.625c.345 0 .625-.28.625-.625s-.28-.625-.625-.625h-.75c-1.172 0-2.125-.953-2.125-2.125s.953-2.125 2.125-2.125h2.75v1.5h-2.75c-.345 0-.625.28-.625.625s.28.625.625.625h.75c1.172 0 2.125.953 2.125 2.125s-.953 2.125-2.125 2.125z"/></g><g><path d="m17.25 10.75h1.5v2h-1.5z"/></g><g><path d="m17.25 18.25h1.5v2h-1.5z"/></g><g><path d="m2 28.5h32v1.5h-32z"/></g></svg>