<svg id="line" enable-background="new 0 0 36 36" height="512" viewBox="0 0 36 36" width="512" xmlns="http://www.w3.org/2000/svg"><g><path d="m27.623 4.167c-6.917 0-11.667-3.583-15-3.583s-10.333 1.916-10.333 17.249 9.417 17.583 13.083 17.583c17.167.001 24.5-31.249 12.25-31.249z" fill="#efefef"/></g><g><path d="m29 22.5c-.827 0-1.5-.673-1.5-1.5s.673-1.5 1.5-1.5 1.5.673 1.5 1.5-.673 1.5-1.5 1.5zm0-2c-.275 0-.5.225-.5.5s.225.5.5.5.5-.225.5-.5-.225-.5-.5-.5z" fill="#a4afc1"/></g><g><path d="m24.25 10.75h5v-1.5c0-1.381-1.119-2.5-2.5-2.5-1.381 0-2.5 1.119-2.5 2.5z" fill="#f3f3f1"/></g><g><path d="m20.25 13.5c0-2.362-2.184-4.214-4.643-3.647-1.386.32-2.495 1.47-2.778 2.864-.329 1.621.391 3.094 1.599 3.893.532.352.821.975.821 1.613v1.285c0 .488.258.741.577.741h1.346c.319 0 .577-.258.577-.577v-1.425c0-.644.281-1.281.818-1.636 1.013-.667 1.683-1.807 1.683-3.111z" fill="#f3f3f1"/></g><g><path d="m21.75 29.25c-1.381 0-2.5-1.119-2.5-2.5v-2.458h-12.5v2.958c0 1.105.895 2 2 2h7.875 5.375z" fill="#f3f3f1"/></g><g><path d="m11.75 6.75c-1.657 0-3 1.343-3 3v14.542h10.5v2.458c0 .995.586 1.848 1.428 2.25h3.572v-19l2.5-3.25zm6.818 9.862c-.537.355-.818.992-.818 1.636v1.425c0 .319-.258.577-.577.577h-1.346c-.319 0-.577-.253-.577-.741v-1.285c0-.638-.289-1.261-.821-1.613-1.208-.8-1.928-2.272-1.599-3.893.283-1.394 1.392-2.544 2.778-2.864 2.459-.567 4.643 1.285 4.643 3.647-.001 1.303-.671 2.443-1.683 3.111z" fill="#2fdf84"/></g><g><path d="m14 6.75h-2.25c-1.657 0-3 1.343-3 3v14.542h2.25v-14.542c0-1.657 1.343-3 3-3z" fill="#00b871"/></g><g><path d="m21.5 26.75v-2.458h-2.25v2.458c0 .995.586 1.848 1.428 2.25h2.25c-.842-.402-1.428-1.255-1.428-2.25z" fill="#00b871"/></g><g><path d="m27.875 7.029c-.34-.172-.718-.279-1.125-.279-1.381 0-2.5 1.119-2.5 2.5v1.5h2.25v-1.5c0-.974.562-1.808 1.375-2.221z" fill="#d5dbe1"/></g><g><path d="m17.5 19.509v-1.285c0-.638-.289-1.261-.821-1.613-1.208-.8-1.928-2.272-1.599-3.893.265-1.305 1.257-2.387 2.519-2.783-.614-.189-1.287-.243-1.991-.081-1.386.32-2.495 1.47-2.778 2.864-.329 1.621.391 3.094 1.599 3.893.532.352.821.975.821 1.613v1.285c0 .488.258.741.577.741h1.346c.195 0 .358-.103.463-.25-.081-.122-.136-.28-.136-.491z" fill="#d5dbe1"/></g><g><path d="m9 27.25v-2.958h-2.25v2.958c0 1.105.895 2 2 2h2.25c-1.105 0-2-.895-2-2z" fill="#d5dbe1"/></g><g><path d="m9.5 24.292h-1.5v-14.542c0-2.067 1.683-3.75 3.75-3.75h15v1.5h-15c-1.24 0-2.25 1.01-2.25 2.25z"/></g><g><path d="m29.25 11.5h-5c-.414 0-.75-.336-.75-.75v-1.5c0-1.792 1.458-3.25 3.25-3.25s3.25 1.458 3.25 3.25v1.5c0 .414-.336.75-.75.75zm-4.25-1.5h3.5v-.75c0-.965-.785-1.75-1.75-1.75s-1.75.785-1.75 1.75z"/></g><g><path d="m22 30h-13.25c-1.517 0-2.75-1.233-2.75-2.75v-2.958c0-.414.336-.75.75-.75h12.5c.414 0 .75.336.75.75v2.458c0 .965.785 1.75 1.75 1.75s1.75-.785 1.75-1.75v-6.75h1.5v6.75c0 1.708-1.324 3.112-3 3.24zm-14.5-4.958v2.208c0 .689.561 1.25 1.25 1.25h10.263c-.324-.506-.513-1.106-.513-1.75v-1.708z"/></g><g><path d="m23.5 10.75h1.5v7.25h-1.5z"/></g><g><path d="m17.173 21h-1.346c-.659 0-1.327-.513-1.327-1.491v-1.285c0-.411-.186-.79-.485-.988-1.535-1.017-2.289-2.849-1.92-4.668.34-1.678 1.684-3.063 3.345-3.444 1.372-.322 2.78-.005 3.86.854 1.081.86 1.7 2.144 1.7 3.523 0 1.506-.755 2.903-2.019 3.738-.297.196-.481.583-.481 1.01v1.425c0 .73-.596 1.326-1.327 1.326zm-1.173-1.5h1v-1.252c0-.938.432-1.784 1.155-2.262.842-.556 1.345-1.485 1.345-2.486 0-.92-.413-1.776-1.134-2.35-.722-.573-1.672-.778-2.59-.566-1.098.253-1.986 1.17-2.211 2.281-.251 1.236.238 2.432 1.277 3.12.725.48 1.158 1.317 1.158 2.239z"/></g><g><path d="m2 28.5h32v1.5h-32z"/></g></svg>