<svg id="line" enable-background="new 0 0 36 36" height="512" viewBox="0 0 36 36" width="512" xmlns="http://www.w3.org/2000/svg"><g><path d="m31.833 8.377c0 6.917 3.583 11.667 3.583 15s-1.916 10.333-17.249 10.333-17.584-9.417-17.584-13.083c0-17.167 31.25-24.5 31.25-12.25z" fill="#efefef"/></g><g><path d="m6 31.5c-.827 0-1.5-.673-1.5-1.5s.673-1.5 1.5-1.5 1.5.673 1.5 1.5-.673 1.5-1.5 1.5zm0-2c-.275 0-.5.225-.5.5s.225.5.5.5.5-.225.5-.5-.225-.5-.5-.5z" fill="#a4afc1"/></g><g><path d="m25.25 24.25h-14.5c-1.105 0-2-.895-2-2v-15.5h18.5v15.5c0 1.105-.895 2-2 2z" fill="#2fdf84"/></g><g><path d="m21.75 14.5c0-2.362-2.184-4.214-4.643-3.647-1.386.32-2.495 1.47-2.778 2.864-.329 1.621.391 3.094 1.599 3.893.532.352.821.975.821 1.613v1.285c0 .488.258.741.577.741h1.346c.319 0 .577-.258.577-.577v-1.425c0-.644.281-1.281.818-1.636 1.013-.667 1.683-1.807 1.683-3.111z" fill="#f3f3f1"/></g><g><path d="m11 22.25v-15.5h-2.25v15.5c0 1.105.895 2 2 2h2.25c-1.105 0-2-.895-2-2z" fill="#00b871"/></g><g><path d="m19 20.509v-1.285c0-.638-.289-1.261-.821-1.613-1.208-.8-1.928-2.272-1.599-3.893.265-1.305 1.257-2.387 2.519-2.783-.614-.189-1.287-.243-1.991-.081-1.386.32-2.495 1.47-2.778 2.864-.329 1.621.391 3.094 1.599 3.893.532.352.821.975.821 1.613v1.285c0 .488.258.741.577.741h1.346c.195 0 .358-.103.463-.25-.081-.122-.136-.28-.136-.491z" fill="#d5dbe1"/></g><g><path d="m6 6h24v1.5h-24z"/></g><g><path d="m25.25 25h-14.5c-1.517 0-2.75-1.233-2.75-2.75v-15.5c0-.414.336-.75.75-.75h18.5c.414 0 .75.336.75.75v5.25h-1.5v-4.5h-17v14.75c0 .689.561 1.25 1.25 1.25h14.5c.689 0 1.25-.561 1.25-1.25v-8.25h1.5v8.25c0 1.517-1.233 2.75-2.75 2.75z"/></g><g><path d="m18 30c-.827 0-1.5-.673-1.5-1.5s.673-1.5 1.5-1.5 1.5.673 1.5 1.5-.673 1.5-1.5 1.5zm0-1.501v.002l.75-.001z"/></g><g><path d="m17.25 24.25h1.5v3.25h-1.5z"/></g><g><path d="m18.673 22h-1.346c-.659 0-1.327-.513-1.327-1.491v-1.285c0-.411-.186-.79-.485-.988-1.535-1.017-2.289-2.849-1.92-4.668.34-1.678 1.684-3.063 3.345-3.444 1.373-.321 2.78-.005 3.86.854 1.081.86 1.7 2.144 1.7 3.523 0 1.506-.755 2.903-2.019 3.738-.296.196-.481.582-.481 1.009v1.425c0 .731-.596 1.327-1.327 1.327zm-1.173-1.5h1v-1.252c0-.938.432-1.784 1.155-2.262.842-.555 1.345-1.485 1.345-2.486 0-.92-.413-1.776-1.134-2.35s-1.671-.776-2.59-.566c-1.098.253-1.986 1.17-2.211 2.281-.251 1.236.238 2.432 1.277 3.12.725.479 1.157 1.316 1.157 2.238v1.277z"/></g></svg>