<svg id="line" enable-background="new 0 0 36 36" height="512" viewBox="0 0 36 36" width="512" xmlns="http://www.w3.org/2000/svg"><g><path d="m8.377 4.167c6.917 0 11.667-3.583 15-3.583s10.333 1.916 10.333 17.249-9.417 17.583-13.083 17.583c-17.167.001-24.5-31.249-12.25-31.249z" fill="#efefef"/></g><g><path d="m26.467 4.967h1v2h-1z" fill="#a4afc1" transform="matrix(.707 -.707 .707 .707 3.682 20.82)"/></g><g><path d="m30.533 9.033h1v2h-1z" fill="#a4afc1" transform="matrix(.707 -.707 .707 .707 1.997 24.887)"/></g><g><path d="m29.856 5.467h2v1h-2z" fill="#a4afc1" transform="matrix(.707 -.707 .707 .707 4.818 23.566)"/></g><g><path d="m7 28.5c-.827 0-1.5-.673-1.5-1.5s.673-1.5 1.5-1.5 1.5.673 1.5 1.5-.673 1.5-1.5 1.5zm0-2c-.276 0-.5.225-.5.5s.224.5.5.5.5-.225.5-.5-.224-.5-.5-.5z" fill="#a4afc1"/></g><g><path d="m29.25 29.25-7.636-7.636z" fill="#f3f3f1"/></g><g><path d="m19.25 13.5c0-2.362-2.184-4.214-4.643-3.647-1.386.32-2.495 1.47-2.778 2.864-.329 1.621.391 3.094 1.599 3.893.532.352.821.975.821 1.613v1.285c0 .488.258.741.577.741h1.346c.319 0 .577-.258.577-.577v-1.425c0-.644.281-1.281.818-1.636 1.013-.667 1.683-1.807 1.683-3.111z" fill="#f3f3f1"/></g><g><path d="m15.5 6.75c-4.832 0-8.75 3.917-8.75 8.75 0 4.832 3.918 8.75 8.75 8.75 4.833 0 8.75-3.918 8.75-8.75 0-4.833-3.917-8.75-8.75-8.75zm2.068 9.862c-.537.355-.818.992-.818 1.636v1.425c0 .319-.258.577-.577.577h-1.346c-.319 0-.577-.253-.577-.741v-1.285c0-.638-.289-1.261-.821-1.613-1.208-.8-1.928-2.272-1.599-3.893.283-1.394 1.392-2.544 2.778-2.864 2.459-.567 4.643 1.285 4.643 3.647-.001 1.303-.671 2.443-1.683 3.111z" fill="#2fdf84"/></g><g><path d="m9 15.5c0-4.45 3.325-8.116 7.625-8.67-.369-.047-.743-.08-1.125-.08-4.832 0-8.75 3.917-8.75 8.75 0 4.832 3.918 8.75 8.75 8.75.382 0 .756-.033 1.125-.08-4.3-.554-7.625-4.22-7.625-8.67z" fill="#00b871"/></g><g><path d="m16.5 19.509v-1.285c0-.638-.289-1.261-.821-1.613-1.208-.8-1.928-2.272-1.599-3.893.265-1.305 1.257-2.387 2.519-2.783-.614-.189-1.287-.243-1.991-.081-1.386.32-2.495 1.47-2.778 2.864-.329 1.621.391 3.094 1.599 3.893.532.352.821.975.821 1.613v1.285c0 .488.258.741.577.741h1.346c.195 0 .358-.103.463-.25-.081-.122-.136-.28-.136-.491z" fill="#d5dbe1"/></g><g><path d="m15.5 25c-5.238 0-9.5-4.262-9.5-9.5s4.262-9.5 9.5-9.5c3.543 0 6.768 1.955 8.415 5.103l-1.329.695c-1.388-2.652-4.103-4.298-7.086-4.298-4.411 0-8 3.589-8 8s3.589 8 8 8 8-3.589 8-8c0-.696-.085-1.363-.253-1.983l1.447-.393c.203.747.306 1.547.306 2.376 0 5.238-4.262 9.5-9.5 9.5z"/></g><g><path d="m24.682 20.033h1.5v10.799h-1.5z" transform="matrix(.707 -.707 .707 .707 -10.534 25.433)"/></g><g><path d="m16.173 21h-1.346c-.66 0-1.327-.513-1.327-1.491v-1.285c0-.411-.186-.79-.485-.988-1.535-1.016-2.289-2.848-1.92-4.668.34-1.678 1.684-3.063 3.344-3.444 1.374-.318 2.781-.005 3.861.854 1.081.86 1.7 2.145 1.7 3.523 0 1.507-.755 2.904-2.019 3.738-.297.195-.481.583-.481 1.01v1.425c0 .73-.595 1.326-1.327 1.326zm-1.173-1.5h1v-1.252c0-.939.432-1.784 1.155-2.262.842-.556 1.345-1.485 1.345-2.486 0-.92-.413-1.775-1.134-2.349s-1.665-.778-2.59-.567c-1.097.253-1.986 1.17-2.211 2.282-.25 1.236.239 2.431 1.278 3.119.724.48 1.157 1.317 1.157 2.239z"/></g></svg>