<svg id="line" enable-background="new 0 0 36 36" height="512" viewBox="0 0 36 36" width="512" xmlns="http://www.w3.org/2000/svg"><g><path d="m4.167 8.377c0 6.917-3.583 11.667-3.583 15s1.916 10.333 17.249 10.333 17.583-9.417 17.583-13.083c.001-17.167-31.249-24.5-31.249-12.25z" fill="#efefef"/></g><g><path d="m7.033 4.467h2v1h-2z" fill="#a4afc1" transform="matrix(.707 -.707 .707 .707 -1.159 7.135)"/></g><g><path d="m2.967 8.533h2v1h-2z" fill="#a4afc1" transform="matrix(.707 -.707 .707 .707 -5.225 5.451)"/></g><g><path d="m3.644 3.967h1v2h-1z" fill="#a4afc1" transform="matrix(.707 -.707 .707 .707 -2.299 4.384)"/></g><g><path d="m21.75 16.5c0-2.362-2.184-4.214-4.643-3.647-1.386.32-2.495 1.47-2.778 2.864-.329 1.621.391 3.094 1.599 3.893.532.352.821.975.821 1.613v1.285c0 .488.258.741.577.741h1.346c.319 0 .577-.258.577-.577v-1.425c0-.644.281-1.281.818-1.636 1.013-.667 1.683-1.807 1.683-3.111z" fill="#f3f3f1"/></g><g><path d="m26.697 19.418c.068-.46.108-.939.108-1.418s-.039-.959-.108-1.419l1.692-1.555c.333-.313.411-.812.186-1.213l-1.663-2.876c-.225-.401-.704-.577-1.145-.44l-2.201.695c-.724-.597-1.546-1.086-2.446-1.419l-.509-2.26c-.098-.44-.489-.763-.949-.763h-3.326c-.46 0-.851.323-.949.763l-.509 2.26c-.9.333-1.722.822-2.446 1.419l-2.201-.695c-.44-.137-.92.039-1.145.44l-1.663 2.876c-.225.401-.147.9.186 1.213l1.692 1.555c-.066.46-.105.94-.105 1.419s.039.959.108 1.418l-1.692 1.555c-.333.313-.411.812-.186 1.213l1.663 2.876c.225.401.704.577 1.145.44l2.201-.695c.724.597 1.546 1.086 2.446 1.418l.509 2.26c.098.44.489.763.949.763h3.326c.46 0 .851-.323.949-.763l.509-2.26c.9-.333 1.722-.822 2.446-1.418l2.201.695c.44.137.92-.039 1.145-.44l1.663-2.876c.225-.401.147-.9-.186-1.213zm-6.629.194c-.537.355-.818.992-.818 1.636v1.425c0 .319-.258.577-.577.577h-1.346c-.319 0-.577-.253-.577-.741v-1.285c0-.638-.289-1.261-.821-1.613-1.208-.8-1.928-2.272-1.599-3.893.283-1.394 1.392-2.544 2.778-2.864 2.459-.567 4.643 1.285 4.643 3.647-.001 1.303-.671 2.443-1.683 3.111z" fill="#2fdf84"/></g><g><path d="m14.684 11.191c.724-.597 1.546-1.086 2.446-1.419l.509-2.26c.098-.44.489-.763.949-.763h-2.25c-.46 0-.851.323-.949.763l-.509 2.26c-.633.234-1.225.549-1.773.921z" fill="#00b871"/></g><g><path d="m11.338 25.063-1.663-2.876c-.225-.401-.147-.9.186-1.213l1.692-1.555c-.068-.46-.108-.939-.108-1.418s.039-.959.108-1.419l-1.692-1.555c-.333-.313-.411-.812-.186-1.213l1.663-2.876c.016-.028.041-.047.06-.073l-1.165-.368c-.44-.137-.92.039-1.145.44l-1.663 2.876c-.225.401-.147.9.186 1.213l1.692 1.555c-.068.46-.107.94-.107 1.419s.039.959.108 1.418l-1.692 1.555c-.333.313-.411.812-.186 1.213l1.663 2.876c.225.401.704.577 1.145.44l1.165-.368c-.019-.024-.045-.043-.061-.071z" fill="#00b871"/></g><g><path d="m25.816 11.191 1.036-.327c-.241-.343-.676-.495-1.085-.368l-.623.197c.232.157.458.321.672.498z" fill="#00b871"/></g><g><path d="m25.816 24.809c-.215.177-.441.341-.672.498l.623.197c.409.127.844-.025 1.085-.368z" fill="#00b871"/></g><g><path d="m17.638 28.487-.509-2.26c-.9-.333-1.722-.822-2.446-1.418l-1.578.498c.549.372 1.14.687 1.773.921l.509 2.26c.098.44.489.763.949.763h2.25c-.459-.001-.85-.324-.948-.764z" fill="#00b871"/></g><g><path d="m19 22.509v-1.285c0-.638-.289-1.261-.821-1.613-1.208-.8-1.928-2.272-1.599-3.893.265-1.305 1.257-2.387 2.519-2.783-.614-.189-1.287-.243-1.991-.081-1.386.32-2.495 1.47-2.778 2.864-.329 1.621.391 3.094 1.599 3.893.532.352.821.975.821 1.613v1.285c0 .488.258.741.577.741h1.346c.195 0 .358-.103.463-.25-.081-.122-.136-.28-.136-.491z" fill="#d5dbe1"/></g><g><path d="m18.673 24h-1.346c-.659 0-1.327-.513-1.327-1.491v-1.285c0-.411-.186-.79-.485-.988-1.535-1.017-2.289-2.849-1.92-4.668.34-1.677 1.684-3.062 3.344-3.445 1.371-.315 2.781-.005 3.861.855 1.081.86 1.7 2.144 1.7 3.523 0 1.506-.755 2.903-2.019 3.738-.296.196-.481.582-.481 1.009v1.425c0 .731-.596 1.327-1.327 1.327zm-1.173-1.5h1v-1.252c0-.938.432-1.784 1.155-2.262.842-.555 1.345-1.485 1.345-2.486 0-.919-.413-1.776-1.134-2.349-.722-.574-1.667-.78-2.59-.567-1.098.253-1.986 1.17-2.211 2.282-.251 1.236.238 2.431 1.277 3.119.725.48 1.157 1.317 1.157 2.239v1.276z"/></g><g><path d="m19.66 30h-3.32c-.809 0-1.5-.552-1.682-1.343l-.424-1.879c-.695-.298-1.351-.679-1.957-1.135l-1.822.572c-.786.249-1.634-.086-2.022-.796l-1.653-2.853c-.398-.696-.271-1.573.308-2.135l1.419-1.302c-.037-.359-.057-.737-.057-1.129s.02-.77.057-1.129l-1.403-1.288c-.595-.576-.722-1.453-.324-2.146l1.661-2.872c.383-.694 1.235-1.028 2.018-.779l1.819.571c.607-.457 1.263-.837 1.957-1.134l.424-1.877c.18-.794.871-1.346 1.681-1.346h3.32c.81 0 1.501.552 1.682 1.343l.424 1.879c.694.297 1.35.677 1.957 1.134l1.822-.572c.782-.249 1.633.085 2.022.794l1.652 2.856c.398.695.271 1.572-.309 2.134l-1.418 1.302c.038.36.058.738.058 1.13s-.02.77-.057 1.13l1.403 1.287c.595.576.722 1.453.324 2.146l-.292.503-1.297-.752.29-.5c.054-.095.032-.222-.055-.307l-1.674-1.535c-.184-.169-.272-.418-.234-.664.062-.401.092-.842.092-1.308s-.03-.907-.091-1.308c-.037-.247.051-.496.234-.665l1.689-1.55c.071-.07.093-.196.037-.293l-1.659-2.868c-.053-.097-.162-.133-.264-.101l-2.202.691c-.244.075-.505.024-.701-.136-.675-.555-1.429-.992-2.238-1.298-.236-.089-.411-.291-.467-.537l-.51-2.26c-.023-.102-.112-.175-.218-.175h-3.32c-.105 0-.195.073-.219.177l-.51 2.258c-.056.246-.23.447-.467.537-.81.306-1.563.743-2.238 1.298-.196.161-.457.213-.701.136l-2.199-.69c-.104-.034-.213.002-.259.085l-1.668 2.884c-.055.095-.033.222.053.306l1.675 1.536c.184.169.271.418.234.665-.061.401-.091.842-.091 1.308s.03.907.091 1.309c.038.246-.051.495-.234.664l-1.689 1.55c-.071.07-.093.197-.037.295l1.659 2.866c.054.097.157.134.265.102l2.201-.691c.241-.073.505-.024.701.137.674.554 1.427.991 2.239 1.299.235.089.41.29.466.536l.51 2.26c.023.102.113.175.219.175h3.32c.105 0 .195-.073.219-.177l.51-2.258c.056-.246.23-.447.466-.536.813-.308 1.565-.745 2.239-1.299.196-.161.461-.21.701-.137l2.199.69c.106.034.213-.003.259-.085l.365-.642 1.303.744-.359.63c-.384.696-1.233 1.034-2.019.783l-1.82-.571c-.606.456-1.262.837-1.957 1.135l-.424 1.877c-.183.792-.874 1.344-1.683 1.344z"/></g><g><path d="m2 28.5h32v1.5h-32z"/></g></svg>