<svg id="line" enable-background="new 0 0 36 36" height="512" viewBox="0 0 36 36" width="512" xmlns="http://www.w3.org/2000/svg"><g><path d="m4.167 8.377c0 6.917-3.583 11.667-3.583 15s1.916 10.333 17.249 10.333 17.583-9.417 17.583-13.083c.001-17.167-31.249-24.5-31.249-12.25z" fill="#efefef"/></g><g><path d="m5 26.5c-.827 0-1.5-.673-1.5-1.5s.673-1.5 1.5-1.5 1.5.673 1.5 1.5-.673 1.5-1.5 1.5zm0-2c-.276 0-.5.225-.5.5s.224.5.5.5.5-.225.5-.5-.224-.5-.5-.5z" fill="#a4afc1"/></g><g><path d="m21.75 16.5c0-2.362-2.184-4.214-4.643-3.647-1.386.32-2.495 1.47-2.778 2.864-.329 1.621.391 3.094 1.599 3.893.532.352.821.975.821 1.613v1.285c0 .488.258.741.577.741h1.346c.319 0 .577-.258.577-.577v-1.425c0-.644.281-1.281.818-1.636 1.013-.667 1.683-1.807 1.683-3.111z" fill="#f3f3f1"/></g><g><path d="m18 6.75-9.25 3.5v7.929c0 8.821 9.25 11.071 9.25 11.071s9.25-2.25 9.25-11.071c0-4.929 0-7.929 0-7.929zm2.068 12.862c-.537.355-.818.992-.818 1.636v1.425c0 .319-.258.577-.577.577h-1.346c-.319 0-.577-.253-.577-.741v-1.285c0-.638-.289-1.261-.821-1.613-1.208-.8-1.928-2.272-1.599-3.893.283-1.394 1.392-2.544 2.778-2.864 2.459-.567 4.643 1.285 4.643 3.647-.001 1.303-.671 2.443-1.683 3.111z" fill="#2fdf84"/></g><g><path d="m11 18.179c0-4.929 0-7.929 0-7.929l8.125-3.074-1.125-.426-9.25 3.5v7.929c0 8.821 9.25 11.071 9.25 11.071s.447-.114 1.125-.368c-2.457-.921-8.125-3.789-8.125-10.703z" fill="#00b871"/></g><g><path d="m19 22.509v-1.285c0-.638-.289-1.261-.821-1.613-1.208-.8-1.928-2.272-1.599-3.893.265-1.305 1.257-2.387 2.519-2.783-.614-.189-1.287-.243-1.991-.081-1.386.32-2.495 1.47-2.778 2.864-.329 1.621.391 3.094 1.599 3.893.532.352.821.975.821 1.613v1.285c0 .488.258.741.577.741h1.346c.195 0 .358-.103.463-.25-.081-.122-.136-.28-.136-.491z" fill="#d5dbe1"/></g><g><path d="m18 30c-.06 0-.119-.007-.177-.021-.098-.024-9.823-2.498-9.823-11.8v-7.929c0-.312.193-.591.484-.701l9.25-3.5c.172-.064.359-.064.531 0l9.25 3.5c.292.11.485.389.485.701v2.75h-1.5v-2.231l-8.5-3.217-8.5 3.217v7.41c0 7.488 7.274 9.936 8.503 10.294 1.28-.361 8.497-2.739 8.497-10.294v-3.179h1.5v3.179c0 9.303-9.725 11.776-9.823 11.8-.058.014-.117.021-.177.021z"/></g><g><path d="m18.673 24h-1.346c-.66 0-1.327-.513-1.327-1.491v-1.285c0-.411-.186-.79-.485-.988-1.535-1.016-2.289-2.848-1.92-4.668.34-1.678 1.684-3.063 3.344-3.444 1.374-.318 2.78-.005 3.861.854 1.081.86 1.7 2.145 1.7 3.523 0 1.507-.755 2.904-2.019 3.738-.297.195-.481.582-.481 1.009v1.425c0 .731-.595 1.327-1.327 1.327zm-1.173-1.5h1v-1.252c0-.939.432-1.784 1.155-2.262.842-.555 1.345-1.485 1.345-2.486 0-.92-.413-1.775-1.134-2.349s-1.664-.779-2.59-.567c-1.097.253-1.986 1.17-2.211 2.282-.25 1.236.239 2.431 1.278 3.119.725.479 1.157 1.316 1.157 2.238z"/></g><g><path d="m2 28.5h32v1.5h-32z"/></g></svg>