<svg id="line" enable-background="new 0 0 36 36" height="512" viewBox="0 0 36 36" width="512" xmlns="http://www.w3.org/2000/svg"><g><path d="m8.377 31.833c6.917 0 11.667 3.583 15 3.583s10.333-1.916 10.333-17.249-9.417-17.584-13.083-17.584c-17.167 0-24.5 31.25-12.25 31.25z" fill="#efefef"/></g><g><path d="m26.467 4.967h1v2h-1z" fill="#a4afc1" transform="matrix(.707 -.707 .707 .707 3.679 20.816)"/></g><g><path d="m30.533 9.033h1v2h-1z" fill="#a4afc1" transform="matrix(.707 -.707 .707 .707 1.995 24.882)"/></g><g><path d="m29.857 5.467h2v1h-2z" fill="#a4afc1" transform="matrix(.707 -.707 .707 .707 4.819 23.566)"/></g><g><path d="m18.25 12.5c0-2.362-2.184-4.214-4.643-3.647-1.386.32-2.495 1.47-2.778 2.864-.329 1.621.391 3.094 1.599 3.893.532.352.821.975.821 1.613v1.285c0 .488.258.741.577.741h1.346c.319 0 .577-.258.577-.577v-1.425c0-.644.281-1.281.818-1.636 1.013-.667 1.683-1.807 1.683-3.111z" fill="#2fdf84"/></g><g><path d="m15.5 18.509v-1.285c0-.638-.289-1.261-.821-1.613-1.208-.8-1.928-2.272-1.599-3.893.265-1.305 1.257-2.387 2.519-2.783-.614-.189-1.287-.243-1.991-.081-1.386.32-2.495 1.47-2.778 2.864-.329 1.621.391 3.094 1.599 3.893.532.352.821.975.821 1.613v1.285c0 .488.258.741.577.741h1.346c.195 0 .358-.103.463-.25-.081-.122-.136-.28-.136-.491z" fill="#00b871"/></g><g><path d="m7.138 29.892-.775-1.283 10.75-6.5c.279-.171.636-.139.882.077l3.48 3.046 7.254-7.021 1.043 1.078-7.75 7.5c-.278.271-.723.282-1.016.025l-3.587-3.139z"/></g><g><path d="m30 23h-1.5v-3.5h-3.5v-1.5h4.25c.414 0 .75.336.75.75z"/></g><g><path d="m15.17 20h-1.34c-.661 0-1.33-.512-1.33-1.49v-1.29c0-.41-.186-.787-.483-.983-1.538-1.018-2.292-2.85-1.922-4.666.337-1.68 1.682-3.068 3.348-3.451 1.773-.406 3.556.231 4.646 1.668l-1.195.906c-.729-.959-1.916-1.388-3.115-1.112-1.1.253-1.988 1.172-2.212 2.286-.252 1.235.238 2.43 1.278 3.118.712.469 1.155 1.326 1.155 2.234v1.28h1v-1.25c0-.937.432-1.783 1.155-2.264.842-.56 1.345-1.488 1.345-2.486 0-.119-.009-.23-.018-.342l1.496-.114-.748.056.748-.053c.011.147.022.295.022.453 0 1.502-.753 2.898-2.015 3.735-.304.202-.485.581-.485 1.015v1.42c0 .733-.597 1.33-1.33 1.33z"/></g></svg>