<svg id="line" enable-background="new 0 0 36 36" height="512" viewBox="0 0 36 36" width="512" xmlns="http://www.w3.org/2000/svg"><g><path d="m27.623 4.167c-6.917 0-11.667-3.583-15-3.583s-10.333 1.916-10.333 17.249 9.417 17.583 13.083 17.583c17.167.001 24.5-31.249 12.25-31.249z" fill="#efefef"/></g><g><path d="m7.033 4.467h2v1h-2z" fill="#a4afc1" transform="matrix(.707 -.707 .707 .707 -1.159 7.135)"/></g><g><path d="m2.967 8.533h2v1h-2z" fill="#a4afc1" transform="matrix(.707 -.707 .707 .707 -5.226 5.451)"/></g><g><path d="m3.644 3.967h1v2h-1z" fill="#a4afc1" transform="matrix(.707 -.707 .707 .707 -2.298 4.385)"/></g><g><path d="m21.75 21.5c0-2.362-2.184-4.214-4.643-3.647-1.386.32-2.495 1.47-2.778 2.864-.329 1.621.391 3.094 1.599 3.893.532.352.821.975.821 1.613v1.285c0 .488.258.741.577.741h1.346c.319 0 .577-.258.577-.577v-1.425c0-.644.281-1.281.818-1.636 1.013-.667 1.683-1.807 1.683-3.111z" fill="#f3f3f1"/></g><g><path d="m24.192 11.636c-1.085-2.301-3.453-3.886-6.192-3.886-3.453 0-6.3 2.513-6.77 5.8h-.078c-2.436 0-4.402 1.943-4.402 4.35s1.966 4.35 4.402 4.35c0 0 1.339-.004 3.182-.011-.097-.48-.112-.992-.004-1.522.283-1.394 1.392-2.544 2.778-2.864 2.459-.567 4.643 1.285 4.643 3.647 0 .24-.03.471-.073.698 1.817-.015 3.17-.034 3.278-.056 2.453-.495 4.295-2.637 4.295-5.209-.001-2.832-2.231-5.142-5.059-5.297z" fill="#2fdf84"/></g><g><path d="m9 17.9c0-2.407 1.966-4.35 4.402-4.35h.078c.417-2.919 2.71-5.223 5.637-5.703-.364-.06-.736-.097-1.117-.097-3.453 0-6.3 2.513-6.77 5.8h-.078c-2.436 0-4.402 1.943-4.402 4.35s1.966 4.35 4.402 4.35c0 0 .876-.002 2.177-.007-2.401-.039-4.329-1.961-4.329-4.343z" fill="#00b871"/></g><g><path d="m19 27.509v-1.285c0-.638-.289-1.261-.821-1.613-1.208-.8-1.928-2.272-1.599-3.893.265-1.305 1.257-2.387 2.519-2.783-.614-.189-1.287-.243-1.991-.081-1.386.32-2.495 1.47-2.778 2.864-.329 1.621.391 3.094 1.599 3.893.532.352.821.975.821 1.613v1.285c0 .488.258.741.577.741h1.346c.195 0 .358-.103.463-.25-.081-.122-.136-.28-.136-.491z" fill="#d5dbe1"/></g><g><path d="m23.869 23v-1.5c.316 0 .632-.031.937-.094 2.141-.432 3.694-2.313 3.694-4.473 0-2.417-1.91-4.415-4.349-4.549-.275-.016-.52-.18-.638-.429-.99-2.099-3.155-3.455-5.513-3.455-3.016 0-5.606 2.217-6.027 5.156-.053.369-.369.644-.743.644-2.092 0-3.73 1.615-3.73 3.601 0 1.984 1.639 3.6 3.652 3.6h.489v1.499h-.489c-2.84 0-5.152-2.288-5.152-5.1 0-2.629 2.02-4.8 4.603-5.072.778-3.362 3.852-5.828 7.397-5.828 2.788 0 5.361 1.527 6.673 3.927 3.02.382 5.327 2.94 5.327 6.007 0 2.871-2.06 5.37-4.896 5.943-.402.081-.818.123-1.235.123z"/></g><g><path d="m18.673 29h-1.346c-.659 0-1.327-.513-1.327-1.491v-1.285c0-.411-.186-.79-.485-.988-1.535-1.017-2.289-2.849-1.92-4.668.34-1.678 1.684-3.063 3.345-3.444 1.373-.32 2.78-.006 3.86.854 1.081.86 1.7 2.144 1.7 3.523 0 1.506-.755 2.903-2.019 3.738-.296.196-.481.582-.481 1.009v1.425c0 .731-.596 1.327-1.327 1.327zm-1.173-1.5h1v-1.252c0-.938.432-1.784 1.155-2.262.842-.555 1.345-1.485 1.345-2.486 0-.92-.413-1.776-1.134-2.35s-1.671-.777-2.59-.566c-1.098.253-1.986 1.17-2.211 2.281-.251 1.236.238 2.432 1.277 3.12.725.479 1.157 1.316 1.157 2.238v1.277z"/></g><g><path d="m2 27.5h32v1.5h-32z"/></g></svg>