<svg id="line" enable-background="new 0 0 36 36" height="512" viewBox="0 0 36 36" width="512" xmlns="http://www.w3.org/2000/svg"><g><path d="m8.377 4.167c6.917 0 11.667-3.583 15-3.583s10.333 1.916 10.333 17.249-9.417 17.583-13.083 17.583c-17.167.001-24.5-31.249-12.25-31.249z" fill="#efefef"/></g><g><path d="m6 31.5c-.827 0-1.5-.673-1.5-1.5s.673-1.5 1.5-1.5 1.5.673 1.5 1.5-.673 1.5-1.5 1.5zm0-2c-.275 0-.5.225-.5.5s.225.5.5.5.5-.225.5-.5-.225-.5-.5-.5z" fill="#a4afc1"/></g><g><path d="m21.75 16.5c0-2.362-2.184-4.214-4.643-3.647-1.386.32-2.495 1.47-2.778 2.864-.329 1.621.391 3.094 1.599 3.893.532.352.821.975.821 1.613v1.285c0 .488.258.741.577.741h1.346c.319 0 .577-.258.577-.577v-1.425c0-.644.281-1.281.818-1.636 1.013-.667 1.683-1.807 1.683-3.111z" fill="#2fdf84"/></g><g><path d="m19 22.509v-1.285c0-.638-.289-1.261-.821-1.613-1.208-.8-1.928-2.272-1.599-3.893.265-1.305 1.257-2.387 2.519-2.783-.614-.189-1.287-.243-1.991-.081-1.386.32-2.495 1.47-2.778 2.864-.329 1.621.391 3.094 1.599 3.893.532.352.821.975.821 1.613v1.285c0 .488.258.741.577.741h1.346c.195 0 .358-.103.463-.25-.081-.122-.136-.28-.136-.491z" fill="#00b871"/></g><g><path d="m18 30c-6.617 0-12-5.383-12-12s5.383-12 12-12c3.813 0 7.309 1.75 9.591 4.801l-1.201.898c-1.996-2.669-5.054-4.199-8.39-4.199-5.79 0-10.5 4.71-10.5 10.5s4.71 10.5 10.5 10.5 10.5-4.71 10.5-10.5h1.5c0 6.617-5.383 12-12 12z"/></g><g><path d="m27.25 12h-5.25v-1.5h4.5v-4.5h1.5v5.25c0 .414-.336.75-.75.75z"/></g><g><path d="m18.67 24h-1.34c-.661 0-1.33-.512-1.33-1.49v-1.29c0-.41-.186-.787-.483-.983-1.538-1.018-2.292-2.85-1.922-4.666.337-1.68 1.682-3.068 3.348-3.451 1.377-.316 2.784.001 3.863.862 1.077.859 1.694 2.142 1.694 3.519 0 .067 0 .18-.031.308l-1.457-.355.729.178-.741-.107c0-.943-.412-1.798-1.13-2.371-.721-.575-1.662-.784-2.594-.573-1.099.253-1.987 1.172-2.211 2.286-.252 1.235.238 2.43 1.278 3.118.713.47 1.156 1.326 1.156 2.234v1.28h1v-1.25c0-.937.432-1.783 1.155-2.264.348-.232.629-.513.834-.832l1.262.811c-.317.494-.743.921-1.265 1.27-.303.204-.485.582-.485 1.016v1.42c0 .733-.597 1.33-1.33 1.33z"/></g></svg>