<svg id="line" enable-background="new 0 0 36 36" height="512" viewBox="0 0 36 36" width="512" xmlns="http://www.w3.org/2000/svg"><g><path d="m31.833 8.377c0 6.917 3.583 11.667 3.583 15s-1.916 10.333-17.249 10.333-17.584-9.417-17.584-13.083c0-17.167 31.25-24.5 31.25-12.25z" fill="#efefef"/></g><g><path d="m3.644 3.967h1v2h-1z" fill="#a4afc1" transform="matrix(.707 -.707 .707 .707 -2.299 4.384)"/></g><g><path d="m2.967 8.533h2v1h-2z" fill="#a4afc1" transform="matrix(.707 -.707 .707 .707 -5.225 5.451)"/></g><g><path d="m7.033 4.467h2v1h-2z" fill="#a4afc1" transform="matrix(.707 -.707 .707 .707 -1.159 7.135)"/></g><g><path d="m31 32.5c-.827 0-1.5-.673-1.5-1.5s.673-1.5 1.5-1.5 1.5.673 1.5 1.5-.673 1.5-1.5 1.5zm0-2c-.275 0-.5.224-.5.5s.225.5.5.5.5-.224.5-.5-.225-.5-.5-.5z" fill="#a4afc1"/></g><g><path d="m23.75 11.75h-2.5v-2.5l2.5-2.5v2.5h2.5z" fill="#f3f3f1"/></g><g><circle cx="18" cy="15" fill="#f3f3f1" r="4.25"/></g><g><path d="m26.125 11.75h-5.417c.934.78 1.542 1.938 1.542 3.25 0 2.347-1.903 4.25-4.25 4.25s-4.25-1.903-4.25-4.25c0-1.312.607-2.47 1.542-3.25h-5.667c-.552 0-1 .448-1 1v11.5h18.5v-11.5c0-.552-.448-1-1-1z" fill="#2fdf84"/></g><g><path d="m11.875 11.75h-2.25c-.552 0-1 .448-1 1v11.5h2.25v-11.5c0-.552.448-1 1-1z" fill="#2fdf84"/></g><g><path d="m23.75 8.875v-2.125l-2.5 2.5v2.5h2.125v-2.5z" fill="#d5dbe1"/></g><g><path d="m15.875 15c0-1.978 1.358-3.626 3.187-4.1-.341-.088-.693-.15-1.062-.15-2.347 0-4.25 1.903-4.25 4.25s1.903 4.25 4.25 4.25c.369 0 .721-.062 1.062-.15-1.829-.474-3.187-2.122-3.187-4.1z" fill="#d5dbe1"/></g><g><path d="m18 20c-2.757 0-5-2.243-5-5s2.243-5 5-5v1.5c-1.93 0-3.5 1.57-3.5 3.5s1.57 3.5 3.5 3.5 3.5-1.57 3.5-3.5h1.5c0 2.757-2.243 5-5 5z"/></g><g><path d="m17.379 12.75h4.243v1.5h-4.243z" transform="matrix(.707 -.707 .707 .707 -3.835 17.743)"/></g><g><path d="m23.75 12.5h-2.5c-.414 0-.75-.336-.75-.75v-2.5c0-.199.079-.39.22-.53l2.5-2.5c.215-.214.537-.279.817-.163s.463.39.463.693v1.75h1.75c.304 0 .577.183.693.463.115.28.052.603-.163.817l-2.5 2.5c-.14.141-.331.22-.53.22zm-1.75-1.5h1.439l1-1h-.689c-.414 0-.75-.336-.75-.75v-.689l-1 1z"/></g><g><path d="m6 23.5h24v1.5h-24z"/></g><g><path d="m26.5 13.75h1.5v10.5h-1.5z"/></g><g><path d="m9.5 24.25h-1.5v-11.5c0-.965.785-1.75 1.75-1.75h1.5v1.5h-1.5c-.138 0-.25.112-.25.25z"/></g><g><path d="m2 23.5h32v1.5h-32z"/></g></svg>