<svg id="line" enable-background="new 0 0 36 36" height="512" viewBox="0 0 36 36" width="512" xmlns="http://www.w3.org/2000/svg"><g><path d="m4.167 27.623c0-6.917-3.583-11.667-3.583-15s1.916-10.333 17.249-10.333 17.583 9.417 17.583 13.083c.001 17.167-31.249 24.5-31.249 12.25z" fill="#efefef"/></g><g><path d="m3.644 3.967h1v2h-1z" fill="#a4afc1" transform="matrix(.707 -.707 .707 .707 -2.299 4.384)"/></g><g><path d="m2.967 8.533h2v1h-2z" fill="#a4afc1" transform="matrix(.707 -.707 .707 .707 -5.225 5.451)"/></g><g><path d="m7.033 4.467h2v1h-2z" fill="#a4afc1" transform="matrix(.707 -.707 .707 .707 -1.159 7.135)"/></g><g><path d="m31 32.5c-.827 0-1.5-.673-1.5-1.5s.673-1.5 1.5-1.5 1.5.673 1.5 1.5-.673 1.5-1.5 1.5zm0-2c-.275 0-.5.224-.5.5s.225.5.5.5.5-.224.5-.5-.225-.5-.5-.5z" fill="#a4afc1"/></g><g><path d="m22.25 18.25v-.922c0-.53-.211-1.039-.586-1.414l-1.414-1.414v-2.938c0-1.017-.31-2.01-.889-2.846l-1.361-1.966-1.361 1.966c-.579.836-.889 1.829-.889 2.846v2.938l-1.414 1.414c-.375.375-.586.884-.586 1.414v.922z" fill="#f3f3f1"/></g><g><path d="m26.25 11.75h-6v2.75l1.414 1.414c.375.375.586.884.586 1.414v.922h-8.5v-.922c0-.53.211-1.039.586-1.414l1.414-1.414v-2.75h-6c-.552 0-1 .448-1 1v11.5h18.5v-11.5c0-.552-.448-1-1-1z" fill="#2fdf84"/></g><g><path d="m12 11.75h-2.25c-.552 0-1 .448-1 1v11.5h2.25v-11.5c0-.552.448-1 1-1z" fill="#00b871"/></g><g><path d="m16.461 15.914 1.414-1.414v-2.938c0-1.017.31-2.01.889-2.846l.298-.431-1.062-1.535-1.361 1.966c-.579.836-.889 1.829-.889 2.846v2.938l-1.414 1.414c-.375.375-.586.884-.586 1.414v.922h2.125v-.922c0-.53.211-1.039.586-1.414z" fill="#d5dbe1"/></g><g><path d="m6 23.5h24v1.5h-24z"/></g><g><path d="m9.5 24.25h-1.5v-11.5c0-.965.785-1.75 1.75-1.75h2.5v1.5h-2.5c-.138 0-.25.112-.25.25z"/></g><g><path d="m28 24.25h-1.5v-11.5c0-.138-.112-.25-.25-.25h-2.5v-1.5h2.5c.965 0 1.75.785 1.75 1.75z"/></g><g><path d="m22.25 19h-8.5c-.414 0-.75-.336-.75-.75v-.921c0-.735.286-1.425.806-1.945l1.194-1.195v-2.627c0-1.174.354-2.306 1.021-3.273l1.362-1.966c.279-.405.953-.405 1.232 0l1.361 1.966c.67.967 1.024 2.099 1.024 3.273v2.627l1.194 1.194c.52.52.806 1.21.806 1.945v.921c0 .415-.336.751-.75.751zm-7.75-1.5h7v-.171c0-.334-.13-.648-.366-.884l-1.414-1.415c-.141-.141-.22-.332-.22-.53v-2.938c0-.868-.262-1.705-.756-2.419l-.744-1.076-.745 1.075c-.493.714-.755 1.551-.755 2.419v2.939c0 .199-.079.39-.22.53l-1.414 1.414c-.236.236-.366.55-.366.884z"/></g><g><path d="m19.5 18.25h1.5v2h-1.5z"/></g><g><path d="m15 18.25h1.5v2h-1.5z"/></g><g><path d="m2 23.5h32v1.5h-32z"/></g></svg>