<svg id="line" enable-background="new 0 0 36 36" height="512" viewBox="0 0 36 36" width="512" xmlns="http://www.w3.org/2000/svg"><g><path d="m8.377 31.833c6.917 0 11.667 3.583 15 3.583s10.333-1.916 10.333-17.249-9.417-17.584-13.083-17.584c-17.167 0-24.5 31.25-12.25 31.25z" fill="#efefef"/></g><g><path d="m3.644 3.967h1v2h-1z" fill="#a4afc1" transform="matrix(.707 -.707 .707 .707 -2.299 4.384)"/></g><g><path d="m2.967 8.533h2v1h-2z" fill="#a4afc1" transform="matrix(.707 -.707 .707 .707 -5.225 5.451)"/></g><g><path d="m7.033 4.467h2v1h-2z" fill="#a4afc1" transform="matrix(.707 -.707 .707 .707 -1.159 7.135)"/></g><g><path d="m31 32.5c-.827 0-1.5-.673-1.5-1.5s.673-1.5 1.5-1.5 1.5.673 1.5 1.5-.673 1.5-1.5 1.5zm0-2c-.275 0-.5.224-.5.5s.225.5.5.5.5-.224.5-.5-.225-.5-.5-.5z" fill="#a4afc1"/></g><g><path d="m18.14 19.115c-.544.544-3.354 1.385-3.354 1.385s.842-2.811 1.385-3.354c.544-.544 1.425-.544 1.969 0s.544 1.425 0 1.969z" fill="#f3f3f1"/></g><g><path d="m26.617 11.824c-.526.829-1.574 1.98-1.574 1.98-.032 1.797-.133 4.066-1.411 5.698l-7.75-7.752h-6.132c-.552 0-1 .448-1 1v11.25h18.5v-11.25c0-.422-.263-.779-.633-.926zm-8.476 7.291c-.544.544-3.354 1.385-3.354 1.385s.842-2.81 1.385-3.354c.544-.544 1.425-.544 1.969 0 .543.544.543 1.425 0 1.969z" fill="#2fdf84"/></g><g><path d="m29.036 6.764c.004-.204-.075-.4-.22-.544-.144-.145-.383-.223-.544-.22-2.499.047-5.265 1.284-7.316 3.215-1.994.044-4.221.235-5.919 1.565-.169.132-.273.331-.286.546s.067.424.22.576l8.13 8.129c.141.142.332.221.531.221.015 0 .029 0 .045-.001.214-.013.413-.117.546-.286 1.315-1.68 1.515-3.874 1.562-5.85 1.954-2.062 3.205-4.84 3.251-7.351z" fill="#f3f3f1"/></g><g><path d="m12 11.75h-2.25c-.552 0-1 .448-1 1v11.25h2.25v-11.25c0-.552.448-1 1-1z" fill="#00b871"/></g><g><path d="m18.21 17.251c-.027-.033-.039-.074-.07-.105-.544-.544-1.425-.544-1.969 0s-1.385 3.354-1.385 3.354 1.384-.415 2.397-.85c.27-.804.69-1.948 1.027-2.399z" fill="#d5dbe1"/></g><g><path d="m19.434 11.902c-.152-.152-.232-.361-.22-.576s.117-.414.286-.546c1.698-1.33 3.925-1.52 5.919-1.565 1.058-.996 2.306-1.802 3.609-2.36.001-.03.006-.061.007-.091.004-.204-.075-.4-.22-.544-.143-.145-.382-.223-.543-.22-2.499.047-5.265 1.284-7.316 3.215-1.994.044-4.221.235-5.919 1.565-.169.132-.273.331-.286.546s.067.424.22.576l8.13 8.129c.141.142.332.221.531.221.015 0 .029 0 .045-.001.214-.013.413-.117.546-.286.519-.663.86-1.407 1.09-2.185z" fill="#d5dbe1"/></g><g><path d="m6 23.5h24v1.5h-24z"/></g><g><path d="m26.5 16.75h1.5v7.5h-1.5z"/></g><g><path d="m9.5 24.25h-1.5v-11.5c0-.965.785-1.75 1.75-1.75h2.5v1.5h-2.5c-.138 0-.25.112-.25.25z"/></g><g><path d="m21.319 17.928c-.192 0-.384-.074-.53-.22l-3.461-3.461c-.282-.282-.294-.736-.027-1.032l2.835-3.147c2.089-2.413 5.286-4.014 8.136-4.068.157-.001.399.075.544.22.145.144.224.34.22.544-.053 2.85-1.654 6.047-4.079 8.146l-3.136 2.825c-.142.129-.322.193-.502.193zm-2.426-4.238 2.454 2.454 2.617-2.358c1.859-1.609 3.195-4.016 3.505-6.219-2.202.31-4.608 1.645-6.208 3.494z"/></g><g><path d="m23.632 20.252c-.199 0-.391-.079-.531-.221l-2.313-2.324 1.063-1.058 1.654 1.662c.67-1.31.761-2.94.788-4.521l1.5.026c-.036 2.049-.189 4.384-1.57 6.147-.133.169-.332.273-.546.286-.016.002-.031.003-.045.003z"/></g><g><path d="m17.295 14.215-2.324-2.313c-.152-.152-.232-.361-.22-.576s.117-.414.286-.546c1.763-1.38 4.098-1.535 6.147-1.571l.027 1.5c-1.581.028-3.212.119-4.521.789l1.662 1.654z"/></g><g><path d="m14.786 21.25c-.196 0-.388-.077-.53-.22-.195-.195-.268-.481-.188-.746.27-.899.963-3.057 1.574-3.669.809-.808 2.219-.81 3.029 0 .405.405.628.943.628 1.515s-.223 1.11-.628 1.515c-.612.611-2.771 1.304-3.67 1.573-.07.022-.143.032-.215.032zm2.37-3.762c-.172 0-.333.067-.454.188-.16.172-.45.852-.736 1.645.792-.286 1.472-.576 1.646-.737.121-.121.188-.282.188-.453s-.067-.333-.188-.454c-.123-.122-.285-.189-.456-.189z"/></g><g><path d="m2 23.5h32v1.5h-32z"/></g></svg>