<svg id="line" enable-background="new 0 0 36 36" height="512" viewBox="0 0 36 36" width="512" xmlns="http://www.w3.org/2000/svg"><g><path d="m31.833 8.377c0 6.917 3.583 11.667 3.583 15s-1.916 10.333-17.249 10.333-17.584-9.417-17.584-13.083c0-17.167 31.25-24.5 31.25-12.25z" fill="#efefef"/></g><g><path d="m30 23.5c-.827 0-1.5-.673-1.5-1.5s.673-1.5 1.5-1.5 1.5.673 1.5 1.5-.673 1.5-1.5 1.5zm0-2c-.276 0-.5.224-.5.5s.224.5.5.5.5-.224.5-.5-.224-.5-.5-.5z" fill="#a4afc1"/></g><g><path d="m21 20.25c-2.347 0-4.25-1.903-4.25-4.25s1.903-4.25 4.25-4.25c.086 0 .166.02.25.025v-3.025c0-1.105-.895-2-2-2h-10.5c-1.105 0-2 .895-2 2v17h14.5v-5.525c-.084.005-.164.025-.25.025z" fill="#2fdf84"/></g><g><circle cx="21" cy="16" fill="#f3f3f1" r="4.25"/></g><g><path d="m26.75 12.75h-2.5v-2.5l2.5-2.5v2.5h2.5z" fill="#f3f3f1"/></g><g><path d="m19.25 29.25h-10.5c-1.105 0-2-.895-2-2v-1.5h14.5v1.5c0 1.105-.895 2-2 2z" fill="#f3f3f1"/></g><g><path d="m11 6.75h-2.25c-1.105 0-2 .895-2 2v17h2.25v-17c0-1.105.895-2 2-2z" fill="#00b871"/></g><g><path d="m18.875 16c0-1.978 1.358-3.626 3.188-4.1-.341-.088-.693-.15-1.063-.15-2.347 0-4.25 1.903-4.25 4.25s1.903 4.25 4.25 4.25c.369 0 .721-.062 1.063-.15-1.83-.474-3.188-2.122-3.188-4.1z" fill="#d5dbe1"/></g><g><path d="m26.75 9.875v-2.125l-2.5 2.5v2.5h2.125v-2.5z" fill="#d5dbe1"/></g><g><path d="m8.875 27.25v-1.5h-2.125v1.5c0 1.105.895 2 2 2h2.125c-1.105 0-2-.895-2-2z" fill="#d5dbe1"/></g><g><path d="m6.75 25h14.5v1.5h-14.5z"/></g><g><path d="m19.25 30h-10.5c-1.517 0-2.75-1.233-2.75-2.75v-18.5c0-1.517 1.233-2.75 2.75-2.75h10.5c1.517 0 2.75 1.233 2.75 2.75h-1.5c0-.689-.561-1.25-1.25-1.25h-10.5c-.689 0-1.25.561-1.25 1.25v18.5c0 .689.561 1.25 1.25 1.25h10.5c.689 0 1.25-.561 1.25-1.25v-3.5h1.5v3.5c0 1.517-1.233 2.75-2.75 2.75z"/></g><g><path d="m21 21c-2.757 0-5-2.243-5-5s2.243-5 5-5v1.5c-1.93 0-3.5 1.57-3.5 3.5s1.57 3.5 3.5 3.5 3.5-1.57 3.5-3.5h1.5c0 2.757-2.243 5-5 5z"/></g><g><path d="m20.379 13.75h4.243v1.5h-4.243z" transform="matrix(.707 -.707 .707 .707 -3.663 20.157)"/></g><g><path d="m26.75 13.5h-2.5c-.414 0-.75-.336-.75-.75v-2.5c0-.199.079-.39.22-.53l2.5-2.5c.214-.215.538-.279.817-.163.28.116.463.39.463.693v1.75h1.75c.303 0 .577.183.693.463s.052.603-.163.817l-2.5 2.5c-.14.141-.331.22-.53.22zm-1.75-1.5h1.439l1-1h-.689c-.414 0-.75-.336-.75-.75v-.689l-1 1z"/></g><g><path d="m2 28.5h32v1.5h-32z"/></g></svg>