<svg id="line" enable-background="new 0 0 36 36" height="512" viewBox="0 0 36 36" width="512" xmlns="http://www.w3.org/2000/svg"><g><path d="m8.377 31.833c6.917 0 11.667 3.583 15 3.583s10.333-1.916 10.333-17.249-9.417-17.584-13.083-17.584c-17.167 0-24.5 31.25-12.25 31.25z" fill="#efefef"/></g><g><path d="m27.467 2.967h1v2h-1z" fill="#a4afc1" transform="matrix(.707 -.707 .707 .707 5.383 20.934)"/></g><g><path d="m31.533 7.033h1v2h-1z" fill="#a4afc1" transform="matrix(.707 -.707 .707 .707 3.699 24.999)"/></g><g><path d="m30.856 3.467h2v1h-2z" fill="#a4afc1" transform="matrix(.707 -.707 .707 .707 6.525 23.688)"/></g><g><path d="m29.25 20.25v-.922c0-.53-.211-1.039-.586-1.414l-1.414-1.414v-2.938c0-1.017-.31-2.01-.889-2.846l-1.361-1.966-1.361 1.966c-.579.836-.889 1.829-.889 2.846v2.938l-1.414 1.414c-.375.375-.586.884-.586 1.414v.922z" fill="#f3f3f1"/></g><g><path d="m21.25 25.75v1.25c0 1.105-.895 2-2 2h-10.5c-1.105 0-2-.895-2-1.75v-1.5z" fill="#f3f3f1"/></g><g><path d="m20.75 20.25v-.922c0-.485.183-.947.5-1.31v-9.268c0-1.105-.895-2-2-2h-10.5c-1.105 0-2 .895-2 2v17h14.5v-5.5z" fill="#2fdf84"/></g><g><path d="m11 6.75h-2.25c-1.105 0-2 .895-2 2v17h2.25v-17c0-1.105.895-2 2-2z" fill="#00b871"/></g><g><path d="m23.461 17.914 1.414-1.414v-2.938c0-1.017.31-2.01.889-2.846l.298-.431-1.062-1.535-1.361 1.966c-.579.836-.889 1.829-.889 2.846v2.938l-1.414 1.414c-.375.375-.586.884-.586 1.414v.922h2.125v-.922c0-.53.211-1.039.586-1.414z" fill="#d5dbe1"/></g><g><path d="m8.875 27.25v-1.5h-2.125v1.5c0 .855.895 1.75 2 1.75h2.125c-1.105 0-2-.895-2-1.75z" fill="#d5dbe1"/></g><g><path d="m29.25 21h-8.5c-.414 0-.75-.336-.75-.75v-.921c0-.735.286-1.425.806-1.945l1.194-1.195v-2.627c0-1.174.354-2.306 1.021-3.273l1.362-1.966c.279-.405.953-.405 1.232 0l1.361 1.966c.67.967 1.024 2.099 1.024 3.273v2.627l1.194 1.194c.52.52.806 1.21.806 1.945v.921c0 .415-.336.751-.75.751zm-7.75-1.5h7v-.171c0-.334-.13-.648-.366-.884l-1.414-1.415c-.141-.141-.22-.332-.22-.53v-2.938c0-.868-.262-1.705-.756-2.419l-.744-1.076-.745 1.075c-.493.714-.755 1.551-.755 2.419v2.939c0 .199-.079.39-.22.53l-1.414 1.414c-.236.236-.366.55-.366.884z"/></g><g><path d="m26.5 20.25h1.5v2h-1.5z"/></g><g><path d="m22 20.25h1.5v2h-1.5z"/></g><g><path d="m6.75 25h14.5v1.5h-14.5z"/></g><g><path d="m19.25 30h-10.5c-1.517 0-2.75-1.233-2.75-2.75v-18.5c0-1.517 1.233-2.75 2.75-2.75h10.5c1.517 0 2.75 1.233 2.75 2.75v.75h-1.5v-.75c0-.689-.561-1.25-1.25-1.25h-10.5c-.689 0-1.25.561-1.25 1.25v18.5c0 .689.561 1.25 1.25 1.25h10.5c.689 0 1.25-.561 1.25-1.25v-3.25h1.5v3.25c0 1.517-1.233 2.75-2.75 2.75z"/></g><g><path d="m2 28.5h32v1.5h-32z"/></g></svg>