<svg id="line" enable-background="new 0 0 36 36" height="512" viewBox="0 0 36 36" width="512" xmlns="http://www.w3.org/2000/svg"><g><path d="m8.377 31.833c6.917 0 11.667 3.583 15 3.583s10.333-1.916 10.333-17.249-9.417-17.584-13.083-17.584c-17.167 0-24.5 31.25-12.25 31.25z" fill="#efefef"/></g><g><path d="m24.555 3.967h1v2h-1z" fill="#a4afc1" transform="matrix(.707 -.707 .707 .707 3.826 19.172)"/></g><g><path d="m28.621 8.033h1v2h-1z" fill="#a4afc1" transform="matrix(.707 -.707 .707 .707 2.142 23.238)"/></g><g><path d="m23.878 8.533h2v1h-2z" fill="#a4afc1" transform="matrix(.707 -.707 .707 .707 .9 20.238)"/></g><g><path d="m27.944 4.467h2v1h-2z" fill="#a4afc1" transform="matrix(.707 -.707 .707 .707 4.965 21.922)"/></g><g><path d="m8.75 24.75h4.5v4.5h-4.5z" fill="#f3f3f1"/></g><g><path d="m24.75 14.75h4.5v14.5h-4.5z" fill="#f3f3f1"/></g><g><path d="m20.25 6.75c-2.728.051-5.732 1.669-7.593 3.821l-2.835 3.147 3.461 3.461 3.147-2.835c2.151-1.862 3.769-4.866 3.82-7.594z" fill="#2fdf84"/></g><g><path d="m13.283 17.178 2.313 2.324c1.279-1.632 1.379-3.901 1.411-5.698z" fill="#f3f3f1"/></g><g><path d="m9.788 13.683-2.324-2.313c1.632-1.279 3.901-1.379 5.698-1.411z" fill="#f3f3f1"/></g><g><path d="m10.104 19.115c-.543.544-3.354 1.385-3.354 1.385s.842-2.811 1.385-3.354c.544-.544 1.425-.544 1.969 0s.544 1.425 0 1.969z" fill="#2fdf84"/></g><g><path d="m20.25 29.25h-2.5c-.552 0-1-.448-1-1v-7.5c0-.552.448-1 1-1h2.5c.552 0 1 .448 1 1v7.5c0 .552-.448 1-1 1z" fill="#f3f3f1"/></g><g><path d="m12.072 13.717 2.835-3.147c1.349-1.559 3.3-2.829 5.309-3.434.009-.129.031-.259.034-.386-2.728.051-5.732 1.669-7.593 3.82l-2.835 3.147 3.461 3.461 1.184-1.066z" fill="#00b871"/></g><g><path d="m10.235 17.343c-.046-.065-.073-.139-.131-.197-.544-.544-1.425-.544-1.969 0-.543.544-1.385 3.354-1.385 3.354s1.523-.457 2.544-.914c.253-.749.625-1.757.941-2.243z" fill="#00b871"/></g><g><path d="m8.75 24.75h2.25v4.5h-2.25z" fill="#d5dbe1"/></g><g><path d="m15.533 17.178 1.352-1.225c.089-.744.11-1.479.122-2.149l-3.724 3.374 2.313 2.324c.349-.445.604-.94.8-1.457z" fill="#d5dbe1"/></g><g><path d="m9.714 11.37c.957-.75 2.133-1.089 3.304-1.252l.144-.159c-1.797.032-4.066.132-5.698 1.411l2.324 2.313 1.067-1.177z" fill="#d5dbe1"/></g><g><path d="m24.75 14.75h2.25v14.5h-2.25z" fill="#d5dbe1"/></g><g><path d="m19 28.25v-7.5c0-.552.448-1 1-1h-2.25c-.552 0-1 .448-1 1v7.5c0 .552.448 1 1 1h2.25c-.552 0-1-.448-1-1z" fill="#d5dbe1"/></g><g><path d="m13.25 30h-4.5c-.414 0-.75-.336-.75-.75v-4.5c0-.414.336-.75.75-.75h4.5c.414 0 .75.336.75.75v4.5c0 .414-.336.75-.75.75zm-3.75-1.5h3v-3h-3z"/></g><g><path d="m21.25 30h-4.5c-.2 0-.391-.08-.532-.222s-.22-.333-.218-.533l.04-6.41 1.5.01-.035 5.655h2.995v-8h-1.56v-1.5h2.31c.414 0 .75.336.75.75v9.5c0 .414-.336.75-.75.75z"/></g><g><path d="m29.25 30h-4.5c-.414 0-.75-.336-.75-.75v-14.5c0-.414.336-.75.75-.75h4.5c.414 0 .75.336.75.75v14.5c0 .414-.336.75-.75.75zm-3.75-1.5h3v-13h-3z"/></g><g><path d="m13.283 17.928c-.192 0-.384-.074-.53-.22l-3.46-3.461c-.282-.282-.294-.736-.027-1.032l2.835-3.147c2.087-2.413 5.285-4.014 8.135-4.068.202.003.4.075.544.22.144.144.224.341.22.544-.054 2.85-1.655 6.047-4.08 8.146l-3.136 2.825c-.142.129-.322.193-.501.193zm-2.427-4.238 2.454 2.454 2.618-2.358c1.859-1.609 3.194-4.016 3.505-6.219-2.203.31-4.608 1.645-6.208 3.494z"/></g><g><path d="m15.596 20.252c-.199 0-.391-.079-.532-.221l-2.313-2.324 1.063-1.059 1.654 1.662c.669-1.309.761-2.94.789-4.521l1.5.026c-.036 2.05-.19 4.385-1.571 6.148-.132.169-.331.273-.546.286-.015.003-.03.003-.044.003z"/></g><g><path d="m9.258 14.215-2.324-2.313c-.152-.152-.232-.361-.219-.576.013-.214.117-.414.286-.546 1.762-1.38 4.097-1.535 6.147-1.571l.026 1.5c-1.581.028-3.212.119-4.521.789l1.662 1.654z"/></g><g><path d="m6.75 21.25c-.196 0-.388-.077-.53-.22-.195-.195-.267-.481-.188-.745.269-.899.961-3.058 1.573-3.669.835-.834 2.194-.835 3.029 0s.835 2.194 0 3.03c-.612.612-2.77 1.304-3.669 1.573-.071.02-.143.031-.215.031zm2.37-3.761c-.165 0-.329.063-.454.188-.161.172-.451.852-.737 1.645.792-.286 1.472-.576 1.646-.737.25-.25.249-.657-.001-.908-.125-.126-.29-.188-.454-.188z"/></g><g><path d="m2 28.5h32v1.5h-32z"/></g></svg>