<svg id="line" enable-background="new 0 0 36 36" height="512" viewBox="0 0 36 36" width="512" xmlns="http://www.w3.org/2000/svg"><g><path d="m8.377 4.167c6.917 0 11.667-3.583 15-3.583s10.333 1.916 10.333 17.249-9.417 17.583-13.083 17.583c-17.167.001-24.5-31.249-12.25-31.249z" fill="#efefef"/></g><g><path d="m11 7.5c-.827 0-1.5-.673-1.5-1.5s.673-1.5 1.5-1.5 1.5.673 1.5 1.5-.673 1.5-1.5 1.5zm0-2c-.275 0-.5.224-.5.5s.225.5.5.5.5-.224.5-.5-.225-.5-.5-.5z" fill="#a4afc1"/></g><g><path d="m15.056 30.5h2v1h-2z" fill="#a4afc1" transform="matrix(.707 -.707 .707 .707 -17.218 20.433)"/></g><g><path d="m19.444 30h1v2h-1z" fill="#a4afc1" transform="matrix(.707 -.707 .707 .707 -16.079 23.183)"/></g><g><path d="m16.383 12.764c-3.123 0-6.128 1.237-8.345 3.454l-.035.035 4.677.67z" fill="#f3f3f1"/></g><g><path d="m12.545 26.857c-.939.939-5.795 2.393-5.795 2.393s1.454-4.856 2.393-5.795 2.463-.939 3.402 0c.94.939.94 2.462 0 3.402z" fill="#2fdf84"/></g><g><path d="m29.25 22.5c0-2.362-2.184-4.214-4.643-3.647-1.386.32-2.495 1.47-2.778 2.864-.329 1.621.391 3.094 1.599 3.893.532.352.821.975.821 1.613v1.285c0 .488.258.741.577.741h1.346c.319 0 .577-.258.577-.577v-1.425c0-.644.281-1.281.818-1.636 1.013-.667 1.683-1.807 1.683-3.111z" fill="#f3f3f1"/></g><g><ellipse cx="23.133" cy="12.867" fill="#f3f3f1" rx="1.75" ry="1.75" transform="matrix(.707 -.707 .707 .707 -2.323 20.126)"/></g><g><path d="m23.632 19.237c3.079-2.864 5.332-7.183 5.592-11.381.038-.614-.467-1.119-1.081-1.081-4.419.274-8.992 2.744-11.838 6.074l-4.077 4.567c-.353.396-.336.998.039 1.373l4.943 4.943c.375.375.977.392 1.373.039l3.852-3.439c.316-.445.723-.823 1.197-1.095zm-1.737-7.607c.683-.683 1.791-.683 2.475 0s.683 1.791 0 2.475-1.791.683-2.475 0-.683-1.792 0-2.475z" fill="#2fdf84"/></g><g><path d="m10.253 16.253.035-.035c1.617-1.617 3.656-2.706 5.851-3.18l.244-.274c-3.123 0-6.128 1.237-8.345 3.454l-.035.035 4.677.67.255-.286z" fill="#d5dbe1"/></g><g><path d="m11.393 23.455c.173-.173.37-.303.576-.413-.909-.484-2.06-.354-2.826.413-.939.939-2.393 5.795-2.393 5.795s1.193-.358 2.511-.832c.461-1.429 1.437-4.268 2.132-4.963z" fill="#00b871"/></g><g><path d="m24.145 14.105c-.683-.683-.683-1.791 0-2.475.035-.035.075-.06.112-.092-.688-.582-1.714-.557-2.362.092-.683.683-.683 1.791 0 2.475.648.648 1.675.674 2.362.092-.037-.032-.077-.057-.112-.092z" fill="#d5dbe1"/></g><g><path d="m26.375 28.509v-1.285c0-.638-.289-1.261-.821-1.613-1.208-.8-1.928-2.272-1.599-3.893.269-1.328 1.292-2.426 2.586-2.804-.598-.174-1.252-.217-1.933-.06-1.386.32-2.495 1.47-2.778 2.864-.329 1.621.391 3.094 1.599 3.893.532.352.821.975.821 1.613v1.285c0 .488.258.741.577.741h1.346c.156 0 .297-.063.401-.164-.12-.124-.199-.313-.199-.577z" fill="#d5dbe1"/></g><g><path d="m14.392 18.79c-.375-.375-.392-.977-.039-1.373l4.077-4.567c2.523-2.952 6.402-5.22 10.328-5.89-.178-.118-.382-.199-.615-.185-4.419.274-8.992 2.744-11.838 6.074l-4.077 4.567c-.353.396-.336.998.039 1.373l4.943 4.943c.375.375.977.392 1.373.039l.418-.373z" fill="#00b871"/></g><g><path d="m17.88 25.15c-.192 0-.384-.074-.53-.22l-6.28-6.28c-.281-.281-.294-.733-.029-1.029l4.7-5.27c.049-.057.077-.089.109-.122 3.377-3.879 8.645-6.343 13.418-6.229.4.01.723.332.732.733.07 3.117-.955 6.492-2.889 9.502l-1.262-.811c1.62-2.522 2.545-5.306 2.645-7.918-4.086.163-8.642 2.408-11.549 5.746-.055.063-.083.095-.115.128l-4.199 4.71 5.277 5.277.422-.377 1 1.118-.95.85c-.143.128-.321.192-.5.192z"/></g><g><path d="m12.573 17.665-4.677-.67c-.281-.04-.516-.236-.605-.505-.09-.269-.02-.566.182-.767 2.369-2.369 5.604-3.708 8.91-3.708v1.5c-2.396 0-4.75.799-6.654 2.229l3.058.438z"/></g><g><path d="m6.75 30c-.196 0-.388-.077-.53-.22-.195-.195-.268-.481-.188-.746.252-.841 1.561-5.089 2.582-6.11 1.191-1.192 3.271-1.192 4.463 0 1.229 1.23 1.229 3.232 0 4.462-1.021 1.021-5.27 2.33-6.111 2.582-.071.022-.144.032-.216.032zm4.095-6.5c-.424 0-.848.162-1.171.484-.436.436-1.187 2.364-1.771 4.112 1.748-.584 3.677-1.335 4.112-1.771.645-.646.645-1.696 0-2.341-.323-.322-.746-.484-1.17-.484z"/></g><g><path d="m26.173 30h-1.346c-.659 0-1.327-.512-1.327-1.491v-1.286c0-.411-.186-.79-.485-.987-1.535-1.017-2.289-2.849-1.92-4.668.34-1.677 1.684-3.062 3.344-3.445 1.372-.314 2.781-.005 3.861.855 1.081.86 1.7 2.144 1.7 3.523 0 1.506-.755 2.904-2.019 3.738-.297.196-.481.583-.481 1.01v1.424c0 .732-.596 1.327-1.327 1.327zm-1.173-1.5h1v-1.251c0-.938.432-1.784 1.155-2.262.842-.556 1.345-1.486 1.345-2.487 0-.919-.413-1.776-1.134-2.349-.722-.573-1.666-.78-2.59-.567-1.098.253-1.986 1.17-2.211 2.282-.251 1.236.238 2.431 1.277 3.119.725.479 1.158 1.316 1.158 2.238z"/></g><g><path d="m23.133 15.367c-.668 0-1.296-.26-1.768-.732-.975-.975-.975-2.561 0-3.536.942-.944 2.589-.945 3.535 0 .975.975.975 2.561 0 3.536-.472.472-1.1.732-1.767.732zm0-3.499c-.268 0-.519.104-.707.292-.39.39-.39 1.024 0 1.415.377.378 1.037.378 1.414 0 .39-.39.39-1.024 0-1.415-.189-.188-.441-.292-.707-.292z"/></g></svg>