<svg id="line" enable-background="new 0 0 36 36" height="512" viewBox="0 0 36 36" width="512" xmlns="http://www.w3.org/2000/svg"><g><path d="m4.167 8.377c0 6.917-3.583 11.667-3.583 15s1.916 10.333 17.249 10.333 17.583-9.417 17.583-13.083c.001-17.167-31.249-24.5-31.249-12.25z" fill="#efefef"/></g><g><path d="m7.555 3.467h1v2h-1z" fill="#a4afc1" transform="matrix(.707 -.707 .707 .707 -.799 7.004)"/></g><g><path d="m11.621 7.533h1v2h-1z" fill="#a4afc1" transform="matrix(.707 -.707 .707 .707 -2.484 11.07)"/></g><g><path d="m6.878 8.033h2v1h-2z" fill="#a4afc1" transform="matrix(.707 -.707 .707 .707 -3.726 8.07)"/></g><g><path d="m10.944 3.967h2v1h-2z" fill="#a4afc1" transform="matrix(.707 -.707 .707 .707 .34 9.755)"/></g><g><path d="m16.383 12.764c-3.123 0-6.128 1.237-8.345 3.454l-.035.035 4.677.67z" fill="#f3f3f1"/></g><g><path d="m12.545 26.857c-.939.939-5.795 2.393-5.795 2.393s1.454-4.856 2.393-5.795 2.463-.939 3.402 0c.94.939.94 2.462 0 3.402z" fill="#2fdf84"/></g><g><ellipse cx="23.133" cy="12.867" fill="#f3f3f1" rx="1.75" ry="1.75" transform="matrix(.707 -.707 .707 .707 -2.323 20.126)"/></g><g><ellipse cx="21" cy="25" fill="#f3f3f1" rx="4.25" ry="4.25" transform="matrix(.707 -.707 .707 .707 -11.527 22.172)"/></g><g><path d="m17.995 21.995c1.051-1.051 2.515-1.432 3.869-1.151l1.286-1.148c3.609-3.084 6.207-8.196 6.096-12.942-4.746-.11-9.858 2.487-12.942 6.096l-4.706 5.272 5.42 5.42c.207-.564.525-1.095.977-1.547zm3.9-10.365c.683-.683 1.791-.683 2.475 0 .683.683.683 1.791 0 2.475-.683.683-1.792.683-2.475 0s-.683-1.792 0-2.475z" fill="#2fdf84"/></g><g><path d="m21 25 3-3z" fill="#f3f3f1"/></g><g><path d="m26.75 21.75h-2.5v-2.5l2.5-2.5v2.5h2.5z" fill="#2fdf84"/></g><g><path d="m21 25 3-3z" fill="#d5dbe1"/></g><g><path d="m10.253 16.253.035-.035c1.617-1.617 3.656-2.706 5.851-3.18l.244-.274c-3.123 0-6.128 1.237-8.345 3.454l-.035.035 4.677.67.255-.286z" fill="#d5dbe1"/></g><g><path d="m11.393 23.455c.173-.173.37-.303.576-.413-.909-.484-2.06-.354-2.826.413-.939.939-2.393 5.795-2.393 5.795s1.193-.358 2.511-.832c.461-1.429 1.437-4.268 2.132-4.963z" fill="#00b871"/></g><g><path d="m24.145 14.105c-.683-.683-.683-1.791 0-2.475.035-.035.075-.06.112-.092-.688-.582-1.714-.557-2.362.092-.683.683-.683 1.791 0 2.475.648.648 1.675.674 2.362.092-.036-.032-.077-.057-.112-.092z" fill="#d5dbe1"/></g><g><path d="m23.25 25 3-3z" fill="#d5dbe1"/></g><g><path d="m20.12 28.005c-1.66-1.66-1.66-4.351 0-6.01.556-.556 1.232-.909 1.943-1.093-1.409-.364-2.964-.011-4.068 1.093-1.66 1.66-1.66 4.351 0 6.01 1.103 1.103 2.659 1.456 4.068 1.093-.711-.184-1.387-.536-1.943-1.093z" fill="#d5dbe1"/></g><g><path d="m13.724 18.122 4.706-5.272c2.627-3.074 6.725-5.408 10.815-5.966-.001-.043.003-.087.002-.131-4.746-.11-9.858 2.487-12.942 6.096l-4.706 5.272 5.42 5.42c.175-.478.45-.922.8-1.325z" fill="#00b871"/></g><g><path d="m26.75 18.875v-2.125l-2.5 2.5v2.5h2.125v-2.5z" fill="#00b871"/></g><g><path d="m14.46 22.04-3.39-3.39c-.281-.281-.294-.732-.03-1.029l4.805-5.387c3.382-3.885 8.644-6.366 13.423-6.234.4.01.723.332.732.732.059 2.466-.567 5.094-1.81 7.602l-1.344-.666c1.01-2.039 1.574-4.153 1.648-6.161-4.087.162-8.642 2.408-11.55 5.746-.055.064-.083.095-.115.128l-4.199 4.71 2.889 2.889z"/></g><g><path d="m12.574 17.665-4.677-.67c-.282-.04-.517-.237-.606-.508s-.017-.568.186-.769c2.4-2.4 5.552-3.705 8.906-3.705v1.5c-2.437 0-4.752.782-6.66 2.228l3.064.439z"/></g><g><path d="m6.75 30c-.196 0-.388-.077-.53-.22-.195-.195-.267-.481-.188-.746.251-.841 1.56-5.089 2.582-6.11 1.193-1.192 3.271-1.191 4.462 0 .596.597.924 1.389.924 2.232s-.328 1.635-.924 2.231c-1.021 1.021-5.27 2.33-6.11 2.582-.071.021-.144.031-.216.031zm4.095-6.499c-.424 0-.848.161-1.171.484-.436.436-1.187 2.364-1.771 4.112 1.748-.584 3.676-1.335 4.112-1.771.646-.646.646-1.696 0-2.341-.323-.323-.746-.484-1.17-.484z"/></g><g><path d="m23.133 15.366c-.641 0-1.281-.244-1.768-.731-.974-.975-.974-2.561 0-3.536.975-.975 2.561-.975 3.536 0 .974.975.974 2.561 0 3.536-.488.488-1.128.731-1.768.731zm0-3.498c-.256 0-.513.097-.708.292-.39.39-.39 1.024 0 1.415.389.39 1.024.39 1.414 0s.39-1.024 0-1.414c-.194-.196-.45-.293-.706-.293z"/></g><g><path d="m21 30c-2.757 0-5-2.243-5-5s2.243-5 5-5v1.5c-1.93 0-3.5 1.57-3.5 3.5s1.57 3.5 3.5 3.5 3.5-1.57 3.5-3.5h1.5c0 2.757-2.243 5-5 5z"/></g><g><path d="m20.379 22.75h4.243v1.5h-4.243z" transform="matrix(.707 -.707 .707 .707 -10.027 22.793)"/></g><g><path d="m26.75 22.5h-2.5c-.414 0-.75-.336-.75-.75v-2.5c0-.199.079-.39.22-.53l2.5-2.5c.215-.215.538-.279.817-.163.28.116.463.39.463.693v1.75h1.75c.303 0 .577.183.693.463s.052.603-.163.817l-2.5 2.5c-.14.141-.331.22-.53.22zm-1.75-1.5h1.439l1-1h-.689c-.414 0-.75-.336-.75-.75v-.689l-1 1z"/></g></svg>