<svg id="line" enable-background="new 0 0 36 36" height="512" viewBox="0 0 36 36" width="512" xmlns="http://www.w3.org/2000/svg"><g><path d="m8.377 31.833c6.917 0 11.667 3.583 15 3.583s10.333-1.916 10.333-17.249-9.417-17.584-13.083-17.584c-17.167 0-24.5 31.25-12.25 31.25z" fill="#efefef"/></g><g><path d="m7.555 3.467h1v2h-1z" fill="#a4afc1" transform="matrix(.707 -.707 .707 .707 -.799 7.004)"/></g><g><path d="m11.621 7.533h1v2h-1z" fill="#a4afc1" transform="matrix(.707 -.707 .707 .707 -2.484 11.07)"/></g><g><path d="m6.878 8.033h2v1h-2z" fill="#a4afc1" transform="matrix(.707 -.707 .707 .707 -3.726 8.07)"/></g><g><path d="m10.944 3.967h2v1h-2z" fill="#a4afc1" transform="matrix(.707 -.707 .707 .707 .34 9.755)"/></g><g><path d="m16.383 12.764c-3.123 0-6.128 1.237-8.345 3.454l-.035.035 4.677.67z" fill="#f3f3f1"/></g><g><path d="m12.545 26.857c-.939.939-5.795 2.393-5.795 2.393s1.454-4.856 2.393-5.795 2.463-.939 3.402 0c.94.939.94 2.462 0 3.402z" fill="#2fdf84"/></g><g><ellipse cx="23.133" cy="12.867" fill="#f3f3f1" rx="1.75" ry="1.75" transform="matrix(.707 -.707 .707 .707 -2.323 20.126)"/></g><g><circle cx="23.5" cy="23.5" fill="#f3f3f1" r="5.75"/></g><g><path d="m17.75 23.5c0-3.176 2.574-5.75 5.75-5.75.488 0 .959.067 1.412.182 2.658-3.072 4.426-7.249 4.335-11.178-4.746-.11-9.858 2.487-12.942 6.096l-4.706 5.272 6.219 6.219c-.04-.276-.068-.555-.068-.841zm4.145-11.87c.683-.683 1.791-.683 2.475 0 .683.683.683 1.791 0 2.475-.683.683-1.792.683-2.475 0s-.683-1.792 0-2.475z" fill="#2fdf84"/></g><g><path d="m10.253 16.253.035-.035c1.617-1.617 3.656-2.706 5.851-3.18l.244-.274c-3.123 0-6.128 1.237-8.345 3.454l-.035.035 4.677.67.255-.286z" fill="#d5dbe1"/></g><g><path d="m11.393 23.455c.173-.173.37-.303.576-.413-.909-.484-2.06-.354-2.826.413-.939.939-2.393 5.795-2.393 5.795s1.193-.358 2.511-.832c.461-1.429 1.437-4.268 2.132-4.963z" fill="#00b871"/></g><g><path d="m24.145 14.105c-.683-.683-.683-1.791 0-2.475.035-.035.075-.06.112-.092-.688-.582-1.714-.557-2.362.092-.683.683-.683 1.791 0 2.475.648.648 1.675.674 2.362.092-.036-.032-.077-.057-.112-.092z" fill="#d5dbe1"/></g><g><path d="m19.875 23.5c0-2.812 2.02-5.149 4.688-5.648-.345-.065-.699-.102-1.063-.102-3.176 0-5.75 2.574-5.75 5.75s2.574 5.75 5.75 5.75c.363 0 .718-.038 1.063-.102-2.668-.499-4.688-2.836-4.688-5.648z" fill="#d5dbe1"/></g><g><path d="m17.883 22.28-4.158-4.158 4.706-5.272c2.626-3.073 6.723-5.407 10.812-5.966-.001-.043.006-.088.005-.131-4.746-.11-9.858 2.487-12.942 6.096l-4.706 5.272 6.219 6.219c-.04-.275-.068-.554-.068-.841-.001-.418.046-.825.132-1.219z" fill="#00b871"/></g><g><path d="m24.527 17.857c.128.024.259.043.384.074.042-.048.079-.102.12-.151-.17.018-.338.045-.504.077z" fill="#00b871"/></g><g><path d="m23.5 30c-3.584 0-6.5-2.916-6.5-6.5s2.916-6.5 6.5-6.5 6.5 2.916 6.5 6.5-2.916 6.5-6.5 6.5zm0-11.5c-2.757 0-5 2.243-5 5s2.243 5 5 5 5-2.243 5-5-2.243-5-5-5z"/></g><g><path d="m21 18.02h1.5v10.96h-1.5z"/></g><g><path d="m24.5 18.02h1.5v10.96h-1.5z"/></g><g><path d="m18.02 21h10.96v1.5h-10.96z"/></g><g><path d="m18.02 24.5h10.96v1.5h-10.96z"/></g><g><path d="m14.46 22.04-3.39-3.39c-.281-.281-.294-.732-.03-1.029l4.805-5.387c3.382-3.885 8.655-6.366 13.423-6.234.4.01.723.332.732.732.07 2.947-.853 6.156-2.599 9.037l-1.283-.777c1.453-2.397 2.284-5.026 2.377-7.485-4.087.162-8.643 2.408-11.55 5.746-.055.064-.083.095-.115.128l-4.199 4.71 2.889 2.889z"/></g><g><path d="m12.574 17.665-4.677-.67c-.282-.04-.517-.237-.606-.508s-.017-.568.186-.769c2.4-2.4 5.552-3.705 8.906-3.705v1.5c-2.437 0-4.752.782-6.66 2.228l3.064.439z"/></g><g><path d="m6.75 30c-.196 0-.388-.077-.53-.22-.195-.195-.267-.481-.188-.746.251-.841 1.56-5.089 2.582-6.11 1.193-1.192 3.271-1.191 4.462 0 .596.597.924 1.389.924 2.232s-.328 1.635-.924 2.231c-1.021 1.021-5.27 2.33-6.11 2.582-.071.021-.144.031-.216.031zm4.095-6.499c-.424 0-.848.161-1.171.484-.436.436-1.187 2.364-1.771 4.112 1.748-.584 3.676-1.335 4.112-1.771.646-.646.646-1.696 0-2.341-.323-.323-.746-.484-1.17-.484z"/></g><g><path d="m23.133 15.366c-.641 0-1.281-.244-1.768-.731-.974-.975-.974-2.561 0-3.536.975-.975 2.561-.975 3.536 0 .974.975.974 2.561 0 3.536-.488.488-1.128.731-1.768.731zm0-3.498c-.256 0-.513.097-.708.292-.39.39-.39 1.024 0 1.415.389.39 1.025.39 1.414 0 .39-.39.39-1.024 0-1.414-.194-.196-.45-.293-.706-.293z"/></g></svg>