<svg id="line" enable-background="new 0 0 36 36" height="512" viewBox="0 0 36 36" width="512" xmlns="http://www.w3.org/2000/svg"><g><path d="m27.623 4.167c-6.917 0-11.667-3.583-15-3.583s-10.333 1.916-10.333 17.249 9.417 17.583 13.083 17.583c17.167.001 24.5-31.249 12.25-31.249z" fill="#efefef"/></g><g><path d="m11 7.5c-.827 0-1.5-.673-1.5-1.5s.673-1.5 1.5-1.5 1.5.673 1.5 1.5-.673 1.5-1.5 1.5zm0-2c-.275 0-.5.224-.5.5s.225.5.5.5.5-.224.5-.5-.225-.5-.5-.5z" fill="#a4afc1"/></g><g><path d="m15.056 30.5h2v1h-2z" fill="#a4afc1" transform="matrix(.707 -.707 .707 .707 -17.218 20.433)"/></g><g><path d="m19.444 30h1v2h-1z" fill="#a4afc1" transform="matrix(.707 -.707 .707 .707 -16.079 23.183)"/></g><g><circle cx="23.5" cy="23.5" fill="#f3f3f1" r="5.75"/></g><g><path d="m16.383 12.764c-3.123 0-6.128 1.237-8.345 3.454l-.035.035 4.677.67z" fill="#f3f3f1"/></g><g><path d="m12.545 26.857c-.939.939-5.795 2.393-5.795 2.393s1.454-4.856 2.393-5.795 2.463-.939 3.402 0c.94.939.94 2.462 0 3.402z" fill="#2fdf84"/></g><g><ellipse cx="23.133" cy="12.867" fill="#f3f3f1" rx="1.75" ry="1.75" transform="matrix(.707 -.707 .707 .707 -2.323 20.126)"/></g><g><path d="m17.75 23.5c0-3.176 2.574-5.75 5.75-5.75.482 0 .947.066 1.394.177 2.415-2.787 4.107-6.472 4.33-10.071.038-.614-.467-1.119-1.081-1.081-4.419.274-8.992 2.744-11.838 6.074l-4.077 4.567c-.353.396-.336.998.039 1.373l4.943 4.943c.158.158.359.238.565.268-.014-.165-.025-.331-.025-.5zm4.145-11.87c.683-.683 1.791-.683 2.475 0s.683 1.791 0 2.475-1.791.683-2.475 0-.683-1.792 0-2.475z" fill="#2fdf84"/></g><g><path d="m10.253 16.253.035-.035c1.617-1.617 3.656-2.706 5.851-3.18l.244-.274c-3.123 0-6.128 1.237-8.345 3.454l-.035.035 4.677.67.255-.286z" fill="#d5dbe1"/></g><g><path d="m11.393 23.455c.173-.173.37-.303.576-.413-.909-.484-2.06-.354-2.826.413-.939.939-2.393 5.795-2.393 5.795s1.193-.358 2.511-.832c.461-1.429 1.437-4.268 2.132-4.963z" fill="#00b871"/></g><g><path d="m24.145 14.105c-.683-.683-.683-1.791 0-2.475.035-.035.075-.06.112-.092-.688-.582-1.714-.557-2.362.092-.683.683-.683 1.791 0 2.475.648.648 1.675.674 2.362.092-.037-.032-.077-.057-.112-.092z" fill="#d5dbe1"/></g><g><path d="m17.883 22.28-3.49-3.49c-.375-.375-.392-.977-.039-1.373l4.077-4.567c2.523-2.952 6.402-5.22 10.328-5.89-.178-.118-.382-.199-.615-.185-4.419.274-8.992 2.744-11.838 6.074l-4.077 4.567c-.353.396-.336.998.039 1.373l4.943 4.943c.158.158.359.238.565.268-.014-.165-.025-.332-.025-.501-.001-.418.046-.825.132-1.219z" fill="#00b871"/></g><g><path d="m19.875 23.5c0-2.812 2.02-5.149 4.687-5.648-.345-.065-.699-.102-1.062-.102-3.176 0-5.75 2.574-5.75 5.75s2.574 5.75 5.75 5.75c.363 0 .718-.038 1.062-.102-2.667-.499-4.687-2.836-4.687-5.648z" fill="#d5dbe1"/></g><g><path d="m23.5 30c-3.584 0-6.5-2.916-6.5-6.5s2.916-6.5 6.5-6.5 6.5 2.916 6.5 6.5-2.916 6.5-6.5 6.5zm0-11.5c-2.757 0-5 2.243-5 5s2.243 5 5 5 5-2.243 5-5-2.243-5-5-5z"/></g><g><path d="m22.5 26c-.173 0-.347-.06-.488-.181l-1.75-1.5.977-1.139 1.202 1.031 2.76-2.972 1.1 1.021-3.25 3.5c-.149.159-.35.24-.551.24z"/></g><g><path d="m14.46 22.04-3.391-3.39c-.281-.281-.294-.733-.029-1.029l4.7-5.27c.049-.057.077-.089.109-.122 3.378-3.879 8.629-6.343 13.419-6.229.4.01.723.332.732.732.07 2.947-.853 6.157-2.599 9.037l-1.283-.777c1.453-2.397 2.285-5.026 2.377-7.485-4.087.162-8.642 2.408-11.55 5.746-.055.063-.083.095-.115.128l-4.199 4.71 2.89 2.889z"/></g><g><path d="m12.573 17.665-4.677-.67c-.281-.04-.516-.236-.605-.505-.09-.269-.02-.566.182-.767 2.369-2.369 5.604-3.708 8.91-3.708v1.5c-2.396 0-4.75.799-6.654 2.229l3.058.438z"/></g><g><path d="m6.75 30c-.196 0-.388-.077-.53-.22-.195-.195-.268-.481-.188-.746.252-.841 1.561-5.089 2.582-6.11 1.191-1.192 3.271-1.192 4.463 0 1.229 1.23 1.229 3.232 0 4.462-1.021 1.021-5.27 2.33-6.111 2.582-.071.022-.144.032-.216.032zm4.095-6.5c-.424 0-.848.162-1.171.484-.436.436-1.187 2.364-1.771 4.112 1.748-.584 3.677-1.335 4.112-1.771.645-.646.645-1.696 0-2.341-.323-.322-.746-.484-1.17-.484z"/></g><g><path d="m23.133 15.367c-.668 0-1.296-.26-1.768-.732-.975-.975-.975-2.561 0-3.536.943-.944 2.59-.945 3.535 0 .975.975.975 2.561 0 3.536-.472.472-1.1.732-1.767.732zm0-3.499c-.268 0-.519.104-.707.292-.39.39-.39 1.024 0 1.415.376.378 1.036.378 1.414 0 .39-.39.39-1.024 0-1.415-.189-.188-.441-.292-.707-.292z"/></g></svg>