<svg id="line" enable-background="new 0 0 36 36" height="512" viewBox="0 0 36 36" width="512" xmlns="http://www.w3.org/2000/svg"><g><path d="m4.167 8.377c0 6.917-3.583 11.667-3.583 15s1.916 10.333 17.249 10.333 17.583-9.417 17.583-13.083c.001-17.167-31.249-24.5-31.249-12.25z" fill="#efefef"/></g><g><path d="m11 7.5c-.827 0-1.5-.673-1.5-1.5s.673-1.5 1.5-1.5 1.5.673 1.5 1.5-.673 1.5-1.5 1.5zm0-2c-.275 0-.5.224-.5.5s.225.5.5.5.5-.224.5-.5-.225-.5-.5-.5z" fill="#a4afc1"/></g><g><path d="m15.056 30.5h2v1h-2z" fill="#a4afc1" transform="matrix(.707 -.707 .707 .707 -17.218 20.433)"/></g><g><path d="m19.444 30h1v2h-1z" fill="#a4afc1" transform="matrix(.707 -.707 .707 .707 -16.079 23.183)"/></g><g><path d="m26.25 18.75c-1.23 0-2.29.737-2.75 1.793-.46-1.056-1.52-1.793-2.75-1.793-1.655 0-3 1.34-3 2.988 0 3.237 5.75 7.512 5.75 7.512s5.75-4.275 5.75-7.512c0-1.648-1.345-2.988-3-2.988z" fill="#f3f3f1"/></g><g><path d="m16.383 12.764c-3.123 0-6.128 1.237-8.345 3.454l-.035.035 4.677.67z" fill="#f3f3f1"/></g><g><path d="m12.545 26.857c-.939.939-5.795 2.393-5.795 2.393s1.454-4.856 2.393-5.795 2.463-.939 3.402 0c.94.939.94 2.462 0 3.402z" fill="#2fdf84"/></g><g><ellipse cx="23.133" cy="12.867" fill="#f3f3f1" rx="1.75" ry="1.75" transform="matrix(.707 -.707 .707 .707 -2.323 20.126)"/></g><g><path d="m17.75 21.738c0-1.648 1.345-2.988 3-2.988.914 0 1.733.408 2.282 1.05l.118-.105c3.331-2.846 5.8-7.419 6.075-11.838.038-.614-.467-1.119-1.081-1.081-4.419.274-8.992 2.744-11.838 6.074l-4.077 4.567c-.353.396-.336.998.039 1.373l4.943 4.943c.327.327.821.365 1.206.138-.403-.724-.667-1.451-.667-2.133zm4.145-10.108c.683-.683 1.791-.683 2.475 0s.683 1.791 0 2.475-1.791.683-2.475 0-.683-1.792 0-2.475z" fill="#2fdf84"/></g><g><path d="m10.253 16.253.035-.035c1.617-1.617 3.656-2.706 5.851-3.18l.244-.274c-3.123 0-6.128 1.237-8.345 3.454l-.035.035 4.677.67.255-.286z" fill="#d5dbe1"/></g><g><path d="m11.393 23.455c.173-.173.37-.303.576-.413-.909-.484-2.06-.354-2.826.413-.939.939-2.393 5.795-2.393 5.795s1.193-.358 2.511-.832c.461-1.429 1.437-4.268 2.132-4.963z" fill="#00b871"/></g><g><path d="m24.145 14.105c-.683-.683-.683-1.791 0-2.475.035-.035.075-.06.112-.092-.688-.582-1.714-.557-2.362.092-.683.683-.683 1.791 0 2.475.648.648 1.675.674 2.362.092-.037-.032-.077-.057-.112-.092z" fill="#d5dbe1"/></g><g><path d="m19.875 21.738c0-1.276.809-2.358 1.94-2.786-.332-.126-.689-.202-1.065-.202-1.655 0-3 1.34-3 2.988 0 3.237 5.75 7.512 5.75 7.512s.437-.328 1.062-.859c-1.66-1.41-4.687-4.301-4.687-6.653z" fill="#d5dbe1"/></g><g><path d="m14.392 18.79c-.375-.375-.392-.977-.039-1.373l4.077-4.567c2.523-2.952 6.402-5.22 10.328-5.89-.178-.118-.382-.199-.615-.185-4.419.274-8.992 2.744-11.838 6.074l-4.077 4.567c-.353.396-.336.998.039 1.373l4.943 4.943c.327.327.821.365 1.206.138-.315-.567-.54-1.135-.625-1.682z" fill="#00b871"/></g><g><path d="m23.5 30c-.157 0-.314-.049-.447-.148-.62-.461-6.053-4.602-6.053-8.114 0-2.061 1.683-3.738 3.75-3.738 1.063 0 2.054.446 2.75 1.194.696-.748 1.687-1.194 2.75-1.194 2.067 0 3.75 1.677 3.75 3.738 0 3.512-5.433 7.653-6.053 8.114-.133.099-.29.148-.447.148zm-2.75-10.5c-1.24 0-2.25 1.004-2.25 2.238 0 2.138 3.276 5.19 5 6.564 1.724-1.374 5-4.426 5-6.564 0-1.234-1.01-2.238-2.25-2.238-.897 0-1.707.527-2.063 1.342-.238.548-1.137.548-1.375 0-.355-.815-1.165-1.342-2.062-1.342z"/></g><g><path d="m14.46 22.04-3.391-3.39c-.281-.281-.294-.733-.029-1.029l4.7-5.27c.049-.057.077-.089.109-.122 3.378-3.879 8.656-6.343 13.419-6.229.4.01.723.332.732.732.07 2.947-.853 6.157-2.599 9.037l-1.283-.777c1.453-2.397 2.285-5.026 2.377-7.485-4.087.162-8.642 2.408-11.55 5.746-.055.063-.083.095-.115.128l-4.199 4.71 2.89 2.889z"/></g><g><path d="m12.573 17.665-4.677-.67c-.281-.04-.516-.236-.605-.505-.09-.269-.02-.566.182-.767 2.369-2.369 5.604-3.708 8.91-3.708v1.5c-2.396 0-4.75.799-6.654 2.229l3.058.438z"/></g><g><path d="m6.75 30c-.196 0-.388-.077-.53-.22-.195-.195-.268-.481-.188-.746.252-.841 1.561-5.089 2.582-6.11 1.191-1.192 3.271-1.192 4.463 0 1.229 1.23 1.229 3.232 0 4.462-1.021 1.021-5.27 2.33-6.111 2.582-.071.022-.144.032-.216.032zm4.095-6.5c-.424 0-.848.162-1.171.484-.436.436-1.187 2.364-1.771 4.112 1.748-.584 3.677-1.335 4.112-1.771.645-.646.645-1.696 0-2.341-.323-.322-.746-.484-1.17-.484z"/></g><g><path d="m23.133 15.367c-.668 0-1.296-.26-1.768-.732-.975-.975-.975-2.561 0-3.536.942-.944 2.59-.945 3.535 0 .975.975.975 2.561 0 3.536-.472.472-1.1.732-1.767.732zm0-3.499c-.268 0-.519.104-.707.292-.39.39-.39 1.024 0 1.415.377.378 1.037.378 1.414 0 .39-.39.39-1.024 0-1.415-.189-.188-.441-.292-.707-.292z"/></g></svg>