<svg id="line" enable-background="new 0 0 36 36" height="512" viewBox="0 0 36 36" width="512" xmlns="http://www.w3.org/2000/svg"><g><path d="m31.833 27.623c0-6.917 3.583-11.667 3.583-15s-1.916-10.333-17.249-10.333-17.584 9.417-17.584 13.083c0 17.167 31.25 24.5 31.25 12.25z" fill="#efefef"/></g><g><path d="m7.555 3.467h1v2h-1z" fill="#a4afc1" transform="matrix(.707 -.707 .707 .707 -.799 7.004)"/></g><g><path d="m11.621 7.533h1v2h-1z" fill="#a4afc1" transform="matrix(.707 -.707 .707 .707 -2.484 11.07)"/></g><g><path d="m6.878 8.033h2v1h-2z" fill="#a4afc1" transform="matrix(.707 -.707 .707 .707 -3.726 8.07)"/></g><g><path d="m10.944 3.967h2v1h-2z" fill="#a4afc1" transform="matrix(.707 -.707 .707 .707 .34 9.755)"/></g><g><circle cx="23" cy="23" fill="#f3f3f1" r="4.25"/></g><g><path d="m16.383 12.764c-3.123 0-6.128 1.237-8.345 3.454l-.035.035 4.677.67z" fill="#f3f3f1"/></g><g><path d="m12.545 26.857c-.939.939-5.795 2.393-5.795 2.393s1.454-4.856 2.393-5.795 2.463-.939 3.402 0c.94.939.94 2.462 0 3.402z" fill="#2fdf84"/></g><g><ellipse cx="23.133" cy="12.867" fill="#f3f3f1" rx="1.75" ry="1.75" transform="matrix(.707 -.707 .707 .707 -2.323 20.126)"/></g><g><path d="m28.143 6.775c-4.419.274-8.992 2.744-11.838 6.074l-4.077 4.567c-.353.396-.336.998.039 1.373l4.943 4.943c.375.375.977.392 1.373.039l.224-.2c-.025-.188-.057-.375-.057-.571 0-2.347 1.903-4.25 4.25-4.25.348 0 .682.054 1.006.133 2.887-2.86 4.969-6.999 5.219-11.026.038-.615-.467-1.12-1.082-1.082zm-3.773 7.33c-.683.683-1.792.683-2.475 0s-.683-1.791 0-2.475 1.791-.683 2.475 0c.683.683.683 1.791 0 2.475z" fill="#2fdf84"/></g><g><path d="m10.253 16.253.035-.035c1.617-1.617 3.656-2.706 5.851-3.18l.244-.274c-3.123 0-6.128 1.237-8.345 3.454l-.035.035 4.677.67.255-.286z" fill="#d5dbe1"/></g><g><path d="m11.393 23.455c.173-.173.37-.303.576-.413-.909-.484-2.06-.354-2.826.413-.939.939-2.393 5.795-2.393 5.795s1.193-.358 2.511-.832c.461-1.429 1.437-4.268 2.132-4.963z" fill="#00b871"/></g><g><path d="m24.145 14.105c-.683-.683-.683-1.791 0-2.475.035-.035.075-.06.112-.092-.688-.582-1.714-.557-2.362.092-.683.683-.683 1.791 0 2.475.648.648 1.675.674 2.362.092-.036-.032-.077-.057-.112-.092z" fill="#d5dbe1"/></g><g><path d="m20.875 23c0-1.978 1.358-3.626 3.188-4.1-.341-.088-.693-.15-1.063-.15-2.347 0-4.25 1.903-4.25 4.25s1.903 4.25 4.25 4.25c.369 0 .721-.062 1.063-.15-1.83-.474-3.188-2.122-3.188-4.1z" fill="#d5dbe1"/></g><g><path d="m14.392 18.79c-.375-.375-.392-.977-.039-1.373l4.077-4.567c2.523-2.952 6.402-5.22 10.328-5.89-.178-.118-.382-.199-.615-.185-4.419.274-8.992 2.744-11.838 6.074l-4.077 4.567c-.353.396-.336.998.039 1.373l4.943 4.943c.375.375.977.392 1.373.039l.224-.2c-.018-.135-.03-.271-.041-.408z" fill="#00b871"/></g><g><path d="m23 28c-2.757 0-5-2.243-5-5s2.243-5 5-5 5 2.243 5 5-2.243 5-5 5zm0-8.5c-1.93 0-3.5 1.57-3.5 3.5s1.57 3.5 3.5 3.5 3.5-1.57 3.5-3.5-1.57-3.5-3.5-3.5z"/></g><g><path d="m26.966 25.547h1.5v4.339h-1.5z" transform="matrix(.707 -.707 .707 .707 -11.48 27.716)"/></g><g><path d="m14.46 22.04-3.39-3.39c-.281-.281-.294-.732-.03-1.029l4.805-5.387c3.382-3.885 8.643-6.366 13.423-6.234.4.01.723.332.732.732.07 2.947-.853 6.156-2.599 9.037l-1.283-.777c1.453-2.397 2.284-5.026 2.377-7.485-4.087.162-8.643 2.408-11.55 5.746-.055.064-.083.095-.115.128l-4.199 4.71 2.889 2.889z"/></g><g><path d="m12.574 17.665-4.677-.67c-.282-.04-.517-.237-.606-.508s-.017-.568.186-.769c2.4-2.4 5.552-3.705 8.906-3.705v1.5c-2.437 0-4.752.782-6.66 2.228l3.064.439z"/></g><g><path d="m6.75 30c-.196 0-.388-.077-.53-.22-.195-.195-.267-.481-.188-.746.251-.841 1.56-5.089 2.582-6.11 1.193-1.192 3.271-1.191 4.462 0 .596.597.924 1.389.924 2.232s-.328 1.635-.924 2.231c-1.021 1.021-5.27 2.33-6.11 2.582-.071.021-.144.031-.216.031zm4.095-6.499c-.424 0-.848.161-1.171.484-.436.436-1.187 2.364-1.771 4.112 1.748-.584 3.676-1.335 4.112-1.771.646-.646.646-1.696 0-2.341-.323-.323-.746-.484-1.17-.484z"/></g><g><path d="m23.133 15.366c-.641 0-1.281-.244-1.768-.731-.974-.975-.974-2.561 0-3.536.975-.975 2.561-.975 3.536 0 .974.975.974 2.561 0 3.536-.488.488-1.128.731-1.768.731zm0-3.498c-.256 0-.513.097-.708.292-.39.39-.39 1.024 0 1.415.389.39 1.025.39 1.414 0 .39-.39.39-1.024 0-1.414-.194-.196-.45-.293-.706-.293z"/></g></svg>