<svg id="line" enable-background="new 0 0 36 36" height="512" viewBox="0 0 36 36" width="512" xmlns="http://www.w3.org/2000/svg"><g><path d="m31.833 8.377c0 6.917 3.583 11.667 3.583 15s-1.916 10.333-17.249 10.333-17.584-9.417-17.584-13.083c0-17.167 31.25-24.5 31.25-12.25z" fill="#efefef"/></g><g><path d="m10 31.5c-.827 0-1.5-.673-1.5-1.5s.673-1.5 1.5-1.5 1.5.673 1.5 1.5-.673 1.5-1.5 1.5zm0-2c-.276 0-.5.225-.5.5s.224.5.5.5.5-.225.5-.5-.224-.5-.5-.5z" fill="#a4afc1"/></g><g><circle cx="15.5" cy="15.5" fill="#2fdf84" r="8.75"/></g><g><path d="m9 15.5c0-4.45 3.325-8.116 7.625-8.67-.369-.047-.743-.08-1.125-.08-4.832 0-8.75 3.917-8.75 8.75 0 4.832 3.918 8.75 8.75 8.75.382 0 .756-.033 1.125-.08-4.3-.554-7.625-4.22-7.625-8.67z" fill="#00b871"/></g><g><path d="m8.125 19.712-.97-1.145 6.36-5.39c.284-.238.7-.238.979.008l3.496 3.059 5.285-4.828 5.458-5.209 1.035 1.086-5.47 5.22-5.792 5.291c-.281.259-.712.263-1 .011l-3.514-3.075z"/></g><g><path d="m30 11h-1.5v-3.5h-3.5v-1.5h4.25c.414 0 .75.336.75.75z"/></g><g><path d="m15.5 25c-5.238 0-9.5-4.262-9.5-9.5 0-2.97 1.42-5.814 3.798-7.608l.903 1.197c-2.004 1.513-3.201 3.909-3.201 6.411 0 4.411 3.589 8 8 8s8-3.589 8-8-3.589-8-8-8c-1.126 0-2.208.228-3.215.676l-.609-1.371c1.2-.534 2.487-.805 3.824-.805 5.238 0 9.5 4.262 9.5 9.5s-4.262 9.5-9.5 9.5z"/></g><g><path d="m24.682 20.033h1.5v10.799h-1.5z" transform="matrix(.707 -.707 .707 .707 -10.534 25.433)"/></g></svg>