<svg id="line" enable-background="new 0 0 36 36" height="512" viewBox="0 0 36 36" width="512" xmlns="http://www.w3.org/2000/svg"><g><path d="m27.623 31.833c-6.917 0-11.667 3.583-15 3.583s-10.333-1.916-10.333-17.249 9.417-17.584 13.083-17.584c17.167 0 24.5 31.25 12.25 31.25z" fill="#efefef"/></g><g><path d="m7.556 5.967h1v2h-1z" fill="#a4afc1" transform="matrix(.707 -.707 .707 .707 -2.567 7.735)"/></g><g><path d="m11.621 10.033h1v2h-1z" fill="#a4afc1" transform="matrix(.707 -.707 .707 .707 -4.251 11.8)"/></g><g><path d="m6.879 10.533h2v1h-2z" fill="#a4afc1" transform="matrix(.707 -.707 .707 .707 -5.494 8.803)"/></g><g><path d="m10.944 6.467h2v1h-2z" fill="#a4afc1" transform="matrix(.707 -.707 .707 .707 -1.428 10.487)"/></g><g><path d="m28.25 11.5c0-2.362-2.184-4.214-4.643-3.647-1.386.32-2.495 1.47-2.778 2.864-.329 1.621.391 3.094 1.599 3.893.532.352.821.975.821 1.613v1.285c0 .488.258.741.577.741h1.346c.319 0 .577-.258.577-.577v-1.425c0-.644.281-1.281.818-1.636 1.013-.667 1.683-1.807 1.683-3.111z" fill="#f3f3f1"/></g><g><path d="m6.75 18.75v8.5h2.75l2-7.386s-1.458-1.114-4.75-1.114z" fill="#2fdf84"/></g><g><path d="m26.75 24c-1.298 0-2.805.628-4.25 1.071v-.431c0-.95-.67-1.77-1.6-1.96l-9.63-1.97-1.49 5.42c1.91.9 6.83 3.12 9.22 3.12 3 0 10.25-4 10.25-4s-.5-1.25-2.5-1.25z" fill="#2fdf84"/></g><g><path d="m6.75 18.75v8.5h2.25v-8.3c-.626-.117-1.367-.2-2.25-.2z" fill="#00b871"/></g><g><path d="m12.03 26.13 1.37-4.984-2.13-.436-1.49 5.42c1.91.9 6.83 3.12 9.22 3.12.314 0 .683-.052 1.077-.131-2.571-.483-6.411-2.218-8.047-2.989z" fill="#00b871"/></g><g><path d="m24.75 24.64v.431c1.018-.312 2.065-.712 3.049-.923-.295-.086-.633-.148-1.049-.148-.635 0-1.321.151-2.025.357.014.093.025.187.025.283z" fill="#00b871"/></g><g><path d="m25.5 17.509v-1.285c0-.638-.289-1.261-.821-1.613-1.208-.8-1.928-2.272-1.599-3.893.265-1.305 1.257-2.387 2.519-2.783-.614-.189-1.287-.243-1.991-.081-1.386.32-2.495 1.47-2.778 2.864-.329 1.621.391 3.094 1.599 3.893.532.352.821.975.821 1.613v1.285c0 .488.258.741.577.741h1.346c.195 0 .358-.103.463-.25-.081-.122-.136-.28-.136-.491z" fill="#d5dbe1"/></g><g><path d="m25.173 19h-1.346c-.659 0-1.327-.512-1.327-1.491v-1.286c0-.411-.186-.79-.485-.987-1.535-1.017-2.289-2.849-1.92-4.668.34-1.677 1.684-3.062 3.344-3.445 1.372-.315 2.781-.005 3.861.855 1.081.86 1.7 2.144 1.7 3.523 0 1.506-.755 2.904-2.019 3.738-.297.196-.481.583-.481 1.01v1.424c0 .732-.596 1.327-1.327 1.327zm-1.173-1.5h1v-1.251c0-.938.432-1.784 1.155-2.262.842-.556 1.345-1.486 1.345-2.487 0-.919-.413-1.776-1.134-2.349-.722-.573-1.667-.781-2.59-.567-1.098.253-1.986 1.17-2.211 2.282-.251 1.236.238 2.431 1.277 3.119.725.479 1.158 1.316 1.158 2.238z"/></g><g><path d="m9.5 28h-2.75c-.414 0-.75-.336-.75-.75v-8.5c0-.414.336-.75.75-.75 3.506 0 5.138 1.217 5.205 1.269.242.185.349.498.269.792l-2 7.386c-.088.326-.385.553-.724.553zm-2-1.5h1.426l1.698-6.271c-.523-.247-1.545-.615-3.124-.707z"/></g><g><path d="m19 30c-2.409 0-7.011-2-9.539-3.191l.639-1.357c4.11 1.938 7.354 3.049 8.9 3.049 2.028 0 6.632-2.19 9.045-3.454-.278-.159-.692-.296-1.295-.296-.878 0-1.964.361-3.013.712-1.163.388-2.365.788-3.487.788-2.107 0-4.889-1.003-5.006-1.045l.512-1.41c.026.01 2.652.955 4.494.955.878 0 1.964-.361 3.013-.712 1.163-.388 2.365-.788 3.487-.788 2.479 0 3.168 1.651 3.196 1.722.141.352-.003.752-.334.935-.302.166-7.455 4.092-10.612 4.092z"/></g><g><path d="m23.25 25.09h-1.5v-.45c0-.591-.421-1.106-1-1.226l-2.722-.56.303-1.469 2.721.56c1.273.261 2.198 1.394 2.198 2.694z"/></g><g><path d="m13 18.684h1.501v5.063h-1.501z" transform="matrix(.2 -.98 .98 .2 -9.781 30.457)"/></g></svg>