<svg id="line" enable-background="new 0 0 36 36" height="512" viewBox="0 0 36 36" width="512" xmlns="http://www.w3.org/2000/svg"><g><path d="m8.377 4.167c6.917 0 11.667-3.583 15-3.583s10.333 1.916 10.333 17.249-9.417 17.583-13.083 17.583c-17.167.001-24.5-31.249-12.25-31.249z" fill="#efefef"/></g><g><path d="m30 23.5c-.827 0-1.5-.673-1.5-1.5s.673-1.5 1.5-1.5 1.5.673 1.5 1.5-.673 1.5-1.5 1.5zm0-2c-.276 0-.5.224-.5.5s.224.5.5.5.5-.224.5-.5-.224-.5-.5-.5z" fill="#a4afc1"/></g><g><circle cx="21" cy="17" fill="#f3f3f1" r="4.25"/></g><g><path d="m19.25 6.75h-.5c-.828 0-1.5.672-1.5 1.5 0 .552-.448 1-1 1h-4.5c-.552 0-1-.448-1-1 0-.828-.672-1.5-1.5-1.5h-.5z" fill="#f3f3f1"/></g><g><path d="m26.75 13.75h-2.5v-2.5l2.5-2.5v2.5h2.5z" fill="#f3f3f1"/></g><g><path d="m21 21.25c-2.347 0-4.25-1.903-4.25-4.25s1.903-4.25 4.25-4.25c.086 0 .166.02.25.025v-4.025c0-1.105-.895-2-2-2h-.5c-.828 0-1.5.672-1.5 1.5 0 .552-.448 1-1 1h-4.5c-.552 0-1-.448-1-1 0-.828-.672-1.5-1.5-1.5h-.5c-1.105 0-2 .895-2 2v18.5c0 1.105.895 2 2 2h10.5c1.105 0 2-.895 2-2v-6.025c-.084.005-.164.025-.25.025z" fill="#2fdf84"/></g><g><path d="m9 27.25v-18.5c0-.764.434-1.421 1.064-1.757-.235-.153-.513-.243-.814-.243h-.5c-1.105 0-2 .895-2 2v18.5c0 1.105.895 2 2 2h2.25c-1.105 0-2-.895-2-2z" fill="#00b871"/></g><g><path d="m18.875 17c0-1.978 1.358-3.626 3.188-4.1-.341-.088-.693-.15-1.063-.15-2.347 0-4.25 1.903-4.25 4.25s1.903 4.25 4.25 4.25c.369 0 .721-.062 1.063-.15-1.83-.474-3.188-2.122-3.188-4.1z" fill="#d5dbe1"/></g><g><path d="m12.875 8.25c0-.828-.672-1.5-1.5-1.5h-.5-1.625c.828 0 1.5.672 1.5 1.5 0 .552.448 1 1 1h2.125c-.552 0-1-.448-1-1z" fill="#d5dbe1"/></g><g><path d="m26.75 10.875v-2.125l-2.5 2.5v2.5h2.125v-2.5z" fill="#d5dbe1"/></g><g><path d="m16.25 10h-4.5c-.965 0-1.75-.785-1.75-1.75 0-.414-.336-.75-.75-.75h-.5v-1.5h.5c1.241 0 2.25 1.009 2.25 2.25 0 .138.112.25.25.25h4.5c.138 0 .25-.112.25-.25 0-1.241 1.009-2.25 2.25-2.25h.5v1.5h-.5c-.414 0-.75.336-.75.75 0 .965-.785 1.75-1.75 1.75z"/></g><g><path d="m19.25 30h-10.5c-1.517 0-2.75-1.233-2.75-2.75v-18.5c0-1.517 1.233-2.75 2.75-2.75h10.5c1.517 0 2.75 1.233 2.75 2.75v.5h-1.5v-.5c0-.689-.561-1.25-1.25-1.25h-10.5c-.689 0-1.25.561-1.25 1.25v18.5c0 .689.561 1.25 1.25 1.25h10.5c.689 0 1.25-.561 1.25-1.25v-2.5h1.5v2.5c0 1.517-1.233 2.75-2.75 2.75z"/></g><g><path d="m21 22c-2.757 0-5-2.243-5-5s2.243-5 5-5v1.5c-1.93 0-3.5 1.57-3.5 3.5s1.57 3.5 3.5 3.5 3.5-1.57 3.5-3.5h1.5c0 2.757-2.243 5-5 5z"/></g><g><path d="m20.379 14.75h4.243v1.5h-4.243z" transform="matrix(.707 -.707 .707 .707 -4.37 20.45)"/></g><g><path d="m26.75 14.5h-2.5c-.414 0-.75-.336-.75-.75v-2.5c0-.199.079-.39.22-.53l2.5-2.5c.215-.215.538-.278.817-.163.28.116.463.39.463.693v1.75h1.75c.303 0 .577.183.693.463s.052.603-.163.817l-2.5 2.5c-.14.141-.331.22-.53.22zm-1.75-1.5h1.439l1-1h-.689c-.414 0-.75-.336-.75-.75v-.689l-1 1z"/></g><g><path d="m2 28.5h32v1.5h-32z"/></g></svg>