<svg id="line" enable-background="new 0 0 36 36" height="512" viewBox="0 0 36 36" width="512" xmlns="http://www.w3.org/2000/svg"><g><path d="m8.377 4.167c6.917 0 11.667-3.583 15-3.583s10.333 1.916 10.333 17.249-9.417 17.583-13.083 17.583c-17.167.001-24.5-31.249-12.25-31.249z" fill="#efefef"/></g><g><path d="m27.467 2.967h1v2h-1z" fill="#a4afc1" transform="matrix(.707 -.707 .707 .707 5.383 20.934)"/></g><g><path d="m31.533 7.033h1v2h-1z" fill="#a4afc1" transform="matrix(.707 -.707 .707 .707 3.699 24.999)"/></g><g><path d="m30.856 3.467h2v1h-2z" fill="#a4afc1" transform="matrix(.707 -.707 .707 .707 6.525 23.688)"/></g><g><path d="m29.25 20.25v-.922c0-.53-.211-1.039-.586-1.414l-1.414-1.414v-2.938c0-1.017-.31-2.01-.889-2.846l-1.361-1.966-1.361 1.966c-.579.836-.889 1.829-.889 2.846v2.938l-1.414 1.414c-.375.375-.586.884-.586 1.414v.922z" fill="#f3f3f1"/></g><g><path d="m19.25 6.75h-.5c-.828 0-1.5.672-1.5 1.5 0 .552-.448 1-1 1h-4.5c-.552 0-1-.448-1-1 0-.828-.672-1.5-1.5-1.5h-.5z" fill="#f3f3f1"/></g><g><path d="m20.786 18.96c.017-.09.046-.177.075-.264.009-.025.013-.051.023-.075.083-.22.208-.422.365-.602v-9.269c0-1.105-.895-2-2-2h-.5c-.828 0-1.5.672-1.5 1.5 0 .552-.448 1-1 1h-4.5c-.552 0-1-.448-1-1 0-.828-.672-1.5-1.5-1.5h-.5c-1.105 0-2 .895-2 2v18.25c0 1.105.895 2 2 2h10.5c1.105 0 2-.895 2-2v-6.75h-.5v-.922c.001-.124.014-.247.037-.368z" fill="#2fdf84"/></g><g><path d="m9 27v-18.25c0-.764.434-1.421 1.064-1.757-.235-.153-.513-.243-.814-.243h-.5c-1.105 0-2 .895-2 2v18.25c0 1.105.895 2 2 2h2.25c-1.105 0-2-.895-2-2z" fill="#00b871"/></g><g><path d="m23.461 17.914 1.414-1.414v-2.938c0-1.017.31-2.01.889-2.846l.298-.431-1.062-1.535-1.361 1.966c-.579.836-.889 1.829-.889 2.846v2.938l-1.414 1.414c-.375.375-.586.884-.586 1.414v.922h2.125v-.922c0-.53.211-1.039.586-1.414z" fill="#d5dbe1"/></g><g><path d="m12.875 8.25c0-.828-.672-1.5-1.5-1.5h-.5-1.625c.828 0 1.5.672 1.5 1.5 0 .552.448 1 1 1h2.125c-.552 0-1-.448-1-1z" fill="#d5dbe1"/></g><g><path d="m16.25 10h-4.5c-.965 0-1.75-.785-1.75-1.75 0-.414-.337-.75-.75-.75h-.5v-1.5h.5c1.24 0 2.25 1.009 2.25 2.25 0 .138.112.25.25.25h4.5c.138 0 .25-.112.25-.25 0-1.241 1.01-2.25 2.25-2.25h.5v1.5h-.5c-.413 0-.75.336-.75.75 0 .965-.785 1.75-1.75 1.75z"/></g><g><path d="m19.25 30h-10.5c-1.517 0-2.75-1.233-2.75-2.75v-18.5c0-1.517 1.233-2.75 2.75-2.75h10.5c1.517 0 2.75 1.233 2.75 2.75v.5h-1.5v-.5c0-.689-.561-1.25-1.25-1.25h-10.5c-.689 0-1.25.561-1.25 1.25v18.5c0 .689.561 1.25 1.25 1.25h10.5c.689 0 1.25-.561 1.25-1.25v-2.5h1.5v2.5c0 1.517-1.233 2.75-2.75 2.75z"/></g><g><path d="m29.25 21h-8.5c-.414 0-.75-.336-.75-.75v-.921c0-.735.286-1.425.806-1.945l1.194-1.195v-2.627c0-1.174.354-2.306 1.021-3.273l1.362-1.966c.279-.405.953-.405 1.232 0l1.361 1.966c.67.967 1.024 2.099 1.024 3.273v2.627l1.194 1.194c.52.52.806 1.21.806 1.945v.921c0 .415-.336.751-.75.751zm-7.75-1.5h7v-.171c0-.334-.13-.648-.366-.884l-1.414-1.415c-.141-.141-.22-.332-.22-.53v-2.938c0-.868-.262-1.705-.756-2.419l-.744-1.076-.745 1.075c-.493.714-.755 1.551-.755 2.419v2.939c0 .199-.079.39-.22.53l-1.414 1.414c-.236.236-.366.55-.366.884z"/></g><g><path d="m26.5 20.25h1.5v2h-1.5z"/></g><g><path d="m22 20.25h1.5v2h-1.5z"/></g><g><path d="m2 28.5h32v1.5h-32z"/></g></svg>