<svg id="line" enable-background="new 0 0 36 36" height="512" viewBox="0 0 36 36" width="512" xmlns="http://www.w3.org/2000/svg"><g><path d="m27.623 31.833c-6.917 0-11.667 3.583-15 3.583s-10.333-1.916-10.333-17.249 9.417-17.584 13.083-17.584c17.167 0 24.5 31.25 12.25 31.25z" fill="#efefef"/></g><g><path d="m30 23.5c-.827 0-1.5-.673-1.5-1.5s.673-1.5 1.5-1.5 1.5.673 1.5 1.5-.673 1.5-1.5 1.5zm0-2c-.276 0-.5.224-.5.5s.224.5.5.5.5-.224.5-.5-.224-.5-.5-.5z" fill="#a4afc1"/></g><g><path d="m19.25 6.75h-.5c-.828 0-1.5.672-1.5 1.5 0 .552-.448 1-1 1h-4.5c-.552 0-1-.448-1-1 0-.828-.672-1.5-1.5-1.5h-.5z" fill="#f3f3f1"/></g><g><path d="m19.104 22.115c-.544.544-3.354 1.385-3.354 1.385s.842-2.811 1.385-3.354c.544-.544 1.425-.544 1.969 0s.544 1.425 0 1.969z" fill="#f3f3f1"/></g><g><path d="m30 9.764c.004-.204-.076-.4-.22-.544s-.341-.223-.544-.22c-2.499.047-5.264 1.284-7.316 3.215-1.995.044-4.222.235-5.919 1.565-.169.133-.273.332-.286.546-.013.215.067.424.219.576l8.129 8.129c.141.142.333.221.532.221.015 0 .03 0 .044-.001.214-.013.414-.117.546-.286 1.315-1.678 1.515-3.873 1.563-5.85 1.955-2.062 3.205-4.84 3.252-7.351z" fill="#f3f3f1"/></g><g><path d="m15.935 14.902c-.152-.152-.232-.361-.219-.576.013-.214.117-.413.286-.546 1.509-1.183 3.437-1.463 5.249-1.542v-2.988-.5c0-1.105-.895-2-2-2h-.5c-.828 0-1.5.672-1.5 1.5 0 .552-.448 1-1 1h-4.5c-.552 0-1-.448-1-1 0-.828-.672-1.5-1.5-1.5h-.5c-1.105 0-2 .895-2 2v18.5c0 1.105.895 2 2 2h10.5c1.105 0 2-.895 2-2v-1.5-5.533zm3.169 7.213c-.544.544-3.354 1.385-3.354 1.385s.842-2.81 1.385-3.354c.544-.544 1.425-.544 1.969 0s.544 1.425 0 1.969z" fill="#2fdf84"/></g><g><path d="m12.875 8.25c0-.828-.672-1.5-1.5-1.5h-.5-1.625c.828 0 1.5.672 1.5 1.5 0 .552.448 1 1 1h2.125c-.552 0-1-.448-1-1z" fill="#d5dbe1"/></g><g><path d="m19.173 20.251c-.027-.033-.039-.074-.07-.105-.544-.544-1.425-.544-1.969 0-.543.544-1.384 3.354-1.384 3.354s1.384-.415 2.397-.85c.27-.804.689-1.948 1.026-2.399z" fill="#d5dbe1"/></g><g><path d="m20.346 14.902c-.152-.152-.232-.361-.219-.576.013-.214.117-.413.286-.546 1.697-1.33 3.924-1.52 5.919-1.565 1.072-1.009 2.341-1.822 3.664-2.382-.001-.022.004-.046.004-.069.004-.204-.076-.4-.22-.544s-.341-.223-.544-.22c-2.499.047-5.264 1.284-7.316 3.215-1.995.044-4.222.235-5.919 1.565-.169.133-.273.332-.286.546-.013.215.067.424.219.576l8.129 8.129c.141.142.333.221.532.221.015 0 .03 0 .044-.001.214-.013.414-.117.546-.286.51-.651.849-1.38 1.08-2.143z" fill="#d5dbe1"/></g><g><path d="m9 27.25v-18.5c0-.764.434-1.421 1.064-1.757-.235-.153-.513-.243-.814-.243h-.5c-1.105 0-2 .895-2 2v18.5c0 1.105.895 2 2 2h2.25c-1.105 0-2-.895-2-2z" fill="#00b871"/></g><g><path d="m16.25 10h-4.5c-.965 0-1.75-.785-1.75-1.75 0-.414-.336-.75-.75-.75h-.5v-1.5h.5c1.241 0 2.25 1.009 2.25 2.25 0 .138.112.25.25.25h4.5c.138 0 .25-.112.25-.25 0-1.241 1.009-2.25 2.25-2.25h.5v1.5h-.5c-.414 0-.75.336-.75.75 0 .965-.785 1.75-1.75 1.75z"/></g><g><path d="m19.25 30h-10.5c-1.517 0-2.75-1.233-2.75-2.75v-18.5c0-1.517 1.233-2.75 2.75-2.75h10.5c1.517 0 2.75 1.233 2.75 2.75v.5h-1.5v-.5c0-.689-.561-1.25-1.25-1.25h-10.5c-.689 0-1.25.561-1.25 1.25v18.5c0 .689.561 1.25 1.25 1.25h10.5c.689 0 1.25-.561 1.25-1.25v-1.5h1.5v1.5c0 1.517-1.233 2.75-2.75 2.75z"/></g><g><path d="m22.283 20.928c-.192 0-.384-.074-.53-.22l-3.461-3.461c-.282-.282-.294-.736-.027-1.032l2.835-3.147c2.089-2.414 5.286-4.015 8.136-4.068.188-.011.4.076.544.22s.224.341.22.544c-.054 2.85-1.655 6.047-4.08 8.146l-3.136 2.825c-.142.129-.322.193-.501.193zm-2.428-4.238 2.454 2.454 2.618-2.358c1.859-1.609 3.194-4.016 3.505-6.219-2.203.31-4.608 1.645-6.209 3.494z"/></g><g><path d="m24.595 23.252c-.199 0-.391-.079-.532-.221l-2.313-2.324 1.063-1.058 1.653 1.662c.669-1.309.761-2.94.789-4.521l1.5.026c-.036 2.051-.19 4.386-1.571 6.147-.132.169-.332.273-.546.286-.013.002-.028.003-.043.003z"/></g><g><path d="m18.258 17.215-2.324-2.313c-.152-.152-.232-.361-.219-.576.013-.214.117-.413.286-.546 1.761-1.38 4.096-1.535 6.147-1.571l.026 1.5c-1.581.028-3.212.119-4.52.788l1.662 1.654z"/></g><g><path d="m15.75 24.25c-.196 0-.388-.077-.53-.22-.195-.195-.267-.481-.188-.746.269-.899.961-3.057 1.573-3.669.835-.835 2.193-.834 3.029 0 .835.836.835 2.195 0 3.03-.612.612-2.77 1.304-3.669 1.573-.07.022-.143.032-.215.032zm2.37-3.761c-.165 0-.329.063-.454.188-.161.172-.451.852-.737 1.645.792-.286 1.472-.576 1.646-.737.249-.25.249-.657-.001-.907-.126-.127-.29-.189-.454-.189z"/></g><g><path d="m2 28.5h32v1.5h-32z"/></g></svg>