<svg id="line" enable-background="new 0 0 36 36" height="512" viewBox="0 0 36 36" width="512" xmlns="http://www.w3.org/2000/svg"><g><path d="m27.623 31.833c-6.917 0-11.667 3.583-15 3.583s-10.333-1.916-10.333-17.249 9.417-17.584 13.083-17.584c17.167 0 24.5 31.25 12.25 31.25z" fill="#efefef"/></g><g><path d="m8.375 5.25h1v2h-1z" fill="#a4afc1"/></g><g><path d="m5.125 8.25h2v1h-2z" fill="#a4afc1"/></g><g><path d="m24.25 23.25v-.922c0-.53-.211-1.039-.586-1.414l-2.414-2.414v-6.33c0-.919-.316-1.809-.896-2.522l-2.354-2.898-2.354 2.898c-.579.713-.896 1.604-.896 2.522v6.33l-2.414 2.414c-.375.375-.586.884-.586 1.414v.922z" fill="#2fdf84"/></g><g><path d="m14.461 20.914 2.414-2.414v-6.33c0-.919.316-1.809.896-2.522l1.292-1.59-1.063-1.308-2.354 2.898c-.579.713-.896 1.604-.896 2.522v6.33l-2.414 2.414c-.375.375-.586.884-.586 1.414v.922h2.125v-.922c0-.53.211-1.039.586-1.414z" fill="#00b871"/></g><g><path d="m24.25 24h-12.5c-.414 0-.75-.336-.75-.75v-.921c0-.735.286-1.425.806-1.945l2.194-2.195v-6.02c0-1.087.377-2.151 1.063-2.995l2.354-2.898c.285-.351.879-.351 1.164 0l2.354 2.898c.688.845 1.065 1.909 1.065 2.996v1.83h-1.5v-1.83c0-.744-.258-1.472-.728-2.049l-1.772-2.182-1.772 2.182c-.469.577-.728 1.305-.728 2.049v6.33c0 .199-.079.39-.22.53l-2.414 2.414c-.236.236-.366.55-.366.884v.172h11v-.171c0-.334-.13-.648-.366-.884l-2.414-2.415c-.141-.141-.22-.332-.22-.53v-2.5h1.5v2.189l2.194 2.194c.52.52.806 1.21.806 1.945v.921c0 .415-.336.751-.75.751z"/></g><g><path d="m21.75 22.5h1.5v2.5h-1.5z"/></g><g><path d="m12.75 22.5h1.5v2.5h-1.5z"/></g><g><path d="m26.699 29.565c-.259-.56-.654-1.043-1.141-1.399-.598-.436-1.309-.666-2.058-.666-1.12 0-2.187.546-2.854 1.462l-1.212-.884c.948-1.301 2.468-2.078 4.066-2.078 1.068 0 2.085.33 2.942.954.693.505 1.253 1.19 1.619 1.981z"/></g><g><path d="m20.49 29.78c-.246-.246-.515-.447-.8-.597-1.082-.585-2.363-.567-3.385.002-.289.157-.561.361-.795.595l-1.06-1.06c.334-.334.726-.628 1.132-.849 1.443-.806 3.309-.826 4.815-.011.411.217.801.507 1.153.859z"/></g><g><path d="m9.296 29.553-1.372-.605c.333-.754.868-1.42 1.55-1.932.026-.026.054-.05.084-.072.848-.618 1.859-.944 2.922-.944 1.613 0 3.135.783 4.071 2.094l-1.222.871c-.654-.917-1.719-1.465-2.849-1.465-.712 0-1.389.208-1.962.602-.025.024-.052.047-.081.067-.508.364-.902.843-1.141 1.384z"/></g><g><path d="m8.374 26.434c-.484-.459-1.09-.762-1.75-.875l.253-1.479c.954.163 1.829.601 2.53 1.266z"/></g><g><path d="m27.626 26.434-1.032-1.088c.701-.665 1.576-1.103 2.53-1.266l.253 1.479c-.661.113-1.267.416-1.751.875z"/></g><g><path d="m18.72 12.798c-.396-.396-1.043-.396-1.439 0l-1.061-1.061c.981-.981 2.579-.981 3.561 0z"/></g></svg>