<svg id="line" enable-background="new 0 0 36 36" height="512" viewBox="0 0 36 36" width="512" xmlns="http://www.w3.org/2000/svg"><g><path d="m8.377 4.167c6.917 0 11.667-3.583 15-3.583s10.333 1.916 10.333 17.249-9.417 17.583-13.083 17.583c-17.167.001-24.5-31.249-12.25-31.249z" fill="#efefef"/></g><g><path d="m24.555 3.967h1v2h-1z" fill="#a4afc1" transform="matrix(.707 -.707 .707 .707 3.826 19.172)"/></g><g><path d="m28.621 8.033h1v2h-1z" fill="#a4afc1" transform="matrix(.707 -.707 .707 .707 2.142 23.238)"/></g><g><path d="m23.878 8.533h2v1h-2z" fill="#a4afc1" transform="matrix(.707 -.707 .707 .707 .9 20.238)"/></g><g><path d="m27.944 4.467h2v1h-2z" fill="#a4afc1" transform="matrix(.707 -.707 .707 .707 4.965 21.922)"/></g><g><path d="m15.25 18.25v-.922c0-.53-.211-1.039-.586-1.414l-1.414-1.414v-2.938c0-1.017-.31-2.01-.889-2.846l-1.361-1.966-1.361 1.966c-.579.836-.889 1.829-.889 2.846v2.938l-1.414 1.414c-.375.375-.586.884-.586 1.414v.922z" fill="#2fdf84"/></g><g><path d="m8.75 24.75h4.5v4.5h-4.5z" fill="#f3f3f1"/></g><g><path d="m20.25 29.25h-2.5c-.552 0-1-.448-1-1v-7.5c0-.552.448-1 1-1h2.5c.552 0 1 .448 1 1v7.5c0 .552-.448 1-1 1z" fill="#f3f3f1"/></g><g><path d="m24.75 14.75h4.5v14.5h-4.5z" fill="#f3f3f1"/></g><g><path d="m9.586 15.914 1.414-1.414v-2.938c0-1.017.31-2.01.889-2.846l.236-.341-1.125-1.625-1.361 1.966c-.579.836-.889 1.829-.889 2.846v2.938l-1.414 1.414c-.375.375-.586.884-.586 1.414v.922h2.25v-.922c0-.53.211-1.039.586-1.414z" fill="#00b871"/></g><g><path d="m8.75 24.75h2.25v4.5h-2.25z" fill="#d5dbe1"/></g><g><path d="m19 28.25v-7.5c0-.552.448-1 1-1h-2.25c-.552 0-1 .448-1 1v7.5c0 .552.448 1 1 1h2.25c-.552 0-1-.448-1-1z" fill="#d5dbe1"/></g><g><path d="m24.75 14.75h2.25v14.5h-2.25z" fill="#d5dbe1"/></g><g><path d="m15.25 19h-8.5c-.414 0-.75-.336-.75-.75v-.921c0-.735.286-1.425.806-1.945l1.194-1.195v-2.627c0-1.176.354-2.308 1.022-3.273l1.361-1.965c.28-.405.953-.405 1.233 0l1.361 1.966c.669.964 1.023 2.096 1.023 3.272v2.627l1.194 1.194c.52.52.806 1.21.806 1.945v.921c0 .415-.336.751-.75.751zm-7.75-1.5h7v-.171c0-.334-.13-.648-.366-.884l-1.414-1.415c-.141-.141-.22-.332-.22-.53v-2.938c0-.869-.261-1.706-.756-2.419l-.744-1.075-.744 1.075c-.495.713-.756 1.55-.756 2.419v2.938c0 .199-.079.39-.22.53l-1.414 1.414c-.236.237-.366.551-.366.885z"/></g><g><path d="m12.5 18.25h1.5v2h-1.5z"/></g><g><path d="m8 18.25h1.5v2h-1.5z"/></g><g><path d="m13.25 30h-4.5c-.414 0-.75-.336-.75-.75v-4.5c0-.414.336-.75.75-.75h4.5c.414 0 .75.336.75.75v4.5c0 .414-.336.75-.75.75zm-3.75-1.5h3v-3h-3z"/></g><g><path d="m21.25 30h-4.5c-.2 0-.391-.079-.532-.221s-.219-.334-.218-.533l.04-7.5 1.5.008-.036 6.746h2.996v-8h-1.75v-1.5h2.5c.414 0 .75.336.75.75v9.5c0 .414-.336.75-.75.75z"/></g><g><path d="m29.25 30h-4.5c-.414 0-.75-.336-.75-.75v-14.5c0-.414.336-.75.75-.75h4.5c.414 0 .75.336.75.75v14.5c0 .414-.336.75-.75.75zm-3.75-1.5h3v-13h-3z"/></g><g><path d="m2 28.5h32v1.5h-32z"/></g></svg>