<svg id="line" enable-background="new 0 0 36 36" height="512" viewBox="0 0 36 36" width="512" xmlns="http://www.w3.org/2000/svg"><g><path d="m4.167 27.623c0-6.917-3.583-11.667-3.583-15s1.916-10.333 17.249-10.333 17.583 9.417 17.583 13.083c.001 17.167-31.249 24.5-31.249 12.25z" fill="#efefef"/></g><g><path d="m26.467 3.967h1v2h-1z" fill="#a4afc1" transform="matrix(.707 -.707 .707 .707 4.386 20.523)"/></g><g><path d="m30.533 8.033h1v2h-1z" fill="#a4afc1" transform="matrix(.707 -.707 .707 .707 2.702 24.589)"/></g><g><path d="m29.856 4.467h2v1h-2z" fill="#a4afc1" transform="matrix(.707 -.707 .707 .707 5.525 23.273)"/></g><g><path d="m24.25 23.25v-.922c0-.53-.211-1.039-.586-1.414l-2.414-2.414v-6.33c0-.919-.316-1.809-.896-2.522l-2.354-2.898-2.354 2.898c-.579.713-.896 1.604-.896 2.522v6.33l-2.414 2.414c-.375.375-.586.884-.586 1.414v.922z" fill="#2fdf84"/></g><g><path d="m14.586 20.914 2.414-2.414v-6.33c0-.919.316-1.809.896-2.522l1.229-1.513-1.125-1.385-2.354 2.898c-.579.713-.896 1.604-.896 2.522v6.33l-2.414 2.414c-.375.375-.586.884-.586 1.414v.922h2.25v-.922c0-.53.211-1.039.586-1.414z" fill="#00b871"/></g><g><path d="m27.455 26.133-.968-1.146c.753-.636 1.735-.987 2.763-.987v1.5c-.665 0-1.319.23-1.795.633z"/></g><g><path d="m8.545 26.133c-.476-.403-1.13-.633-1.795-.633v-1.5c1.028 0 2.01.351 2.763.986z"/></g><g><path d="m9.325 28.787-1.218-.875c.951-1.322 2.546-2.112 4.268-2.112 1.522 0 2.956.622 3.932 1.706l-1.114 1.004c-.693-.769-1.72-1.21-2.818-1.21-1.24 0-2.38.555-3.05 1.487z"/></g><g><path d="m26.675 28.787c-.669-.932-1.81-1.487-3.05-1.487-1.098 0-2.125.441-2.818 1.21l-1.114-1.004c.977-1.084 2.41-1.706 3.932-1.706 1.722 0 3.317.79 4.268 2.112z"/></g><g><path d="m20.198 29.701c-.494-.658-1.316-1.051-2.198-1.051s-1.704.393-2.198 1.051l-1.199-.902c.777-1.032 2.047-1.648 3.397-1.648s2.621.616 3.397 1.648z"/></g><g><path d="m24.25 24h-12.5c-.414 0-.75-.336-.75-.75v-.922c0-.734.286-1.425.806-1.944l2.194-2.195v-6.02c0-1.087.377-2.151 1.063-2.995l2.354-2.898c.285-.351.879-.351 1.164 0l2.354 2.898c.688.845 1.065 1.909 1.065 2.996v1.83h-1.5v-1.83c0-.744-.258-1.472-.728-2.049l-1.772-2.182-1.772 2.182c-.469.577-.728 1.305-.728 2.049v6.33c0 .199-.079.39-.22.53l-2.414 2.414c-.233.232-.366.555-.366.884v.172h11v-.172c0-.329-.133-.651-.366-.884l-2.414-2.414c-.141-.141-.22-.332-.22-.53v-2.5h1.5v2.189l2.194 2.194c.52.52.806 1.21.806 1.944v.922c0 .415-.336.751-.75.751z"/></g><g><path d="m21.75 22.5h1.5v2.5h-1.5z"/></g><g><path d="m12.75 22.5h1.5v2.5h-1.5z"/></g><g><path d="m9.25 12.5h1.5v2.5h-1.5z"/></g><g><path d="m10.125 14h-2.125v-1.5h2.125c.207 0 .375-.168.375-.375s-.168-.375-.375-.375h-.25c-1.034 0-1.875-.841-1.875-1.875s.841-1.875 1.875-1.875h2.125v1.5h-2.125c-.207 0-.375.168-.375.375s.168.375.375.375h.25c1.034 0 1.875.841 1.875 1.875s-.841 1.875-1.875 1.875z"/></g><g><path d="m9.25 7h1.5v2.5h-1.5z"/></g><g><path d="m27.25 18.5h1.5v2.5h-1.5z"/></g><g><path d="m28.125 20h-2.125v-1.5h2.125c.207 0 .375-.168.375-.375s-.168-.375-.375-.375h-.25c-1.034 0-1.875-.841-1.875-1.875s.841-1.875 1.875-1.875h2.125v1.5h-2.125c-.207 0-.375.168-.375.375s.168.375.375.375h.25c1.034 0 1.875.841 1.875 1.875s-.841 1.875-1.875 1.875z"/></g><g><path d="m27.25 13h1.5v2.5h-1.5z"/></g></svg>