<svg id="line" enable-background="new 0 0 36 36" height="512" viewBox="0 0 36 36" width="512" xmlns="http://www.w3.org/2000/svg"><g><path d="m27.623 4.167c-6.917 0-11.667-3.583-15-3.583s-10.333 1.916-10.333 17.249 9.417 17.583 13.083 17.583c17.167.001 24.5-31.249 12.25-31.249z" fill="#efefef"/></g><g><path d="m33 4.5c-.827 0-1.5-.673-1.5-1.5s.673-1.5 1.5-1.5 1.5.673 1.5 1.5-.673 1.5-1.5 1.5zm0-2c-.276 0-.5.224-.5.5s.224.5.5.5.5-.224.5-.5-.224-.5-.5-.5z" fill="#a4afc1"/></g><g><path d="m6.5 6.5h22.75v22.75h-22.75z" fill="#2fdf84"/></g><g><path d="m6.5 6.5h2.125v22.75h-2.125z" fill="#00b871"/></g><g><path d="m11 30h-4.25c-.414 0-.75-.336-.75-.75v-22.5c0-.414.336-.75.75-.75h17.25v1.5h-16.5v21h3.5z"/></g><g><path d="m29.25 30h-15.25v-1.5h14.5v-21h-1.5v-1.5h2.25c.414 0 .75.336.75.75v22.5c0 .414-.336.75-.75.75z"/></g><g><path d="m26.25 27h-2.5v-1.5h1.75v-8.75h1.5v9.5c0 .414-.336.75-.75.75z"/></g><g><path d="m29.25 13h-3c-.414 0-.75-.336-.75-.75v-1.75h-5.75v-1.5h6.5c.414 0 .75.336.75.75v1.75h2.25z"/></g><g><path d="m10.5 14.25h-1.5v-4.5c0-.414.336-.75.75-.75h6.5v1.5h-5.75z"/></g><g><path d="m19.25 27h-9.5c-.414 0-.75-.336-.75-.75v-7.5c0-.414.336-.75.75-.75h3v1.5h-2.25v6h8.75z"/></g><g><path d="m24 15h-1.5v-1.5h-10.5v-1.5h11.25c.414 0 .75.336.75.75z"/></g><g><path d="m23.25 24h-10.5c-.414 0-.75-.336-.75-.75v-6.5h1.5v5.75h9v-3.75h1.5v4.5c0 .414-.336.75-.75.75z"/></g><g><path d="m20.25 21h-4.5c-.414 0-.75-.336-.75-.75v-4.5c0-.414.336-.75.75-.75h4.5v1.5h-3.75v3h3v-.75h1.5v1.5c0 .414-.336.75-.75.75z"/></g><g><path d="m12 6.75h1.5v2.75h-1.5z"/></g><g><path d="m6.75 22h3v1.5h-3z"/></g><g><path d="m21 9.75h1.5v2.75h-1.5z"/></g><g><path d="m2 28.5h32v1.5h-32z"/></g></svg>