<svg id="line" enable-background="new 0 0 36 36" height="512" viewBox="0 0 36 36" width="512" xmlns="http://www.w3.org/2000/svg"><g><path d="m4.167 8.377c0 6.917-3.583 11.667-3.583 15s1.916 10.333 17.249 10.333 17.583-9.417 17.583-13.083c.001-17.167-31.249-24.5-31.249-12.25z" fill="#efefef"/></g><g><path d="m7.033 4.467h2v1h-2z" fill="#a4afc1" transform="matrix(.707 -.707 .707 .707 -1.159 7.135)"/></g><g><path d="m2.967 8.533h2v1h-2z" fill="#a4afc1" transform="matrix(.707 -.707 .707 .707 -5.226 5.451)"/></g><g><path d="m3.644 3.967h1v2h-1z" fill="#a4afc1" transform="matrix(.707 -.707 .707 .707 -2.298 4.385)"/></g><g><circle cx="11.5" cy="20" fill="#2fdf84" r="2.25"/></g><g><path d="m16.25 30v-2.25c0-1.105-.895-2-2-2h-5.5c-1.105 0-2 .895-2 2v2.25z" fill="#2fdf84"/></g><g><circle cx="24.5" cy="20" fill="#2fdf84" r="2.25"/></g><g><path d="m29.25 30v-2.25c0-1.105-.895-2-2-2h-5.5c-1.105 0-2 .895-2 2v2.25z" fill="#2fdf84"/></g><g><path d="m21.75 10.5c0-2.362-2.184-4.214-4.643-3.647-1.386.32-2.495 1.47-2.778 2.864-.329 1.621.391 3.094 1.599 3.893.532.352.821.975.821 1.613v1.285c0 .488.258.741.577.741h1.346c.319 0 .577-.258.577-.577v-1.425c0-.644.281-1.281.818-1.636 1.013-.667 1.683-1.807 1.683-3.111z" fill="#f3f3f1"/></g><g><path d="m11.5 20c0-.831.455-1.548 1.125-1.938-.332-.193-.713-.312-1.125-.312-1.243 0-2.25 1.007-2.25 2.25s1.007 2.25 2.25 2.25c.412 0 .793-.119 1.125-.312-.67-.39-1.125-1.107-1.125-1.938z" fill="#00b871"/></g><g><path d="m11 25.75h-2.25c-1.105 0-2 .895-2 2v2.25h2.25v-2.25c0-1.105.895-2 2-2z" fill="#00b871"/></g><g><path d="m24.5 20c0-.831.455-1.548 1.125-1.938-.332-.193-.713-.312-1.125-.312-1.243 0-2.25 1.007-2.25 2.25s1.007 2.25 2.25 2.25c.412 0 .793-.119 1.125-.312-.67-.39-1.125-1.107-1.125-1.938z" fill="#00b871"/></g><g><path d="m24 25.75h-2.25c-1.105 0-2 .895-2 2v2.25h2.25v-2.25c0-1.105.895-2 2-2z" fill="#00b871"/></g><g><path d="m19 16.509v-1.285c0-.638-.289-1.261-.821-1.613-1.208-.8-1.928-2.272-1.599-3.893.265-1.305 1.257-2.387 2.519-2.783-.614-.189-1.287-.243-1.991-.081-1.386.32-2.495 1.47-2.778 2.864-.329 1.621.391 3.094 1.599 3.893.532.352.821.975.821 1.613v1.285c0 .488.258.741.577.741h1.346c.195 0 .358-.103.463-.25-.081-.122-.136-.28-.136-.491z" fill="#d5dbe1"/></g><g><path d="m11.5 23c-1.654 0-3-1.346-3-3s1.346-3 3-3 3 1.346 3 3-1.346 3-3 3zm0-4.5c-.827 0-1.5.673-1.5 1.5s.673 1.5 1.5 1.5 1.5-.673 1.5-1.5-.673-1.5-1.5-1.5z"/></g><g><path d="m17 30h-1.5v-2.25c0-.689-.561-1.25-1.25-1.25h-5.5c-.689 0-1.25.561-1.25 1.25v2.25h-1.5v-2.25c0-1.517 1.233-2.75 2.75-2.75h5.5c1.517 0 2.75 1.233 2.75 2.75z"/></g><g><path d="m24.5 23c-1.654 0-3-1.346-3-3s1.346-3 3-3 3 1.346 3 3-1.346 3-3 3zm0-4.5c-.827 0-1.5.673-1.5 1.5s.673 1.5 1.5 1.5 1.5-.673 1.5-1.5-.673-1.5-1.5-1.5z"/></g><g><path d="m30 30h-1.5v-2.25c0-.689-.561-1.25-1.25-1.25h-5.5c-.689 0-1.25.561-1.25 1.25v2.25h-1.5v-2.25c0-1.517 1.233-2.75 2.75-2.75h5.5c1.517 0 2.75 1.233 2.75 2.75z"/></g><g><path d="m18.67 18h-1.34c-.661 0-1.33-.512-1.33-1.49v-1.29c0-.41-.186-.787-.483-.983-1.538-1.018-2.292-2.85-1.922-4.666.337-1.68 1.682-3.068 3.348-3.451 1.377-.315 2.784.002 3.863.862 1.077.859 1.694 2.141 1.694 3.518 0 .18-.013.36-.039.527l-1.482-.234c.014-.093.021-.193.021-.293 0-.918-.412-1.772-1.13-2.346-.721-.576-1.662-.784-2.594-.573-1.099.253-1.987 1.172-2.211 2.286-.252 1.235.238 2.43 1.278 3.118.724.477 1.156 1.313 1.156 2.234v1.28h1v-1.25c0-.937.432-1.783 1.155-2.264.258-.173.504-.4.711-.657l1.168.941c-.301.373-.662.706-1.047.963-.304.206-.486.584-.486 1.018v1.42c0 .733-.597 1.33-1.33 1.33z"/></g><g><path d="m2 28.5h32v1.5h-32z"/></g></svg>